<?xml version="1.0" encoding="UTF-8" standalone="no"?>
<svg xmlns="http://www.w3.org/2000/svg" viewBox="0 0 512 512">
<path d="M 215,0 214,1 213,1 212,2 211,2 209,4 208,4 206,6 206,7 204,9 204,10 203,11 203,12 202,13 202,48 201,49 200,49 199,50 197,50 196,51 193,51 192,52 190,52 189,53 187,53 186,54 184,54 183,55 181,55 180,56 179,56 178,57 176,57 175,58 174,58 173,59 171,59 170,60 169,60 168,61 167,61 166,62 165,62 164,63 163,63 162,64 161,64 160,65 159,65 158,66 157,66 156,67 155,67 154,68 153,68 152,69 151,69 150,70 149,70 148,71 126,49 125,49 123,47 122,47 121,46 120,46 119,45 107,45 106,46 104,46 103,47 102,47 47,102 47,103 46,104 46,106 45,107 45,118 46,119 46,121 47,122 47,123 49,125 49,126 71,148 71,149 69,151 69,152 68,153 68,154 67,155 67,156 66,157 66,158 65,159 65,160 64,161 64,162 63,163 63,164 62,165 62,166 61,167 61,168 60,169 60,171 59,172 59,173 58,174 58,176 57,177 57,178 56,179 56,181 55,182 55,184 54,185 54,186 53,187 53,190 52,191 52,193 51,194 51,196 50,197 50,200 48,202 13,202 12,203 11,203 10,204 9,204 7,206 6,206 4,208 4,209 2,211 2,212 1,213 1,214 0,215 0,296 1,297 1,298 2,299 2,300 4,302 4,303 6,305 7,305 9,307 10,307 11,308 12,308 13,309 48,309 50,311 50,313 51,314 51,317 52,318 52,320 53,321 53,323 54,324 54,326 55,327 55,329 56,330 56,332 57,333 57,334 58,335 58,337 59,338 59,339 60,340 60,341 61,342 61,344 62,345 62,346 63,347 63,348 64,349 64,350 65,351 65,352 66,353 66,354 67,355 67,356 68,357 68,358 70,360 70,361 71,362 71,363 49,385 49,386 47,388 47,389 46,390 46,391 45,392 45,404 46,405 46,407 47,408 47,409 102,464 103,464 104,465 106,465 107,466 118,466 119,465 121,465 122,464 123,464 125,462 126,462 148,440 149,440 150,441 151,441 153,443 154,443 155,444 156,444 157,445 158,445 159,446 160,446 161,447 162,447 163,448 164,448 165,449 166,449 167,450 169,450 170,451 171,451 172,452 173,452 174,453 176,453 177,454 178,454 179,455 181,455 182,456 184,456 185,457 187,457 188,458 190,458 191,459 193,459 194,460 197,460 198,461 200,461 202,463 202,498 203,499 203,500 204,501 204,502 206,504 206,505 208,507 209,507 211,509 212,509 213,510 214,510 215,511 296,511 297,510 298,510 299,509 300,509 302,507 303,507 305,505 305,504 307,502 307,501 308,500 308,499 309,498 309,463 311,461 314,461 315,460 317,460 318,459 320,459 321,458 323,458 324,457 326,457 327,456 329,456 330,455 332,455 333,454 334,454 335,453 337,453 338,452 339,452 340,451 342,451 343,450 344,450 345,449 346,449 347,448 348,448 349,447 350,447 351,446 352,446 353,445 354,445 355,444 356,444 357,443 358,443 359,442 360,442 362,440 363,440 385,462 386,462 388,464 389,464 390,465 392,465 393,466 404,466 405,465 407,465 408,464 409,464 464,409 464,408 465,407 465,405 466,404 466,392 465,391 465,390 464,389 464,388 462,386 462,385 440,363 441,362 441,361 442,360 442,359 443,358 443,357 444,356 444,355 445,354 445,353 446,352 446,351 447,350 447,349 448,348 448,347 449,346 449,345 450,344 450,343 451,342 451,341 452,340 452,338 453,337 453,336 454,335 454,333 455,332 455,331 456,330 456,328 457,327 457,325 458,324 458,322 459,321 459,319 460,318 460,315 461,314 461,312 462,311 462,310 463,309 498,309 499,308 500,308 501,307 502,307 504,305 505,305 507,303 507,302 509,300 509,299 510,298 510,297 511,296 511,215 510,214 510,213 509,212 509,211 507,209 507,208 505,206 504,206 502,204 501,204 500,203 499,203 498,202 463,202 462,201 462,200 461,199 461,196 460,195 460,193 459,192 459,190 458,189 458,187 457,186 457,184 456,183 456,181 455,180 455,179 454,178 454,176 453,175 453,173 452,172 452,171 451,170 451,169 450,168 450,167 449,166 449,165 448,164 448,162 447,161 447,160 446,159 446,158 445,157 445,156 443,154 443,153 442,152 442,151 441,150 441,149 440,148 462,126 462,125 464,123 464,122 465,121 465,119 466,118 466,107 465,106 465,104 464,103 464,102 409,47 408,47 407,46 405,46 404,45 392,45 391,46 390,46 389,47 388,47 386,49 385,49 363,71 362,70 361,70 360,69 359,69 358,68 357,68 355,66 354,66 353,65 352,65 351,64 350,64 349,63 347,63 346,62 345,62 344,61 343,61 342,60 341,60 340,59 339,59 338,58 336,58 335,57 333,57 332,56 331,56 330,55 328,55 327,54 325,54 324,53 322,53 321,52 319,52 318,51 316,51 315,50 312,50 311,49 310,49 309,48 309,13 308,12 308,11 307,10 307,9 305,7 305,6 303,4 302,4 300,2 299,2 298,1 297,1 296,0 " fill="white" stroke="white" stroke-width="1"/>
</svg>