<?xml version="1.0" encoding="UTF-8"?>
<svg id="Camada_1" xmlns="http://www.w3.org/2000/svg" version="1.1" viewBox="80 300 840 400">
  <!-- Generator: Adobe Illustrator 29.1.0, SVG Export Plug-In . SVG Version: 2.1.0 Build 142)  -->
  <defs>
    <style>
      .st0 {
        fill: #101664;
      }
    </style>
  </defs>
  <g>
    <g>
      <polygon class="st0" points="354.9 531.3 322.6 455.7 287.6 455.7 337.3 572.4 372.5 572.4 422.3 455.7 387.2 455.7 354.9 531.3"/>
      <rect class="st0" x="429.3" y="455.7" width="32" height="116.7"/>
      <rect class="st0" x="429.3" y="409" width="32" height="32.1"/>
      <path class="st0" d="M625.5,536.8c-.8,2.4-1.9,4.3-3.3,5.7-1.4,1.4-3,2.4-4.9,2.9-1.9.5-4,.8-6.3.8s-5.4-.5-7.2-1.5c-1.9-1-3.3-2.4-4.3-4.1-1-1.7-1.7-3.8-2.1-6.3-.4-2.5-.6-5.1-.6-7.7v-42.3h57v-28.7h-57v-46.7h-31.7v46.7h-88.6v116.7h32v-88h56.6v45.5c0,7.9.9,14.8,2.8,20.5,1.9,5.8,4.6,10.5,8.3,14.4,3.7,3.8,8.3,6.6,14,8.4,5.7,1.8,12.2,2.7,19.5,2.7s13.8-.8,19.4-2.3c5.6-1.6,10.4-4.2,14.4-7.9,4-3.7,7-8.7,9-14.8,2-6.1,3-13.7,3-22.8h-28.7c0,3.4-.4,6.3-1.2,8.8Z"/>
      <path class="st0" d="M763.1,511v3c0,10.7-2.5,18.8-7.5,24.2-5,5.4-12.3,8.1-21.9,8.1s-9.7-.7-13.2-2c-3.5-1.3-6.3-3.2-8.3-5.7-2-2.5-3.4-5.6-4.2-9.2-.8-3.7-1.2-7.7-1.2-12.3v-61.4h-32v64.4c0,10.4,1,19.2,3.2,26.3,2.1,7.1,5.2,12.8,9.3,17.2,4.1,4.4,9.3,7.5,15.4,9.5,6.1,1.9,13.3,2.9,21.4,2.9s16.4-1.5,22.5-4.6c6.1-3,11.2-7.3,15.1-12.7.5-.7.9-1.5,1.4-2.2v16h32v-116.7h-32v55.3Z"/>
      <path class="st0" d="M926.2,521.1c-2.7-4.4-6.6-7.8-11.6-10.4-5-2.6-10.9-4.5-17.7-5.8-6.8-1.3-14.3-2.6-22.4-3.9-5.9-.9-11-1.9-15.2-2.8-4.2-.9-7.7-1.9-10.4-3-2.7-1.1-4.7-2.2-6.1-3.3-1.3-1.1-2-2.3-2-3.7s.3-2.4.9-3.5c.6-1.1,1.7-2.1,3.3-3,1.6-.9,3.8-1.7,6.8-2.2,3-.5,6.8-.8,11.4-.8s11.4.3,16.1.8c4.7.5,8.5,1.5,11.6,2.8,3,1.3,5.3,3,6.8,5.1,1.5,2.1,2.2,4.8,2.2,8.1h28.9c0-15.2-4.7-26.3-14.2-33-9.5-6.8-24.6-10.2-45.3-10.2s-17.7.7-24.6,2.1c-6.9,1.4-12.7,3.6-17.3,6.5-4.6,3-8,6.7-10.2,11.3-2.2,4.6-3.3,10.2-3.3,16.7s1.6,13.3,4.9,18c3.3,4.7,7.5,8.4,12.8,11.2,5.3,2.8,11.2,4.9,17.7,6.3,6.5,1.4,13,2.5,19.4,3.3,5.6.9,10.6,1.7,14.9,2.2,4.4.5,8,1.2,11,2,3,.8,5.1,1.8,6.5,3,1.4,1.2,2.1,2.9,2.1,4.9s-.4,2.7-1.3,3.9c-.9,1.2-2.2,2.2-4.1,3.2-1.9.9-4.2,1.6-7.1,2.1-2.9.5-6.4.7-10.6.7s-11-.3-15.6-.9c-4.7-.6-8.6-1.6-11.9-2.8-3.3-1.2-5.8-3-7.6-5.1-1.8-2.2-2.7-4.8-2.7-7.9h-28.7c0,15.3,4.9,26.3,14.8,33,9.9,6.8,25.6,10.2,47,10.2s31.5-2.8,40.7-8.5c9.3-5.7,13.9-15.2,13.9-28.6s-1.4-13.4-4.1-17.7Z"/>
    </g>
    <g>
      <path class="st0" d="M140.7,591h58.6c1.5,0,2.8-.8,3.5-2.1l42.1-84.7c.6-1.3.5-2.9-.4-4l-19.5-26.3c-.7-1-1.9-1.6-3.1-1.6h-34.6c-3.2,0-5,3.6-3.1,6.2l14.8,19.9c1.4,1.9.8,4.7-1.4,5.8l-38.6,19.3c-.9.5-1.6,1.3-1.9,2.2l-19.9,60.3c-.8,2.5,1,5.1,3.7,5.1Z"/>
      <path class="st0" d="M174.2,427.6h-58.6c-1.5,0-2.8.8-3.5,2.1l-42.1,84.7c-.6,1.3-.5,2.9.4,4l19.5,26.3c.7,1,1.9,1.6,3.1,1.6h34.6c3.2,0,5-3.6,3.1-6.2l-14.8-19.9c-1.4-1.9-.8-4.7,1.4-5.8l38.6-19.3c.9-.5,1.6-1.3,1.9-2.2l19.9-60.3c.8-2.5-1-5.1-3.7-5.1Z"/>
    </g>
  </g>
  <g>
    <path class="st0" d="M481.3,629.6c-2.4-2.4-3.6-6.1-3.6-11s1.1-8.6,3.4-11,5.7-3.6,10.4-3.6,4.1.2,5.8.6c1.7.4,3.1,1,4.2,1.8,1.1.8,2,1.9,2.6,3.2.6,1.3.9,2.9.9,4.8h-4.6c0-1.2-.3-2.2-.8-3s-1.2-1.4-2.1-1.8-1.8-.7-2.9-.9-2.2-.2-3.3-.2c-1.6,0-3,.2-4.1.6s-2,1-2.7,1.8c-.7.8-1.2,1.9-1.5,3.1-.3,1.3-.5,2.8-.5,4.6,0,3.5.8,6.1,2.5,7.7,1.6,1.6,4.2,2.4,7.5,2.4s1.9,0,2.9-.2c.9-.1,1.8-.4,2.5-.8.7-.4,1.4-.9,1.8-1.6.5-.7.7-1.7.7-2.9h4.6c0,1.9-.3,3.4-.9,4.7-.6,1.3-1.5,2.3-2.6,3.1-1.1.8-2.4,1.3-4,1.7-1.6.3-3.3.5-5.2.5-5,0-8.8-1.2-11.2-3.6Z"/>
    <path class="st0" d="M509.9,614.7c1.8-1.8,4.6-2.7,8.4-2.7s6.6.9,8.5,2.7c1.8,1.8,2.8,4.4,2.8,7.9s-.9,6.1-2.8,7.9c-1.8,1.8-4.7,2.7-8.5,2.7s-6.6-.9-8.4-2.7c-1.8-1.8-2.7-4.4-2.7-7.9s.9-6.1,2.7-7.9ZM513.5,627.4c1,1.1,2.6,1.6,4.8,1.6s3.8-.5,4.9-1.6c1.1-1.1,1.6-2.6,1.6-4.7s-.5-3.7-1.6-4.7c-1.1-1.1-2.7-1.6-4.9-1.6s-3.9.5-4.9,1.6c-1,1.1-1.5,2.6-1.5,4.7s.5,3.7,1.6,4.7Z"/>
    <path class="st0" d="M532.8,632.6v-20h4.6v20h-4.6ZM546.7,632.6v-11.6c0-.6,0-1.2-.2-1.8-.1-.6-.4-1.1-.7-1.5-.3-.4-.8-.8-1.4-1-.6-.3-1.3-.4-2.2-.4-1.6,0-2.8.5-3.7,1.6-.8,1.1-1.2,2.6-1.2,4.7v.5h-1.6v-.4c0-1.6.1-3,.4-4.3s.7-2.4,1.4-3.4c.7-.9,1.5-1.7,2.5-2.2,1-.5,2.3-.8,3.7-.8s2.3.2,3.2.6c.9.4,1.7.9,2.3,1.6.6.7,1.1,1.6,1.4,2.7.3,1.1.5,2.4.5,3.8v11.8h-4.6ZM560.6,632.6v-10.8c0-.9,0-1.6-.2-2.3-.1-.7-.4-1.3-.7-1.7-.3-.5-.8-.9-1.3-1.1-.6-.3-1.3-.4-2.2-.4s-1.5.1-2.2.4c-.6.3-1.1.6-1.5,1-.4.4-.7.9-.9,1.5-.2.6-.3,1.2-.3,1.9v2h-2.4v-2.3c0-1.1.1-2.1.4-3.2.3-1,.7-2,1.3-2.8s1.4-1.5,2.5-2c1-.5,2.3-.8,3.8-.8s2.7.2,3.8.5c1.1.3,1.9.9,2.6,1.7.7.8,1.2,1.7,1.5,2.9.3,1.2.5,2.6.5,4.3v11.2h-4.6Z"/>
    <path class="st0" d="M589,624h-4.5v-2.1c0-1.1-.1-2-.4-2.7-.3-.8-.7-1.4-1.2-1.8-.5-.5-1.1-.8-1.8-1-.7-.2-1.5-.3-2.4-.3s-1.6.1-2.3.4c-.7.3-1.3.7-1.9,1.3-.5.6-.9,1.3-1.2,2.1-.3.8-.4,1.8-.4,2.9s.1,2.3.4,3.2.7,1.5,1.2,2.1c.5.5,1.2.9,2,1.1.8.2,1.7.3,2.7.3s1.5,0,2.2-.3c.7-.2,1.2-.4,1.7-.8.5-.3.8-.7,1.1-1.1s.4-.9.4-1.4h4.2c0,2.3-.8,4-2.5,5.4-1.6,1.4-4,2-7.1,2s-6.6-.9-8.4-2.7c-1.8-1.8-2.8-4.4-2.8-7.9s.9-6,2.7-7.8c1.8-1.8,4.4-2.7,7.8-2.7s6.5.9,8.1,2.8c1.6,1.9,2.4,4.7,2.4,8.3v.8ZM570.1,620.6h17v3.4h-17v-3.4ZM579.9,600l2.4,1.8-6,7.4-1.6-1.2,5.2-8Z"/>
    <path class="st0" d="M592.2,632.6v-20h4.6v20h-4.6ZM606.1,620.7c0-.7,0-1.3-.2-1.8-.2-.5-.4-1-.8-1.4-.3-.4-.8-.7-1.3-.9-.5-.2-1.2-.3-1.9-.3-1.6,0-2.8.5-3.7,1.6s-1.3,2.6-1.3,4.7v.5h-1.6v-.4c0-1.6.2-3,.5-4.3.3-1.3.8-2.4,1.4-3.4.6-.9,1.4-1.7,2.4-2.2,1-.5,2.1-.8,3.4-.8s2.3.2,3.2.5,1.7.9,2.3,1.6c.6.7,1.1,1.6,1.4,2.7.3,1.1.5,2.4.5,3.8h-4.2Z"/>
    <path class="st0" d="M626.5,612.7c1.2.4,2.2,1.1,3,1.8.8.8,1.4,1.7,1.9,2.7s.6,2.2.6,3.4h-4.2c0-.6-.1-1.2-.3-1.7-.2-.5-.6-1-1.1-1.4-.5-.4-1.1-.7-1.8-.9-.7-.2-1.5-.3-2.4-.3s-1.7.1-2.4.3c-.7.2-1.4.6-1.9,1.1-.5.5-.9,1.2-1.2,1.9-.3.8-.4,1.8-.4,2.9s.2,2.2.5,3c.3.8.8,1.5,1.3,2s1.2.8,2,1.1c.8.2,1.6.3,2.5.3s1.8-.1,2.5-.3c.7-.2,1.2-.5,1.7-.9.4-.4.8-.8,1-1.4.2-.5.3-1.1.3-1.7h4.2c0,1.2-.2,2.3-.6,3.4-.4,1-1,2-1.8,2.7-.8.8-1.8,1.4-3.1,1.8-1.2.4-2.7.7-4.4.7-3.6,0-6.3-.9-8.1-2.7-1.9-1.8-2.8-4.4-2.8-7.9s.9-6.2,2.6-7.9c1.7-1.8,4.5-2.7,8.3-2.7s3,.2,4.2.7Z"/>
    <path class="st0" d="M635,604.3c.5-.5,1.2-.7,2.3-.7s1.8.2,2.3.7c.5.5.7,1.2.7,2.3s-.2,1.8-.7,2.3c-.5.5-1.2.7-2.3.7s-1.8-.2-2.3-.7-.7-1.2-.7-2.3.2-1.8.7-2.3ZM635,612.6h4.6v20h-4.6v-20Z"/>
    <path class="st0" d="M645.5,614.7c1.8-1.8,4.6-2.7,8.4-2.7s6.6.9,8.5,2.7c1.8,1.8,2.8,4.4,2.8,7.9s-.9,6.1-2.8,7.9c-1.8,1.8-4.7,2.7-8.5,2.7s-6.6-.9-8.4-2.7c-1.8-1.8-2.7-4.4-2.7-7.9s.9-6.1,2.7-7.9ZM649.1,627.4c1,1.1,2.6,1.6,4.8,1.6s3.8-.5,4.9-1.6c1.1-1.1,1.6-2.6,1.6-4.7s-.5-3.7-1.6-4.7c-1.1-1.1-2.7-1.6-4.9-1.6s-3.9.5-4.9,1.6c-1,1.1-1.5,2.6-1.5,4.7s.5,3.7,1.6,4.7Z"/>
    <path class="st0" d="M699,624h-4.5v-2.1c0-1.1-.1-2-.4-2.7-.3-.8-.7-1.4-1.2-1.8-.5-.5-1.1-.8-1.8-1-.7-.2-1.5-.3-2.4-.3s-1.6.1-2.3.4c-.7.3-1.3.7-1.9,1.3-.5.6-.9,1.3-1.2,2.1-.3.8-.4,1.8-.4,2.9s.1,2.3.4,3.2.7,1.5,1.2,2.1c.5.5,1.2.9,2,1.1.8.2,1.7.3,2.7.3s1.5,0,2.2-.3c.7-.2,1.2-.4,1.7-.8.5-.3.8-.7,1.1-1.1s.4-.9.4-1.4h4.2c0,2.3-.8,4-2.5,5.4-1.6,1.4-4,2-7.1,2s-6.6-.9-8.4-2.7c-1.8-1.8-2.8-4.4-2.8-7.9s.9-6,2.7-7.8c1.8-1.8,4.4-2.7,7.8-2.7s6.5.9,8.1,2.8c1.6,1.9,2.4,4.7,2.4,8.3v.8ZM680.1,620.6h17v3.4h-17v-3.4Z"/>
    <path class="st0" d="M712.6,604.6h4.8v28h-4.8v-28Z"/>
    <path class="st0" d="M721.4,632.6v-20h4.6v20h-4.6ZM735.3,632.6v-11.6c0-.6,0-1.2-.2-1.8-.1-.6-.4-1.1-.7-1.5-.3-.4-.8-.8-1.4-1-.6-.3-1.3-.4-2.2-.4-1.6,0-2.8.5-3.7,1.6-.8,1.1-1.2,2.6-1.2,4.7v.5h-1.6v-.4c0-1.6.1-3,.4-4.3s.7-2.4,1.4-3.4c.7-.9,1.5-1.7,2.5-2.2,1-.5,2.3-.8,3.7-.8s2.3.2,3.2.6c.9.4,1.7.9,2.3,1.6.6.7,1.1,1.6,1.4,2.7.3,1.1.5,2.4.5,3.8v11.8h-4.6ZM749.2,632.6v-10.8c0-.9,0-1.6-.2-2.3-.1-.7-.4-1.3-.7-1.7-.3-.5-.8-.9-1.3-1.1-.6-.3-1.3-.4-2.2-.4s-1.5.1-2.2.4c-.6.3-1.1.6-1.5,1-.4.4-.7.9-.9,1.5-.2.6-.3,1.2-.3,1.9v2h-2.4v-2.3c0-1.1.1-2.1.4-3.2.3-1,.7-2,1.3-2.8s1.4-1.5,2.5-2c1-.5,2.3-.8,3.8-.8s2.7.2,3.8.5c1.1.3,1.9.9,2.6,1.7.7.8,1.2,1.7,1.5,2.9.3,1.2.5,2.6.5,4.3v11.2h-4.6Z"/>
    <path class="st0" d="M757.4,640.6v-28h4.6v28h-4.6ZM776.9,627.2c-.5,1.3-1.2,2.4-2,3.3-.8.9-1.8,1.6-2.9,2s-2.3.7-3.6.7-2.9-.3-3.9-.9-1.8-1.3-2.3-2.3-.9-2.1-1.1-3.4-.3-2.6-.3-4.1.1-3.1.3-4.4c.2-1.3.6-2.4,1.2-3.3s1.4-1.6,2.4-2.1c1-.5,2.3-.8,3.9-.8s2.6.2,3.7.7c1.1.5,2.1,1.1,2.9,2s1.4,2,1.8,3.3c.4,1.3.7,2.8.7,4.6s-.2,3.3-.7,4.6ZM771.6,617.9c-.8-1.1-2.2-1.6-4.2-1.6s-3.2.5-4.1,1.6-1.4,2.6-1.4,4.7.5,3.7,1.4,4.8c.9,1.1,2.3,1.6,4.1,1.6s1.6-.1,2.2-.4c.7-.3,1.2-.7,1.7-1.2.5-.5.8-1.2,1.1-2,.3-.8.4-1.7.4-2.7,0-2.1-.4-3.6-1.3-4.7Z"/>
    <path class="st0" d="M782.8,614.7c1.8-1.8,4.6-2.7,8.4-2.7s6.6.9,8.5,2.7c1.8,1.8,2.8,4.4,2.8,7.9s-.9,6.1-2.8,7.9c-1.8,1.8-4.7,2.7-8.5,2.7s-6.6-.9-8.4-2.7c-1.8-1.8-2.7-4.4-2.7-7.9s.9-6.1,2.7-7.9ZM786.4,627.4c1,1.1,2.6,1.6,4.8,1.6s3.8-.5,4.9-1.6c1.1-1.1,1.6-2.6,1.6-4.7s-.5-3.7-1.6-4.7c-1.1-1.1-2.7-1.6-4.9-1.6s-3.9.5-4.9,1.6c-1,1.1-1.5,2.6-1.5,4.7s.5,3.7,1.6,4.7Z"/>
    <path class="st0" d="M805.6,632.6v-20h4.6v20h-4.6ZM819.5,620.7c0-.7,0-1.3-.2-1.8-.2-.5-.4-1-.8-1.4-.3-.4-.8-.7-1.3-.9-.5-.2-1.2-.3-1.9-.3-1.6,0-2.8.5-3.7,1.6s-1.3,2.6-1.3,4.7v.5h-1.6v-.4c0-1.6.2-3,.5-4.3.3-1.3.8-2.4,1.4-3.4.6-.9,1.4-1.7,2.4-2.2,1-.5,2.1-.8,3.4-.8s2.3.2,3.2.5,1.7.9,2.3,1.6c.6.7,1.1,1.6,1.4,2.7.3,1.1.5,2.4.5,3.8h-4.2Z"/>
    <path class="st0" d="M844.7,612.6v4.2h-19.4v-4.2h19.4ZM830.1,612.6l1.6-8h3v20.3c0,.5,0,1,0,1.5s.2.9.4,1.3c.2.4.5.7.9.9s.9.3,1.5.3.9,0,1.3-.2c.4-.1.7-.3,1-.6.3-.3.5-.7.7-1.2s.2-1.1.2-1.9h4.2c0,1.5-.2,2.8-.5,3.9-.3,1.1-.8,1.9-1.5,2.5-.7.6-1.4,1.1-2.4,1.4-.9.3-2,.4-3.1.4s-2.2-.1-3.1-.4c-.9-.3-1.7-.7-2.3-1.4s-1.1-1.4-1.4-2.4c-.3-1-.5-2.1-.5-3.5v-12.9Z"/>
    <path class="st0" d="M863,625.6c0,1,0,2-.2,2.9-.1.9-.5,1.7-1,2.4-.5.7-1.3,1.2-2.3,1.7-1,.4-2.4.6-4.2.6s-2.5,0-3.5-.3c-1.1-.2-2-.5-2.8-1-.8-.5-1.4-1.1-1.8-1.9-.4-.8-.7-1.8-.7-3s.2-1.9.6-2.6c.4-.7,1-1.3,1.7-1.8.7-.5,1.7-.9,2.8-1.2,1.1-.3,2.3-.5,3.8-.7l8.4-.8.4,3.3-8.1.8c-.7,0-1.3.2-1.8.3-.6.1-1.1.3-1.5.5-.4.2-.8.5-1,.9-.2.3-.4.8-.4,1.3s0,.7.2,1c.2.3.4.5.8.8.4.2.8.4,1.4.5.6.1,1.3.2,2.2.2,1.2,0,2.3-.1,3.1-.4.8-.3,1.5-.6,2-.9.5-.4.9-.8,1.1-1.2.2-.4.3-.8.3-1.2h.6ZM861.9,617.7c-.3-.5-.8-.9-1.3-1.2-.5-.3-1.1-.4-1.8-.5-.6,0-1.2-.1-1.8-.1s-1.1,0-1.8,0c-.6,0-1.2.2-1.7.5-.5.2-.9.6-1.3,1.1-.3.5-.5,1.1-.5,2h-4.2c0-1.4.2-2.5.7-3.5.4-.9,1.1-1.7,1.9-2.3.8-.6,1.8-1,3-1.3,1.2-.3,2.5-.4,3.9-.4s3.1.1,4.4.4c1.2.3,2.3.8,3.1,1.4.8.7,1.4,1.5,1.9,2.6.4,1.1.6,2.4.6,4v12.1h-4.6v-12.8c0-.9-.2-1.6-.5-2.1Z"/>
    <path class="st0" d="M884.9,612.7c1.2.4,2.2,1.1,3,1.8.8.8,1.4,1.7,1.9,2.7s.6,2.2.6,3.4h-4.2c0-.6-.1-1.2-.3-1.7-.2-.5-.6-1-1.1-1.4-.5-.4-1.1-.7-1.8-.9-.7-.2-1.5-.3-2.4-.3s-1.7.1-2.4.3c-.7.2-1.4.6-1.9,1.1-.5.5-.9,1.2-1.2,1.9-.3.8-.4,1.8-.4,2.9s.2,2.2.5,3c.3.8.8,1.5,1.3,2s1.2.8,2,1.1c.8.2,1.6.3,2.5.3s1.8-.1,2.5-.3c.7-.2,1.2-.5,1.7-.9.4-.4.8-.8,1-1.4.2-.5.3-1.1.3-1.7h4.2c0,1.2-.2,2.3-.6,3.4-.4,1-1,2-1.8,2.7-.8.8-1.8,1.4-3.1,1.8-1.2.4-2.7.7-4.4.7-3.6,0-6.3-.9-8.1-2.7-1.9-1.8-2.8-4.4-2.8-7.9s.9-6.2,2.6-7.9c1.7-1.8,4.5-2.7,8.3-2.7s3,.2,4.2.7ZM881.6,632.6l-1.1,2.4c.5,0,1,0,1.4.1.5,0,.9.3,1.3.5.4.3.7.6.9,1,.2.4.3,1,.3,1.7,0,1.4-.4,2.3-1.1,2.9-.7.6-1.7.9-2.9.9s-.5,0-.9,0c-.4,0-.9-.2-1.4-.4-.5-.2-.9-.5-1.2-1-.4-.5-.5-1.1-.5-1.8h2.4c0,.3.2.6.5.7s.7.2,1.1.2.9-.1,1.2-.4c.3-.2.4-.6.4-1s-.2-1-.7-1.2c-.5-.2-1.1-.3-1.9-.3h-1.6l1.6-4.2h2.3Z"/>
    <path class="st0" d="M908.6,625.6c0,1,0,2-.2,2.9-.1.9-.5,1.7-1,2.4-.5.7-1.3,1.2-2.3,1.7-1,.4-2.4.6-4.2.6s-2.5,0-3.5-.3c-1.1-.2-2-.5-2.8-1-.8-.5-1.4-1.1-1.8-1.9-.4-.8-.7-1.8-.7-3s.2-1.9.6-2.6c.4-.7,1-1.3,1.7-1.8.7-.5,1.7-.9,2.8-1.2,1.1-.3,2.3-.5,3.8-.7l8.4-.8.4,3.3-8.1.8c-.7,0-1.3.2-1.8.3-.6.1-1.1.3-1.5.5-.4.2-.8.5-1,.9-.2.3-.4.8-.4,1.3s0,.7.2,1c.2.3.4.5.8.8.4.2.8.4,1.4.5.6.1,1.3.2,2.2.2,1.2,0,2.3-.1,3.1-.4.8-.3,1.5-.6,2-.9.5-.4.9-.8,1.1-1.2.2-.4.3-.8.3-1.2h.6ZM907.5,617.7c-.3-.5-.8-.9-1.3-1.2-.5-.3-1.1-.4-1.8-.5-.6,0-1.2-.1-1.8-.1s-1.1,0-1.8,0c-.6,0-1.2.2-1.7.5-.5.2-.9.6-1.3,1.1-.3.5-.5,1.1-.5,2h-4.2c0-1.4.2-2.5.7-3.5.4-.9,1.1-1.7,1.9-2.3.8-.6,1.8-1,3-1.3,1.2-.3,2.5-.4,3.9-.4s3.1.1,4.4.4c1.2.3,2.3.8,3.1,1.4.8.7,1.4,1.5,1.9,2.6.4,1.1.6,2.4.6,4v12.1h-4.6v-12.8c0-.9-.2-1.6-.5-2.1ZM894.9,606.8c.1-.7.4-1.4.7-1.9.3-.6.8-1,1.3-1.3.6-.3,1.3-.5,2.1-.5s1.5.2,2.1.5c.6.4,1.2.8,1.7,1.2.5.4,1,.8,1.5,1.2.5.4,1,.5,1.5.5s1-.3,1.2-.9.2-1.3.2-2.2h3c0,.8,0,1.6-.2,2.3-.1.7-.3,1.4-.6,1.9-.3.5-.7,1-1.2,1.3-.5.3-1.1.5-1.9.5s-1.7-.2-2.3-.5c-.6-.4-1.2-.8-1.7-1.2-.5-.4-1-.8-1.4-1.2-.5-.4-1-.5-1.6-.5s-.5,0-.7.2c-.2.1-.4.3-.5.5-.1.2-.3.6-.3.9,0,.4-.1.9-.1,1.4h-3c0-.8,0-1.5.2-2.3Z"/>
    <path class="st0" d="M918.2,614.7c1.8-1.8,4.6-2.7,8.4-2.7s6.6.9,8.5,2.7c1.8,1.8,2.8,4.4,2.8,7.9s-.9,6.1-2.8,7.9c-1.8,1.8-4.7,2.7-8.5,2.7s-6.6-.9-8.4-2.7c-1.8-1.8-2.7-4.4-2.7-7.9s.9-6.1,2.7-7.9ZM921.8,627.4c1,1.1,2.6,1.6,4.8,1.6s3.8-.5,4.9-1.6c1.1-1.1,1.6-2.6,1.6-4.7s-.5-3.7-1.6-4.7c-1.1-1.1-2.7-1.6-4.9-1.6s-3.9.5-4.9,1.6c-1,1.1-1.5,2.6-1.5,4.7s.5,3.7,1.6,4.7Z"/>
  </g>
</svg>