<?xml version="1.0" encoding="UTF-8"?>
<svg id="Camada_1" xmlns="http://www.w3.org/2000/svg" version="1.1" viewBox="0 0 1000 1000">
  <!-- Generator: Adobe Illustrator 29.1.0, SVG Export Plug-In . SVG Version: 2.1.0 Build 142)  -->
  <defs>
    <style>
      .st0 {
        fill: #101664;
      }
    </style>
  </defs>
  <g>
    <polygon class="st0" points="354.9 531.3 322.6 455.7 287.6 455.7 337.3 572.4 372.5 572.4 422.3 455.7 387.2 455.7 354.9 531.3"/>
    <rect class="st0" x="429.3" y="455.7" width="32" height="116.7"/>
    <rect class="st0" x="429.3" y="409" width="32" height="32.1"/>
    <path class="st0" d="M625.5,536.8c-.8,2.4-1.9,4.3-3.3,5.7-1.4,1.4-3,2.4-4.9,2.9-1.9.5-4,.8-6.3.8s-5.4-.5-7.2-1.5c-1.9-1-3.3-2.4-4.3-4.1-1-1.7-1.7-3.8-2.1-6.3-.4-2.5-.6-5.1-.6-7.7v-42.3h57v-28.7h-57v-46.7h-31.7v46.7h-88.6v116.7h32v-88h56.6v45.5c0,7.9.9,14.8,2.8,20.5,1.9,5.8,4.6,10.5,8.3,14.4,3.7,3.8,8.3,6.6,14,8.4,5.7,1.8,12.2,2.7,19.5,2.7s13.8-.8,19.4-2.3c5.6-1.6,10.4-4.2,14.4-7.9,4-3.7,7-8.7,9-14.8,2-6.1,3-13.7,3-22.8h-28.7c0,3.4-.4,6.3-1.2,8.8Z"/>
    <path class="st0" d="M763.1,511v3c0,10.7-2.5,18.8-7.5,24.2-5,5.4-12.3,8.1-21.9,8.1s-9.7-.7-13.2-2c-3.5-1.3-6.3-3.2-8.3-5.7-2-2.5-3.4-5.6-4.2-9.2-.8-3.7-1.2-7.7-1.2-12.3v-61.4h-32v64.4c0,10.4,1,19.2,3.2,26.3,2.1,7.1,5.2,12.8,9.3,17.2,4.1,4.4,9.3,7.5,15.4,9.5,6.1,1.9,13.3,2.9,21.4,2.9s16.4-1.5,22.5-4.6c6.1-3,11.2-7.3,15.1-12.7.5-.7.9-1.5,1.4-2.2v16h32v-116.7h-32v55.3Z"/>
    <path class="st0" d="M926.2,521.1c-2.7-4.4-6.6-7.8-11.6-10.4-5-2.6-10.9-4.5-17.7-5.8-6.8-1.3-14.3-2.6-22.4-3.9-5.9-.9-11-1.9-15.2-2.8-4.2-.9-7.7-1.9-10.4-3-2.7-1.1-4.7-2.2-6.1-3.3-1.3-1.1-2-2.3-2-3.7s.3-2.4.9-3.5c.6-1.1,1.7-2.1,3.3-3,1.6-.9,3.8-1.7,6.8-2.2,3-.5,6.8-.8,11.4-.8s11.4.3,16.1.8c4.7.5,8.5,1.5,11.6,2.8,3,1.3,5.3,3,6.8,5.1,1.5,2.1,2.2,4.8,2.2,8.1h28.9c0-15.2-4.7-26.3-14.2-33-9.5-6.8-24.6-10.2-45.3-10.2s-17.7.7-24.6,2.1c-6.9,1.4-12.7,3.6-17.3,6.5-4.6,3-8,6.7-10.2,11.3-2.2,4.6-3.3,10.2-3.3,16.7s1.6,13.3,4.9,18c3.3,4.7,7.5,8.4,12.8,11.2,5.3,2.8,11.2,4.9,17.7,6.3,6.5,1.4,13,2.5,19.4,3.3,5.6.9,10.6,1.7,14.9,2.2,4.4.5,8,1.2,11,2,3,.8,5.1,1.8,6.5,3,1.4,1.2,2.1,2.9,2.1,4.9s-.4,2.7-1.3,3.9c-.9,1.2-2.2,2.2-4.1,3.2-1.9.9-4.2,1.6-7.1,2.1-2.9.5-6.4.7-10.6.7s-11-.3-15.6-.9c-4.7-.6-8.6-1.6-11.9-2.8-3.3-1.2-5.8-3-7.6-5.1-1.8-2.2-2.7-4.8-2.7-7.9h-28.7c0,15.3,4.9,26.3,14.8,33,9.9,6.8,25.6,10.2,47,10.2s31.5-2.8,40.7-8.5c9.3-5.7,13.9-15.2,13.9-28.6s-1.4-13.4-4.1-17.7Z"/>
  </g>
  <g>
    <path class="st0" d="M140.7,591h58.6c1.5,0,2.8-.8,3.5-2.1l42.1-84.7c.6-1.3.5-2.9-.4-4l-19.5-26.3c-.7-1-1.9-1.6-3.1-1.6h-34.6c-3.2,0-5,3.6-3.1,6.2l14.8,19.9c1.4,1.9.8,4.7-1.4,5.8l-38.6,19.3c-.9.5-1.6,1.3-1.9,2.2l-19.9,60.3c-.8,2.5,1,5.1,3.7,5.1Z"/>
    <path class="st0" d="M174.2,427.6h-58.6c-1.5,0-2.8.8-3.5,2.1l-42.1,84.7c-.6,1.3-.5,2.9.4,4l19.5,26.3c.7,1,1.9,1.6,3.1,1.6h34.6c3.2,0,5-3.6,3.1-6.2l-14.8-19.9c-1.4-1.9-.8-4.7,1.4-5.8l38.6-19.3c.9-.5,1.6-1.3,1.9-2.2l19.9-60.3c.8-2.5-1-5.1-3.7-5.1Z"/>
  </g>
</svg>