<svg xmlns="http://www.w3.org/2000/svg" xmlns:xlink="http://www.w3.org/1999/xlink" width="50" zoomAndPan="magnify" viewBox="0 0 375 374.999991" height="60" preserveAspectRatio="xMidYMid meet" version="1.0"><path fill="#1a1c3f" d="M 123.953125 134.539062 C 124.820312 134.539062 125.683594 134.5 126.546875 134.414062 C 127.410156 134.328125 128.265625 134.203125 129.117188 134.03125 C 129.96875 133.863281 130.808594 133.652344 131.636719 133.402344 C 132.46875 133.148438 133.28125 132.855469 134.085938 132.527344 C 134.886719 132.195312 135.667969 131.824219 136.433594 131.414062 C 137.199219 131.003906 137.941406 130.558594 138.660156 130.078125 C 139.382812 129.597656 140.078125 129.082031 140.75 128.53125 C 141.417969 127.980469 142.0625 127.398438 142.675781 126.785156 C 143.285156 126.171875 143.867188 125.53125 144.417969 124.859375 C 144.96875 124.191406 145.484375 123.496094 145.964844 122.773438 C 146.449219 122.050781 146.894531 121.308594 147.300781 120.546875 C 147.710938 119.78125 148.082031 118.996094 148.414062 118.195312 C 148.746094 117.394531 149.035156 116.578125 149.289062 115.75 C 149.539062 114.917969 149.75 114.078125 149.921875 113.230469 C 150.089844 112.378906 150.214844 111.523438 150.300781 110.660156 C 150.386719 109.796875 150.429688 108.929688 150.429688 108.0625 C 150.429688 107.195312 150.386719 106.332031 150.300781 105.46875 C 150.214844 104.605469 150.089844 103.75 149.921875 102.898438 C 149.75 102.046875 149.539062 101.207031 149.289062 100.378906 C 149.035156 99.546875 148.746094 98.734375 148.414062 97.929688 C 148.082031 97.128906 147.710938 96.347656 147.300781 95.582031 C 146.894531 94.816406 146.449219 94.074219 145.964844 93.355469 C 145.484375 92.632812 144.96875 91.9375 144.417969 91.265625 C 143.867188 90.597656 143.285156 89.953125 142.675781 89.339844 C 142.0625 88.730469 141.417969 88.148438 140.75 87.597656 C 140.078125 87.046875 139.382812 86.53125 138.660156 86.050781 C 137.941406 85.566406 137.199219 85.121094 136.433594 84.714844 C 135.667969 84.304688 134.886719 83.933594 134.085938 83.601562 C 133.28125 83.269531 132.46875 82.980469 131.636719 82.726562 C 130.808594 82.476562 129.96875 82.265625 129.117188 82.09375 C 128.265625 81.925781 127.410156 81.800781 126.546875 81.714844 C 125.683594 81.628906 124.820312 81.585938 123.953125 81.585938 C 123.085938 81.585938 122.21875 81.628906 121.355469 81.714844 C 120.492188 81.800781 119.636719 81.925781 118.785156 82.09375 C 117.9375 82.265625 117.097656 82.476562 116.265625 82.726562 C 115.4375 82.980469 114.621094 83.269531 113.820312 83.601562 C 113.019531 83.933594 112.234375 84.304688 111.46875 84.714844 C 110.707031 85.121094 109.964844 85.566406 109.242188 86.050781 C 108.519531 86.53125 107.824219 87.046875 107.15625 87.597656 C 106.484375 88.148438 105.84375 88.730469 105.230469 89.339844 C 104.617188 89.953125 104.035156 90.597656 103.484375 91.265625 C 102.933594 91.9375 102.417969 92.632812 101.9375 93.355469 C 101.457031 94.074219 101.011719 94.816406 100.601562 95.582031 C 100.191406 96.347656 99.820312 97.128906 99.488281 97.929688 C 99.160156 98.734375 98.867188 99.546875 98.613281 100.378906 C 98.363281 101.207031 98.152344 102.046875 97.984375 102.898438 C 97.8125 103.75 97.6875 104.605469 97.601562 105.46875 C 97.515625 106.332031 97.476562 107.195312 97.476562 108.0625 C 97.476562 108.929688 97.515625 109.796875 97.601562 110.660156 C 97.6875 111.523438 97.8125 112.378906 97.984375 113.230469 C 98.152344 114.078125 98.363281 114.917969 98.613281 115.75 C 98.867188 116.578125 99.160156 117.394531 99.488281 118.195312 C 99.820312 118.996094 100.191406 119.78125 100.601562 120.546875 C 101.011719 121.308594 101.457031 122.050781 101.9375 122.773438 C 102.417969 123.496094 102.933594 124.191406 103.484375 124.859375 C 104.035156 125.53125 104.617188 126.171875 105.230469 126.785156 C 105.84375 127.398438 106.484375 127.980469 107.15625 128.53125 C 107.824219 129.082031 108.519531 129.597656 109.242188 130.078125 C 109.964844 130.558594 110.707031 131.003906 111.46875 131.414062 C 112.234375 131.824219 113.019531 132.195312 113.820312 132.527344 C 114.621094 132.855469 115.4375 133.148438 116.265625 133.402344 C 117.097656 133.652344 117.9375 133.863281 118.785156 134.03125 C 119.636719 134.203125 120.492188 134.328125 121.355469 134.414062 C 122.21875 134.5 123.085938 134.539062 123.953125 134.539062 Z M 123.953125 92.175781 C 124.472656 92.175781 124.992188 92.203125 125.507812 92.253906 C 126.027344 92.304688 126.539062 92.382812 127.050781 92.484375 C 127.5625 92.585938 128.066406 92.710938 128.5625 92.863281 C 129.0625 93.011719 129.550781 93.1875 130.03125 93.386719 C 130.511719 93.585938 130.980469 93.808594 131.441406 94.054688 C 131.898438 94.296875 132.34375 94.566406 132.777344 94.855469 C 133.210938 95.144531 133.628906 95.453125 134.03125 95.785156 C 134.433594 96.113281 134.816406 96.460938 135.183594 96.832031 C 135.554688 97.199219 135.902344 97.582031 136.230469 97.984375 C 136.5625 98.386719 136.871094 98.804688 137.160156 99.238281 C 137.449219 99.671875 137.71875 100.117188 137.960938 100.574219 C 138.207031 101.035156 138.429688 101.503906 138.628906 101.984375 C 138.828125 102.464844 139.003906 102.953125 139.152344 103.453125 C 139.304688 103.949219 139.429688 104.453125 139.53125 104.964844 C 139.632812 105.476562 139.710938 105.988281 139.761719 106.507812 C 139.8125 107.023438 139.839844 107.542969 139.839844 108.0625 C 139.839844 108.585938 139.8125 109.101562 139.761719 109.621094 C 139.710938 110.140625 139.632812 110.652344 139.53125 111.164062 C 139.429688 111.671875 139.304688 112.175781 139.152344 112.675781 C 139.003906 113.171875 138.828125 113.664062 138.628906 114.144531 C 138.429688 114.625 138.207031 115.09375 137.960938 115.550781 C 137.71875 116.011719 137.449219 116.457031 137.160156 116.890625 C 136.871094 117.324219 136.5625 117.738281 136.230469 118.140625 C 135.902344 118.542969 135.554688 118.929688 135.183594 119.296875 C 134.816406 119.664062 134.433594 120.015625 134.03125 120.34375 C 133.628906 120.675781 133.210938 120.984375 132.777344 121.273438 C 132.34375 121.5625 131.898438 121.828125 131.441406 122.074219 C 130.980469 122.320312 130.511719 122.542969 130.03125 122.742188 C 129.550781 122.941406 129.0625 123.113281 128.5625 123.265625 C 128.066406 123.417969 127.5625 123.542969 127.050781 123.644531 C 126.539062 123.746094 126.027344 123.824219 125.507812 123.875 C 124.992188 123.925781 124.472656 123.949219 123.953125 123.949219 C 123.429688 123.949219 122.914062 123.925781 122.394531 123.875 C 121.875 123.824219 121.363281 123.746094 120.851562 123.644531 C 120.34375 123.542969 119.839844 123.417969 119.339844 123.265625 C 118.84375 123.113281 118.351562 122.941406 117.871094 122.742188 C 117.390625 122.542969 116.921875 122.320312 116.464844 122.074219 C 116.003906 121.828125 115.558594 121.5625 115.125 121.273438 C 114.691406 120.984375 114.277344 120.675781 113.875 120.34375 C 113.472656 120.015625 113.085938 119.664062 112.71875 119.296875 C 112.351562 118.929688 112 118.542969 111.671875 118.140625 C 111.339844 117.738281 111.03125 117.324219 110.742188 116.890625 C 110.453125 116.457031 110.1875 116.011719 109.941406 115.550781 C 109.695312 115.09375 109.472656 114.625 109.273438 114.144531 C 109.074219 113.664062 108.902344 113.171875 108.75 112.675781 C 108.597656 112.175781 108.472656 111.671875 108.371094 111.164062 C 108.269531 110.652344 108.191406 110.140625 108.140625 109.621094 C 108.089844 109.101562 108.066406 108.585938 108.066406 108.0625 C 108.066406 107.542969 108.089844 107.023438 108.140625 106.507812 C 108.191406 105.988281 108.269531 105.476562 108.371094 104.964844 C 108.472656 104.453125 108.597656 103.949219 108.75 103.453125 C 108.902344 102.953125 109.074219 102.464844 109.273438 101.984375 C 109.472656 101.503906 109.695312 101.035156 109.941406 100.574219 C 110.1875 100.117188 110.453125 99.671875 110.742188 99.238281 C 111.03125 98.804688 111.339844 98.386719 111.671875 97.984375 C 112 97.582031 112.351562 97.199219 112.71875 96.832031 C 113.085938 96.460938 113.472656 96.113281 113.875 95.785156 C 114.277344 95.453125 114.691406 95.144531 115.125 94.855469 C 115.558594 94.566406 116.003906 94.296875 116.464844 94.054688 C 116.921875 93.808594 117.390625 93.585938 117.871094 93.386719 C 118.351562 93.1875 118.84375 93.011719 119.339844 92.863281 C 119.839844 92.710938 120.34375 92.585938 120.851562 92.484375 C 121.363281 92.382812 121.875 92.304688 122.394531 92.253906 C 122.914062 92.203125 123.429688 92.175781 123.953125 92.175781 Z M 123.953125 92.175781 " fill-opacity="1" fill-rule="nonzero"/><path fill="#1a1c3f" d="M 118.65625 139.835938 L 108.066406 139.835938 C 87.625 139.835938 70.996094 154.082031 70.996094 171.609375 L 70.996094 219.265625 C 70.996094 229.488281 80.105469 238.066406 92.179688 240.027344 L 92.179688 309.289062 C 92.179688 309.636719 92.214844 309.980469 92.28125 310.324219 C 92.347656 310.664062 92.449219 310.996094 92.582031 311.316406 C 92.714844 311.636719 92.878906 311.941406 93.070312 312.230469 C 93.265625 312.519531 93.484375 312.789062 93.730469 313.035156 C 93.976562 313.28125 94.242188 313.5 94.53125 313.691406 C 94.820312 313.886719 95.128906 314.046875 95.449219 314.183594 C 95.769531 314.316406 96.101562 314.414062 96.441406 314.484375 C 96.78125 314.550781 97.128906 314.585938 97.476562 314.585938 C 97.824219 314.585938 98.167969 314.550781 98.507812 314.484375 C 98.847656 314.414062 99.179688 314.316406 99.5 314.183594 C 99.824219 314.046875 100.128906 313.886719 100.417969 313.691406 C 100.707031 313.5 100.972656 313.28125 101.21875 313.035156 C 101.464844 312.789062 101.683594 312.519531 101.878906 312.230469 C 102.070312 311.941406 102.234375 311.636719 102.367188 311.316406 C 102.5 310.996094 102.601562 310.664062 102.667969 310.324219 C 102.734375 309.980469 102.769531 309.636719 102.769531 309.289062 L 102.769531 171.609375 C 102.769531 171.261719 102.734375 170.917969 102.667969 170.574219 C 102.601562 170.234375 102.5 169.902344 102.367188 169.582031 C 102.234375 169.261719 102.070312 168.957031 101.878906 168.667969 C 101.683594 168.378906 101.464844 168.109375 101.21875 167.863281 C 100.972656 167.617188 100.707031 167.398438 100.417969 167.207031 C 100.128906 167.011719 99.824219 166.847656 99.5 166.714844 C 99.179688 166.582031 98.847656 166.484375 98.507812 166.414062 C 98.167969 166.347656 97.824219 166.3125 97.476562 166.3125 C 97.128906 166.3125 96.78125 166.347656 96.441406 166.414062 C 96.101562 166.484375 95.769531 166.582031 95.449219 166.714844 C 95.128906 166.847656 94.820312 167.011719 94.53125 167.207031 C 94.242188 167.398438 93.976562 167.617188 93.730469 167.863281 C 93.484375 168.109375 93.265625 168.378906 93.070312 168.667969 C 92.878906 168.957031 92.714844 169.261719 92.582031 169.582031 C 92.449219 169.902344 92.347656 170.234375 92.28125 170.574219 C 92.214844 170.917969 92.179688 171.261719 92.179688 171.609375 L 92.179688 229.167969 C 86.089844 227.6875 81.589844 223.875 81.589844 219.265625 L 81.589844 171.609375 C 81.589844 159.90625 93.449219 150.425781 108.066406 150.425781 L 118.65625 150.425781 C 119.003906 150.425781 119.347656 150.394531 119.691406 150.324219 C 120.03125 150.257812 120.363281 150.15625 120.683594 150.023438 C 121.003906 149.890625 121.308594 149.726562 121.597656 149.535156 C 121.886719 149.339844 122.15625 149.121094 122.402344 148.875 C 122.648438 148.628906 122.867188 148.363281 123.058594 148.074219 C 123.253906 147.785156 123.414062 147.480469 123.546875 147.15625 C 123.683594 146.835938 123.78125 146.503906 123.851562 146.164062 C 123.917969 145.824219 123.953125 145.480469 123.953125 145.132812 C 123.953125 144.785156 123.917969 144.441406 123.851562 144.097656 C 123.78125 143.757812 123.683594 143.425781 123.546875 143.105469 C 123.414062 142.785156 123.253906 142.480469 123.058594 142.191406 C 122.867188 141.902344 122.648438 141.632812 122.402344 141.386719 C 122.15625 141.140625 121.886719 140.921875 121.597656 140.730469 C 121.308594 140.535156 121.003906 140.371094 120.683594 140.238281 C 120.363281 140.105469 120.03125 140.003906 119.691406 139.9375 C 119.347656 139.871094 119.003906 139.835938 118.65625 139.835938 Z M 118.65625 139.835938 " fill-opacity="1" fill-rule="nonzero"/><path fill="#1a1c3f" d="M 118.65625 240.449219 L 118.65625 309.289062 C 118.65625 309.636719 118.691406 309.980469 118.757812 310.324219 C 118.824219 310.664062 118.925781 310.996094 119.058594 311.316406 C 119.191406 311.636719 119.355469 311.941406 119.550781 312.230469 C 119.742188 312.519531 119.960938 312.789062 120.207031 313.035156 C 120.453125 313.28125 120.722656 313.5 121.011719 313.691406 C 121.300781 313.886719 121.605469 314.046875 121.925781 314.183594 C 122.246094 314.316406 122.578125 314.414062 122.917969 314.484375 C 123.257812 314.550781 123.605469 314.585938 123.953125 314.585938 C 124.300781 314.585938 124.644531 314.550781 124.984375 314.484375 C 125.324219 314.414062 125.65625 314.316406 125.976562 314.183594 C 126.300781 314.046875 126.605469 313.886719 126.894531 313.691406 C 127.183594 313.5 127.449219 313.28125 127.695312 313.035156 C 127.941406 312.789062 128.160156 312.519531 128.355469 312.230469 C 128.546875 311.941406 128.710938 311.636719 128.84375 311.316406 C 128.976562 310.996094 129.078125 310.664062 129.144531 310.324219 C 129.214844 309.980469 129.246094 309.636719 129.246094 309.289062 L 129.246094 240.449219 C 129.246094 240.101562 129.214844 239.757812 129.144531 239.414062 C 129.078125 239.074219 128.976562 238.742188 128.84375 238.421875 C 128.710938 238.101562 128.546875 237.796875 128.355469 237.507812 C 128.160156 237.21875 127.941406 236.949219 127.695312 236.703125 C 127.449219 236.457031 127.183594 236.238281 126.894531 236.046875 C 126.605469 235.851562 126.300781 235.691406 125.976562 235.558594 C 125.65625 235.421875 125.324219 235.324219 124.984375 235.253906 C 124.644531 235.1875 124.300781 235.152344 123.953125 235.152344 C 123.605469 235.152344 123.257812 235.1875 122.917969 235.253906 C 122.578125 235.324219 122.246094 235.421875 121.925781 235.558594 C 121.605469 235.691406 121.300781 235.851562 121.011719 236.046875 C 120.722656 236.238281 120.453125 236.457031 120.207031 236.703125 C 119.960938 236.949219 119.742188 237.21875 119.550781 237.507812 C 119.355469 237.796875 119.191406 238.101562 119.058594 238.421875 C 118.925781 238.742188 118.824219 239.074219 118.757812 239.414062 C 118.691406 239.757812 118.65625 240.101562 118.65625 240.449219 Z M 118.65625 240.449219 " fill-opacity="1" fill-rule="nonzero"/><path fill="#1a1c3f" d="M 187.496094 123.949219 C 188.539062 123.949219 189.574219 123.898438 190.609375 123.796875 C 191.648438 123.695312 192.675781 123.542969 193.695312 123.339844 C 194.714844 123.136719 195.722656 122.882812 196.71875 122.582031 C 197.714844 122.28125 198.695312 121.929688 199.65625 121.53125 C 200.617188 121.132812 201.554688 120.6875 202.472656 120.199219 C 203.390625 119.707031 204.285156 119.171875 205.148438 118.59375 C 206.015625 118.015625 206.847656 117.398438 207.652344 116.738281 C 208.457031 116.078125 209.226562 115.378906 209.964844 114.644531 C 210.699219 113.910156 211.398438 113.136719 212.058594 112.332031 C 212.71875 111.53125 213.335938 110.695312 213.914062 109.828125 C 214.492188 108.964844 215.027344 108.074219 215.515625 107.15625 C 216.007812 106.238281 216.453125 105.296875 216.851562 104.335938 C 217.25 103.375 217.597656 102.394531 217.902344 101.402344 C 218.203125 100.40625 218.457031 99.398438 218.660156 98.375 C 218.863281 97.355469 219.015625 96.328125 219.117188 95.292969 C 219.21875 94.257812 219.269531 93.21875 219.269531 92.175781 C 219.269531 91.136719 219.21875 90.097656 219.117188 89.0625 C 219.015625 88.027344 218.863281 87 218.660156 85.980469 C 218.457031 84.957031 218.203125 83.949219 217.902344 82.953125 C 217.597656 81.957031 217.25 80.980469 216.851562 80.019531 C 216.453125 79.058594 216.007812 78.117188 215.515625 77.199219 C 215.027344 76.28125 214.492188 75.390625 213.914062 74.527344 C 213.335938 73.660156 212.71875 72.824219 212.058594 72.019531 C 211.398438 71.21875 210.699219 70.445312 209.964844 69.710938 C 209.226562 68.976562 208.457031 68.277344 207.652344 67.617188 C 206.847656 66.957031 206.015625 66.335938 205.148438 65.757812 C 204.285156 65.179688 203.390625 64.648438 202.472656 64.15625 C 201.554688 63.667969 200.617188 63.222656 199.65625 62.824219 C 198.695312 62.425781 197.714844 62.074219 196.71875 61.773438 C 195.722656 61.472656 194.714844 61.21875 193.695312 61.015625 C 192.675781 60.8125 191.648438 60.660156 190.609375 60.558594 C 189.574219 60.457031 188.539062 60.40625 187.496094 60.40625 C 186.457031 60.40625 185.417969 60.457031 184.382812 60.558594 C 183.347656 60.660156 182.320312 60.8125 181.296875 61.015625 C 180.277344 61.21875 179.269531 61.472656 178.273438 61.773438 C 177.277344 62.074219 176.300781 62.425781 175.339844 62.824219 C 174.375 63.222656 173.4375 63.667969 172.519531 64.15625 C 171.601562 64.648438 170.710938 65.179688 169.84375 65.757812 C 168.980469 66.335938 168.144531 66.957031 167.339844 67.617188 C 166.535156 68.277344 165.765625 68.976562 165.03125 69.710938 C 164.292969 70.445312 163.597656 71.21875 162.9375 72.019531 C 162.277344 72.824219 161.65625 73.660156 161.078125 74.527344 C 160.5 75.390625 159.964844 76.28125 159.476562 77.199219 C 158.984375 78.117188 158.539062 79.058594 158.144531 80.019531 C 157.746094 80.980469 157.394531 81.957031 157.09375 82.953125 C 156.789062 83.949219 156.539062 84.957031 156.335938 85.980469 C 156.132812 87 155.980469 88.027344 155.878906 89.0625 C 155.773438 90.097656 155.722656 91.136719 155.722656 92.175781 C 155.722656 93.21875 155.773438 94.257812 155.878906 95.292969 C 155.980469 96.328125 156.132812 97.355469 156.335938 98.375 C 156.539062 99.398438 156.789062 100.40625 157.09375 101.402344 C 157.394531 102.394531 157.746094 103.375 158.144531 104.335938 C 158.539062 105.296875 158.984375 106.238281 159.476562 107.15625 C 159.964844 108.074219 160.5 108.964844 161.078125 109.828125 C 161.65625 110.695312 162.277344 111.53125 162.9375 112.332031 C 163.597656 113.136719 164.292969 113.910156 165.03125 114.644531 C 165.765625 115.378906 166.535156 116.078125 167.339844 116.738281 C 168.144531 117.398438 168.980469 118.015625 169.84375 118.59375 C 170.710938 119.171875 171.601562 119.707031 172.519531 120.199219 C 173.4375 120.6875 174.375 121.132812 175.339844 121.53125 C 176.300781 121.929688 177.277344 122.28125 178.273438 122.582031 C 179.269531 122.882812 180.277344 123.136719 181.296875 123.339844 C 182.320312 123.542969 183.347656 123.695312 184.382812 123.796875 C 185.417969 123.898438 186.457031 123.949219 187.496094 123.949219 Z M 187.496094 70.996094 C 188.191406 70.996094 188.882812 71.03125 189.574219 71.097656 C 190.261719 71.164062 190.949219 71.269531 191.628906 71.402344 C 192.308594 71.539062 192.980469 71.707031 193.644531 71.90625 C 194.308594 72.109375 194.960938 72.34375 195.601562 72.609375 C 196.242188 72.875 196.871094 73.171875 197.480469 73.496094 C 198.09375 73.824219 198.6875 74.179688 199.265625 74.566406 C 199.839844 74.949219 200.398438 75.363281 200.933594 75.804688 C 201.46875 76.242188 201.984375 76.710938 202.472656 77.199219 C 202.964844 77.691406 203.429688 78.203125 203.871094 78.738281 C 204.308594 79.277344 204.722656 79.832031 205.109375 80.410156 C 205.492188 80.988281 205.851562 81.582031 206.175781 82.191406 C 206.503906 82.804688 206.800781 83.429688 207.066406 84.070312 C 207.332031 84.710938 207.566406 85.363281 207.765625 86.027344 C 207.96875 86.691406 208.136719 87.363281 208.269531 88.046875 C 208.40625 88.726562 208.507812 89.410156 208.578125 90.101562 C 208.644531 90.792969 208.679688 91.484375 208.679688 92.175781 C 208.679688 92.871094 208.644531 93.5625 208.578125 94.253906 C 208.507812 94.945312 208.40625 95.628906 208.269531 96.308594 C 208.136719 96.992188 207.96875 97.664062 207.765625 98.328125 C 207.566406 98.988281 207.332031 99.640625 207.066406 100.285156 C 206.800781 100.925781 206.503906 101.550781 206.175781 102.164062 C 205.851562 102.773438 205.492188 103.367188 205.109375 103.945312 C 204.722656 104.523438 204.308594 105.078125 203.871094 105.613281 C 203.429688 106.152344 202.964844 106.664062 202.472656 107.15625 C 201.984375 107.644531 201.46875 108.109375 200.933594 108.550781 C 200.398438 108.992188 199.839844 109.402344 199.265625 109.789062 C 198.6875 110.175781 198.09375 110.53125 197.480469 110.859375 C 196.871094 111.183594 196.242188 111.480469 195.601562 111.746094 C 194.960938 112.011719 194.308594 112.246094 193.644531 112.445312 C 192.980469 112.648438 192.308594 112.816406 191.628906 112.953125 C 190.949219 113.085938 190.261719 113.1875 189.574219 113.257812 C 188.882812 113.324219 188.191406 113.359375 187.496094 113.359375 C 186.804688 113.359375 186.109375 113.324219 185.421875 113.257812 C 184.730469 113.1875 184.042969 113.085938 183.363281 112.953125 C 182.683594 112.816406 182.011719 112.648438 181.347656 112.445312 C 180.683594 112.246094 180.03125 112.011719 179.390625 111.746094 C 178.75 111.480469 178.125 111.183594 177.511719 110.859375 C 176.898438 110.53125 176.304688 110.175781 175.730469 109.789062 C 175.152344 109.402344 174.59375 108.992188 174.058594 108.550781 C 173.523438 108.109375 173.007812 107.644531 172.519531 107.15625 C 172.027344 106.664062 171.5625 106.152344 171.125 105.613281 C 170.683594 105.078125 170.269531 104.523438 169.886719 103.945312 C 169.5 103.367188 169.144531 102.773438 168.816406 102.164062 C 168.488281 101.550781 168.191406 100.925781 167.925781 100.285156 C 167.660156 99.640625 167.429688 98.988281 167.226562 98.328125 C 167.027344 97.664062 166.859375 96.992188 166.722656 96.308594 C 166.585938 95.628906 166.484375 94.945312 166.417969 94.253906 C 166.347656 93.5625 166.316406 92.871094 166.316406 92.175781 C 166.316406 91.484375 166.347656 90.792969 166.417969 90.101562 C 166.484375 89.410156 166.585938 88.726562 166.722656 88.046875 C 166.859375 87.363281 167.027344 86.691406 167.226562 86.027344 C 167.429688 85.363281 167.660156 84.710938 167.925781 84.070312 C 168.191406 83.429688 168.488281 82.804688 168.816406 82.191406 C 169.144531 81.582031 169.5 80.988281 169.886719 80.410156 C 170.269531 79.832031 170.683594 79.277344 171.125 78.738281 C 171.5625 78.203125 172.027344 77.691406 172.519531 77.199219 C 173.007812 76.710938 173.523438 76.242188 174.058594 75.804688 C 174.59375 75.363281 175.152344 74.949219 175.730469 74.566406 C 176.304688 74.179688 176.898438 73.824219 177.511719 73.496094 C 178.125 73.171875 178.75 72.875 179.390625 72.609375 C 180.03125 72.34375 180.683594 72.109375 181.347656 71.90625 C 182.011719 71.707031 182.683594 71.539062 183.363281 71.402344 C 184.042969 71.269531 184.730469 71.164062 185.421875 71.097656 C 186.109375 71.03125 186.804688 70.996094 187.496094 70.996094 Z M 187.496094 70.996094 " fill-opacity="1" fill-rule="nonzero"/><path fill="#1a1c3f" d="M 208.679688 129.246094 L 166.316406 129.246094 C 145.875 129.246094 129.246094 143.488281 129.246094 161.019531 L 129.246094 192.789062 C 129.246094 193.3125 129.273438 193.828125 129.324219 194.347656 C 129.375 194.867188 129.449219 195.378906 129.550781 195.890625 C 129.652344 196.398438 129.78125 196.902344 129.929688 197.402344 C 130.082031 197.898438 130.257812 198.390625 130.457031 198.871094 C 130.65625 199.351562 130.878906 199.820312 131.125 200.277344 C 131.367188 200.738281 131.636719 201.183594 131.925781 201.617188 C 132.214844 202.050781 132.523438 202.464844 132.851562 202.867188 C 133.183594 203.269531 133.53125 203.65625 133.898438 204.023438 C 134.269531 204.390625 134.652344 204.742188 135.054688 205.070312 C 135.457031 205.402344 135.875 205.710938 136.308594 206 C 136.738281 206.289062 137.1875 206.554688 137.644531 206.800781 C 138.105469 207.046875 138.574219 207.269531 139.054688 207.46875 C 139.535156 207.667969 140.023438 207.839844 140.523438 207.992188 C 141.019531 208.144531 141.523438 208.269531 142.035156 208.371094 C 142.542969 208.472656 143.058594 208.550781 143.578125 208.601562 C 144.09375 208.652344 144.613281 208.675781 145.132812 208.675781 L 150.429688 208.675781 L 150.429688 309.289062 C 150.429688 309.636719 150.460938 309.980469 150.53125 310.324219 C 150.597656 310.664062 150.699219 310.996094 150.832031 311.316406 C 150.964844 311.636719 151.128906 311.941406 151.320312 312.230469 C 151.515625 312.519531 151.734375 312.789062 151.980469 313.035156 C 152.226562 313.28125 152.492188 313.5 152.78125 313.691406 C 153.070312 313.886719 153.375 314.046875 153.699219 314.183594 C 154.019531 314.316406 154.351562 314.414062 154.691406 314.484375 C 155.03125 314.550781 155.375 314.585938 155.722656 314.585938 C 156.070312 314.585938 156.417969 314.550781 156.757812 314.484375 C 157.097656 314.414062 157.429688 314.316406 157.75 314.183594 C 158.070312 314.046875 158.378906 313.886719 158.667969 313.691406 C 158.957031 313.5 159.222656 313.28125 159.46875 313.035156 C 159.714844 312.789062 159.933594 312.519531 160.128906 312.230469 C 160.320312 311.941406 160.484375 311.636719 160.617188 311.316406 C 160.75 310.996094 160.851562 310.664062 160.917969 310.324219 C 160.984375 309.980469 161.019531 309.636719 161.019531 309.289062 L 161.019531 208.675781 L 213.972656 208.675781 L 213.972656 309.289062 C 213.972656 309.636719 214.007812 309.980469 214.074219 310.324219 C 214.144531 310.664062 214.242188 310.996094 214.375 311.316406 C 214.511719 311.636719 214.671875 311.941406 214.867188 312.230469 C 215.058594 312.519531 215.277344 312.789062 215.523438 313.035156 C 215.769531 313.28125 216.039062 313.5 216.328125 313.691406 C 216.617188 313.886719 216.921875 314.046875 217.242188 314.183594 C 217.5625 314.316406 217.894531 314.414062 218.234375 314.484375 C 218.578125 314.550781 218.921875 314.585938 219.269531 314.585938 C 219.617188 314.585938 219.960938 314.550781 220.300781 314.484375 C 220.644531 314.414062 220.972656 314.316406 221.296875 314.183594 C 221.617188 314.046875 221.921875 313.886719 222.210938 313.691406 C 222.5 313.5 222.769531 313.28125 223.011719 313.035156 C 223.257812 312.789062 223.480469 312.519531 223.671875 312.230469 C 223.867188 311.941406 224.027344 311.636719 224.160156 311.316406 C 224.292969 310.996094 224.394531 310.664062 224.460938 310.324219 C 224.53125 309.980469 224.566406 309.636719 224.566406 309.289062 L 224.566406 208.675781 L 229.859375 208.675781 C 230.378906 208.675781 230.898438 208.652344 231.417969 208.601562 C 231.933594 208.550781 232.449219 208.472656 232.960938 208.371094 C 233.46875 208.269531 233.972656 208.144531 234.472656 207.992188 C 234.96875 207.839844 235.457031 207.667969 235.9375 207.46875 C 236.421875 207.269531 236.890625 207.046875 237.347656 206.800781 C 237.808594 206.554688 238.253906 206.289062 238.6875 206 C 239.117188 205.710938 239.535156 205.402344 239.9375 205.070312 C 240.339844 204.742188 240.726562 204.390625 241.09375 204.023438 C 241.460938 203.65625 241.808594 203.269531 242.140625 202.867188 C 242.46875 202.464844 242.78125 202.050781 243.070312 201.617188 C 243.359375 201.183594 243.625 200.738281 243.871094 200.277344 C 244.117188 199.820312 244.335938 199.351562 244.535156 198.871094 C 244.734375 198.390625 244.910156 197.898438 245.0625 197.402344 C 245.214844 196.902344 245.339844 196.398438 245.441406 195.890625 C 245.542969 195.378906 245.617188 194.867188 245.667969 194.347656 C 245.722656 193.828125 245.746094 193.3125 245.746094 192.789062 L 245.746094 161.019531 C 245.746094 143.488281 229.117188 129.246094 208.679688 129.246094 Z M 229.859375 198.085938 L 204.496094 198.085938 L 161.019531 178.757812 L 161.019531 177.539062 L 202.800781 182.148438 L 219.269531 182.148438 C 219.617188 182.148438 219.960938 182.113281 220.300781 182.042969 C 220.644531 181.976562 220.972656 181.875 221.296875 181.742188 C 221.617188 181.609375 221.921875 181.449219 222.210938 181.253906 C 222.5 181.0625 222.769531 180.839844 223.011719 180.59375 C 223.257812 180.351562 223.480469 180.082031 223.671875 179.792969 C 223.867188 179.503906 224.027344 179.199219 224.160156 178.878906 C 224.292969 178.554688 224.394531 178.226562 224.460938 177.882812 C 224.53125 177.542969 224.566406 177.199219 224.566406 176.851562 L 224.566406 166.3125 C 224.566406 165.964844 224.53125 165.621094 224.460938 165.28125 C 224.394531 164.9375 224.292969 164.609375 224.160156 164.285156 C 224.027344 163.964844 223.867188 163.660156 223.671875 163.371094 C 223.480469 163.082031 223.257812 162.816406 223.011719 162.570312 C 222.769531 162.324219 222.5 162.101562 222.210938 161.910156 C 221.921875 161.71875 221.617188 161.554688 221.296875 161.421875 C 220.972656 161.289062 220.644531 161.1875 220.300781 161.121094 C 219.960938 161.050781 219.617188 161.019531 219.269531 161.019531 C 218.921875 161.019531 218.578125 161.050781 218.234375 161.121094 C 217.894531 161.1875 217.5625 161.289062 217.242188 161.421875 C 216.921875 161.554688 216.617188 161.71875 216.328125 161.910156 C 216.039062 162.101562 215.769531 162.324219 215.523438 162.570312 C 215.277344 162.816406 215.058594 163.082031 214.867188 163.371094 C 214.671875 163.660156 214.511719 163.964844 214.375 164.285156 C 214.242188 164.609375 214.144531 164.9375 214.074219 165.28125 C 214.007812 165.621094 213.972656 165.964844 213.972656 166.3125 L 213.972656 171.609375 L 203.699219 171.609375 L 161.019531 166.894531 L 161.019531 166.3125 C 161.019531 165.964844 160.984375 165.621094 160.917969 165.28125 C 160.851562 164.9375 160.75 164.609375 160.617188 164.285156 C 160.484375 163.964844 160.320312 163.660156 160.128906 163.371094 C 159.933594 163.082031 159.714844 162.816406 159.46875 162.570312 C 159.222656 162.324219 158.957031 162.101562 158.667969 161.910156 C 158.378906 161.71875 158.070312 161.554688 157.75 161.421875 C 157.429688 161.289062 157.097656 161.1875 156.757812 161.121094 C 156.417969 161.050781 156.070312 161.019531 155.722656 161.019531 C 155.375 161.019531 155.03125 161.050781 154.691406 161.121094 C 154.351562 161.1875 154.019531 161.289062 153.699219 161.421875 C 153.375 161.554688 153.070312 161.71875 152.78125 161.910156 C 152.492188 162.101562 152.226562 162.324219 151.980469 162.570312 C 151.734375 162.816406 151.515625 163.082031 151.320312 163.371094 C 151.128906 163.660156 150.964844 163.964844 150.832031 164.285156 C 150.699219 164.609375 150.597656 164.9375 150.53125 165.28125 C 150.460938 165.621094 150.429688 165.964844 150.429688 166.3125 L 150.429688 182.199219 C 150.402344 182.429688 150.402344 182.660156 150.429688 182.886719 C 150.347656 183.3125 150.347656 183.734375 150.429688 184.160156 C 150.566406 184.480469 150.742188 184.78125 150.957031 185.058594 C 151.105469 185.34375 151.28125 185.609375 151.488281 185.851562 C 151.8125 186.183594 152.183594 186.449219 152.601562 186.648438 C 152.601562 186.648438 152.917969 186.964844 153.128906 187.019531 L 178.441406 198.085938 L 145.132812 198.085938 C 144.785156 198.085938 144.441406 198.050781 144.101562 197.984375 C 143.757812 197.917969 143.429688 197.816406 143.105469 197.683594 C 142.785156 197.550781 142.480469 197.386719 142.191406 197.191406 C 141.902344 197 141.636719 196.78125 141.390625 196.535156 C 141.144531 196.289062 140.921875 196.019531 140.730469 195.730469 C 140.539062 195.441406 140.375 195.136719 140.242188 194.816406 C 140.109375 194.496094 140.007812 194.164062 139.941406 193.824219 C 139.871094 193.484375 139.839844 193.136719 139.839844 192.789062 L 139.839844 161.019531 C 139.839844 149.316406 151.699219 139.835938 166.316406 139.835938 L 208.679688 139.835938 C 223.292969 139.835938 235.15625 149.316406 235.15625 161.019531 L 235.15625 192.789062 C 235.15625 193.136719 235.121094 193.484375 235.054688 193.824219 C 234.984375 194.164062 234.886719 194.496094 234.753906 194.816406 C 234.621094 195.136719 234.457031 195.441406 234.261719 195.730469 C 234.070312 196.019531 233.851562 196.289062 233.605469 196.535156 C 233.359375 196.78125 233.089844 197 232.800781 197.191406 C 232.511719 197.386719 232.207031 197.550781 231.886719 197.683594 C 231.566406 197.816406 231.234375 197.917969 230.894531 197.984375 C 230.550781 198.050781 230.207031 198.085938 229.859375 198.085938 Z M 229.859375 198.085938 " fill-opacity="1" fill-rule="nonzero"/><path fill="#1a1c3f" d="M 182.203125 240.449219 L 182.203125 309.289062 C 182.203125 309.636719 182.234375 309.980469 182.304688 310.324219 C 182.371094 310.664062 182.472656 310.996094 182.605469 311.316406 C 182.738281 311.636719 182.902344 311.941406 183.09375 312.230469 C 183.285156 312.519531 183.507812 312.789062 183.753906 313.035156 C 184 313.28125 184.265625 313.5 184.554688 313.691406 C 184.84375 313.886719 185.148438 314.046875 185.46875 314.183594 C 185.792969 314.316406 186.121094 314.414062 186.464844 314.484375 C 186.804688 314.550781 187.148438 314.585938 187.496094 314.585938 C 187.84375 314.585938 188.1875 314.550781 188.53125 314.484375 C 188.871094 314.414062 189.203125 314.316406 189.523438 314.183594 C 189.84375 314.046875 190.148438 313.886719 190.4375 313.691406 C 190.726562 313.5 190.996094 313.28125 191.242188 313.035156 C 191.488281 312.789062 191.707031 312.519531 191.898438 312.230469 C 192.09375 311.941406 192.257812 311.636719 192.390625 311.316406 C 192.523438 310.996094 192.621094 310.664062 192.691406 310.324219 C 192.757812 309.980469 192.792969 309.636719 192.792969 309.289062 L 192.792969 240.449219 C 192.792969 240.101562 192.757812 239.757812 192.691406 239.414062 C 192.621094 239.074219 192.523438 238.742188 192.390625 238.421875 C 192.257812 238.101562 192.09375 237.796875 191.898438 237.507812 C 191.707031 237.21875 191.488281 236.949219 191.242188 236.703125 C 190.996094 236.457031 190.726562 236.238281 190.4375 236.046875 C 190.148438 235.851562 189.84375 235.691406 189.523438 235.558594 C 189.203125 235.421875 188.871094 235.324219 188.53125 235.253906 C 188.1875 235.1875 187.84375 235.152344 187.496094 235.152344 C 187.148438 235.152344 186.804688 235.1875 186.464844 235.253906 C 186.121094 235.324219 185.792969 235.421875 185.46875 235.558594 C 185.148438 235.691406 184.84375 235.851562 184.554688 236.046875 C 184.265625 236.238281 184 236.457031 183.753906 236.703125 C 183.507812 236.949219 183.285156 237.21875 183.09375 237.507812 C 182.902344 237.796875 182.738281 238.101562 182.605469 238.421875 C 182.472656 238.742188 182.371094 239.074219 182.304688 239.414062 C 182.234375 239.757812 182.203125 240.101562 182.203125 240.449219 Z M 182.203125 240.449219 " fill-opacity="1" fill-rule="nonzero"/><path fill="#1a1c3f" d="M 65.703125 145.132812 C 66.484375 145.132812 67.261719 145.09375 68.039062 145.015625 C 68.816406 144.941406 69.585938 144.824219 70.351562 144.671875 C 71.117188 144.523438 71.871094 144.332031 72.621094 144.105469 C 73.367188 143.878906 74.101562 143.617188 74.820312 143.316406 C 75.542969 143.019531 76.246094 142.6875 76.933594 142.316406 C 77.625 141.949219 78.292969 141.550781 78.941406 141.117188 C 79.589844 140.683594 80.214844 140.21875 80.820312 139.722656 C 81.421875 139.226562 82 138.703125 82.550781 138.152344 C 83.105469 137.601562 83.628906 137.023438 84.121094 136.417969 C 84.617188 135.816406 85.082031 135.191406 85.515625 134.542969 C 85.949219 133.890625 86.351562 133.222656 86.71875 132.535156 C 87.085938 131.847656 87.417969 131.140625 87.71875 130.421875 C 88.015625 129.699219 88.277344 128.964844 88.503906 128.21875 C 88.730469 127.472656 88.921875 126.714844 89.074219 125.953125 C 89.226562 125.1875 89.339844 124.414062 89.417969 123.636719 C 89.492188 122.859375 89.53125 122.082031 89.53125 121.300781 C 89.53125 120.523438 89.492188 119.742188 89.417969 118.964844 C 89.339844 118.191406 89.226562 117.417969 89.074219 116.652344 C 88.921875 115.886719 88.730469 115.132812 88.503906 114.386719 C 88.277344 113.636719 88.015625 112.902344 87.71875 112.183594 C 87.417969 111.460938 87.085938 110.757812 86.71875 110.070312 C 86.351562 109.382812 85.949219 108.710938 85.515625 108.0625 C 85.082031 107.414062 84.617188 106.789062 84.121094 106.183594 C 83.628906 105.582031 83.105469 105.003906 82.550781 104.453125 C 82 103.902344 81.421875 103.378906 80.820312 102.882812 C 80.214844 102.386719 79.589844 101.921875 78.941406 101.488281 C 78.292969 101.054688 77.625 100.65625 76.933594 100.285156 C 76.246094 99.917969 75.542969 99.585938 74.820312 99.285156 C 74.101562 98.988281 73.367188 98.726562 72.621094 98.5 C 71.871094 98.273438 71.117188 98.082031 70.351562 97.929688 C 69.585938 97.777344 68.816406 97.664062 68.039062 97.585938 C 67.261719 97.511719 66.484375 97.472656 65.703125 97.472656 C 64.921875 97.472656 64.144531 97.511719 63.367188 97.585938 C 62.589844 97.664062 61.820312 97.777344 61.054688 97.929688 C 60.289062 98.082031 59.53125 98.273438 58.785156 98.5 C 58.039062 98.726562 57.304688 98.988281 56.582031 99.285156 C 55.863281 99.585938 55.15625 99.917969 54.46875 100.285156 C 53.78125 100.65625 53.113281 101.054688 52.464844 101.488281 C 51.816406 101.921875 51.1875 102.386719 50.585938 102.882812 C 49.980469 103.378906 49.402344 103.902344 48.851562 104.453125 C 48.300781 105.003906 47.777344 105.582031 47.28125 106.183594 C 46.785156 106.789062 46.324219 107.414062 45.890625 108.0625 C 45.457031 108.710938 45.054688 109.382812 44.6875 110.070312 C 44.320312 110.757812 43.984375 111.460938 43.6875 112.183594 C 43.386719 112.902344 43.125 113.636719 42.898438 114.386719 C 42.671875 115.132812 42.484375 115.886719 42.332031 116.652344 C 42.179688 117.417969 42.0625 118.191406 41.988281 118.964844 C 41.910156 119.742188 41.871094 120.523438 41.871094 121.300781 C 41.875 122.082031 41.914062 122.859375 41.992188 123.636719 C 42.070312 124.414062 42.1875 125.183594 42.339844 125.949219 C 42.492188 126.710938 42.683594 127.46875 42.910156 128.214844 C 43.136719 128.960938 43.402344 129.691406 43.699219 130.414062 C 44 131.132812 44.335938 131.835938 44.703125 132.523438 C 45.070312 133.210938 45.472656 133.878906 45.90625 134.527344 C 46.339844 135.175781 46.804688 135.800781 47.296875 136.40625 C 47.792969 137.007812 48.316406 137.585938 48.867188 138.136719 C 49.417969 138.6875 49.996094 139.210938 50.597656 139.707031 C 51.203125 140.203125 51.828125 140.664062 52.476562 141.097656 C 53.125 141.53125 53.792969 141.933594 54.480469 142.300781 C 55.167969 142.671875 55.871094 143.003906 56.589844 143.304688 C 57.3125 143.601562 58.042969 143.867188 58.789062 144.09375 C 59.535156 144.320312 60.292969 144.511719 61.058594 144.664062 C 61.820312 144.820312 62.59375 144.933594 63.367188 145.011719 C 64.144531 145.089844 64.921875 145.128906 65.703125 145.132812 Z M 65.703125 108.0625 C 66.570312 108.0625 67.433594 108.148438 68.285156 108.316406 C 69.136719 108.488281 69.964844 108.738281 70.769531 109.070312 C 71.570312 109.402344 72.335938 109.8125 73.058594 110.292969 C 73.78125 110.777344 74.449219 111.328125 75.0625 111.941406 C 75.679688 112.554688 76.226562 113.226562 76.710938 113.949219 C 77.191406 114.671875 77.601562 115.433594 77.933594 116.234375 C 78.265625 117.039062 78.515625 117.867188 78.6875 118.71875 C 78.855469 119.570312 78.941406 120.433594 78.941406 121.300781 C 78.941406 122.171875 78.855469 123.03125 78.6875 123.886719 C 78.515625 124.738281 78.265625 125.566406 77.933594 126.367188 C 77.601562 127.171875 77.191406 127.933594 76.710938 128.65625 C 76.226562 129.378906 75.679688 130.046875 75.0625 130.664062 C 74.449219 131.277344 73.78125 131.828125 73.058594 132.308594 C 72.335938 132.792969 71.570312 133.199219 70.769531 133.53125 C 69.964844 133.867188 69.136719 134.117188 68.285156 134.285156 C 67.433594 134.457031 66.570312 134.539062 65.703125 134.539062 C 64.832031 134.539062 63.972656 134.457031 63.121094 134.285156 C 62.265625 134.117188 61.4375 133.867188 60.636719 133.53125 C 59.832031 133.199219 59.070312 132.792969 58.347656 132.308594 C 57.625 131.828125 56.957031 131.277344 56.339844 130.664062 C 55.726562 130.046875 55.179688 129.378906 54.695312 128.65625 C 54.210938 127.933594 53.804688 127.171875 53.472656 126.367188 C 53.140625 125.566406 52.886719 124.738281 52.71875 123.886719 C 52.546875 123.03125 52.464844 122.171875 52.464844 121.300781 C 52.464844 120.433594 52.546875 119.570312 52.71875 118.71875 C 52.886719 117.867188 53.140625 117.039062 53.472656 116.234375 C 53.804688 115.433594 54.210938 114.671875 54.695312 113.949219 C 55.179688 113.226562 55.726562 112.554688 56.339844 111.941406 C 56.957031 111.328125 57.625 110.777344 58.347656 110.292969 C 59.070312 109.8125 59.832031 109.402344 60.636719 109.070312 C 61.4375 108.738281 62.265625 108.488281 63.121094 108.316406 C 63.972656 108.148438 64.832031 108.0625 65.703125 108.0625 Z M 65.703125 108.0625 " fill-opacity="1" fill-rule="nonzero"/><path fill="#1a1c3f" d="M 39.226562 234.625 L 39.226562 309.289062 C 39.226562 309.636719 39.257812 309.980469 39.328125 310.324219 C 39.394531 310.664062 39.496094 310.996094 39.628906 311.316406 C 39.761719 311.636719 39.925781 311.941406 40.117188 312.230469 C 40.3125 312.519531 40.53125 312.789062 40.777344 313.035156 C 41.023438 313.28125 41.289062 313.5 41.578125 313.691406 C 41.867188 313.886719 42.171875 314.046875 42.496094 314.183594 C 42.816406 314.316406 43.148438 314.414062 43.488281 314.484375 C 43.828125 314.550781 44.171875 314.585938 44.519531 314.585938 C 44.867188 314.585938 45.210938 314.550781 45.554688 314.484375 C 45.894531 314.414062 46.226562 314.316406 46.546875 314.183594 C 46.867188 314.046875 47.171875 313.886719 47.460938 313.691406 C 47.75 313.5 48.019531 313.28125 48.265625 313.035156 C 48.511719 312.789062 48.730469 312.519531 48.921875 312.230469 C 49.117188 311.941406 49.28125 311.636719 49.414062 311.316406 C 49.546875 310.996094 49.648438 310.664062 49.714844 310.324219 C 49.78125 309.980469 49.816406 309.636719 49.816406 309.289062 L 49.816406 182.199219 C 49.816406 181.851562 49.78125 181.507812 49.714844 181.167969 C 49.648438 180.824219 49.546875 180.496094 49.414062 180.171875 C 49.28125 179.851562 49.117188 179.546875 48.921875 179.257812 C 48.730469 178.96875 48.511719 178.699219 48.265625 178.457031 C 48.019531 178.210938 47.75 177.988281 47.460938 177.796875 C 47.171875 177.601562 46.867188 177.441406 46.546875 177.308594 C 46.226562 177.175781 45.894531 177.074219 45.554688 177.007812 C 45.210938 176.9375 44.867188 176.902344 44.519531 176.902344 C 44.171875 176.902344 43.828125 176.9375 43.488281 177.007812 C 43.148438 177.074219 42.816406 177.175781 42.496094 177.308594 C 42.171875 177.441406 41.867188 177.601562 41.578125 177.796875 C 41.289062 177.988281 41.023438 178.210938 40.777344 178.457031 C 40.53125 178.699219 40.3125 178.96875 40.117188 179.257812 C 39.925781 179.546875 39.761719 179.851562 39.628906 180.171875 C 39.496094 180.496094 39.394531 180.824219 39.328125 181.167969 C 39.257812 181.507812 39.226562 181.851562 39.226562 182.199219 L 39.226562 223.714844 C 35.625 222.339844 33.929688 219.265625 33.929688 213.972656 L 33.929688 176.902344 C 33.929688 176.382812 33.957031 175.863281 34.007812 175.347656 C 34.058594 174.828125 34.132812 174.316406 34.234375 173.804688 C 34.335938 173.292969 34.460938 172.789062 34.613281 172.292969 C 34.765625 171.792969 34.941406 171.304688 35.140625 170.824219 C 35.339844 170.34375 35.558594 169.875 35.804688 169.414062 C 36.050781 168.957031 36.316406 168.511719 36.605469 168.078125 C 36.894531 167.644531 37.207031 167.226562 37.535156 166.824219 C 37.867188 166.425781 38.214844 166.039062 38.582031 165.671875 C 38.949219 165.304688 39.335938 164.953125 39.738281 164.625 C 40.140625 164.292969 40.558594 163.984375 40.988281 163.695312 C 41.421875 163.40625 41.867188 163.140625 42.328125 162.894531 C 42.785156 162.648438 43.257812 162.425781 43.738281 162.226562 C 44.21875 162.027344 44.707031 161.851562 45.203125 161.703125 C 45.703125 161.550781 46.207031 161.425781 46.71875 161.324219 C 47.226562 161.222656 47.742188 161.144531 48.257812 161.09375 C 48.777344 161.042969 49.296875 161.019531 49.816406 161.019531 L 60.40625 161.019531 C 60.753906 161.019531 61.097656 160.984375 61.441406 160.917969 C 61.78125 160.847656 62.113281 160.746094 62.433594 160.613281 C 62.753906 160.480469 63.058594 160.320312 63.347656 160.125 C 63.636719 159.933594 63.90625 159.710938 64.152344 159.46875 C 64.398438 159.222656 64.617188 158.953125 64.808594 158.664062 C 65.003906 158.375 65.167969 158.070312 65.300781 157.75 C 65.433594 157.425781 65.53125 157.097656 65.601562 156.753906 C 65.667969 156.414062 65.703125 156.070312 65.703125 155.722656 C 65.703125 155.375 65.667969 155.03125 65.601562 154.6875 C 65.53125 154.347656 65.433594 154.015625 65.300781 153.695312 C 65.167969 153.375 65.003906 153.070312 64.808594 152.78125 C 64.617188 152.492188 64.398438 152.222656 64.152344 151.976562 C 63.90625 151.730469 63.636719 151.511719 63.347656 151.320312 C 63.058594 151.125 62.753906 150.964844 62.433594 150.832031 C 62.113281 150.695312 61.78125 150.597656 61.441406 150.527344 C 61.097656 150.460938 60.753906 150.425781 60.40625 150.425781 L 49.816406 150.425781 C 48.949219 150.425781 48.082031 150.46875 47.222656 150.554688 C 46.359375 150.640625 45.5 150.765625 44.652344 150.9375 C 43.800781 151.105469 42.960938 151.316406 42.128906 151.566406 C 41.300781 151.820312 40.484375 152.109375 39.683594 152.441406 C 38.882812 152.773438 38.101562 153.144531 37.335938 153.554688 C 36.570312 153.960938 35.828125 154.40625 35.105469 154.890625 C 34.386719 155.371094 33.691406 155.886719 33.019531 156.4375 C 32.347656 156.988281 31.707031 157.570312 31.09375 158.183594 C 30.480469 158.796875 29.898438 159.4375 29.347656 160.105469 C 28.800781 160.777344 28.28125 161.472656 27.800781 162.195312 C 27.320312 162.914062 26.875 163.65625 26.464844 164.421875 C 26.054688 165.1875 25.6875 165.96875 25.355469 166.773438 C 25.023438 167.574219 24.730469 168.386719 24.480469 169.21875 C 24.226562 170.046875 24.015625 170.886719 23.847656 171.738281 C 23.679688 172.589844 23.550781 173.445312 23.464844 174.308594 C 23.382812 175.171875 23.339844 176.035156 23.339844 176.902344 L 23.339844 213.972656 C 23.28125 214.566406 23.25 215.164062 23.246094 215.761719 C 23.242188 216.363281 23.269531 216.957031 23.320312 217.554688 C 23.375 218.152344 23.457031 218.742188 23.566406 219.332031 C 23.675781 219.921875 23.8125 220.5 23.976562 221.078125 C 24.140625 221.652344 24.332031 222.21875 24.550781 222.777344 C 24.765625 223.335938 25.011719 223.878906 25.28125 224.414062 C 25.550781 224.949219 25.84375 225.46875 26.164062 225.976562 C 26.480469 226.484375 26.824219 226.972656 27.1875 227.449219 C 27.550781 227.921875 27.9375 228.378906 28.347656 228.816406 C 28.753906 229.253906 29.183594 229.671875 29.628906 230.070312 C 30.078125 230.464844 30.542969 230.84375 31.027344 231.195312 C 31.507812 231.550781 32.007812 231.878906 32.519531 232.1875 C 33.035156 232.492188 33.5625 232.773438 34.101562 233.03125 C 34.644531 233.285156 35.195312 233.519531 35.757812 233.722656 C 36.320312 233.925781 36.890625 234.105469 37.46875 234.253906 C 38.050781 234.40625 38.632812 234.527344 39.226562 234.625 Z M 39.226562 234.625 " fill-opacity="1" fill-rule="nonzero"/><path fill="#1a1c3f" d="M 70.996094 309.289062 L 70.996094 240.449219 C 70.996094 240.101562 70.964844 239.757812 70.894531 239.414062 C 70.828125 239.074219 70.726562 238.742188 70.59375 238.421875 C 70.460938 238.101562 70.296875 237.796875 70.105469 237.507812 C 69.910156 237.21875 69.691406 236.949219 69.445312 236.703125 C 69.199219 236.457031 68.933594 236.238281 68.644531 236.046875 C 68.355469 235.851562 68.050781 235.691406 67.730469 235.558594 C 67.40625 235.421875 67.078125 235.324219 66.734375 235.253906 C 66.394531 235.1875 66.050781 235.152344 65.703125 235.152344 C 65.355469 235.152344 65.011719 235.1875 64.667969 235.253906 C 64.328125 235.324219 63.996094 235.421875 63.675781 235.558594 C 63.355469 235.691406 63.050781 235.851562 62.761719 236.046875 C 62.472656 236.238281 62.203125 236.457031 61.957031 236.703125 C 61.710938 236.949219 61.492188 237.21875 61.300781 237.507812 C 61.105469 237.796875 60.941406 238.101562 60.808594 238.421875 C 60.675781 238.742188 60.578125 239.074219 60.507812 239.414062 C 60.441406 239.757812 60.40625 240.101562 60.40625 240.449219 L 60.40625 309.289062 C 60.40625 309.636719 60.441406 309.980469 60.507812 310.324219 C 60.578125 310.664062 60.675781 310.996094 60.808594 311.316406 C 60.941406 311.636719 61.105469 311.941406 61.300781 312.230469 C 61.492188 312.519531 61.710938 312.789062 61.957031 313.035156 C 62.203125 313.28125 62.472656 313.5 62.761719 313.691406 C 63.050781 313.886719 63.355469 314.046875 63.675781 314.183594 C 63.996094 314.316406 64.328125 314.414062 64.667969 314.484375 C 65.011719 314.550781 65.355469 314.585938 65.703125 314.585938 C 66.050781 314.585938 66.394531 314.550781 66.734375 314.484375 C 67.078125 314.414062 67.40625 314.316406 67.730469 314.183594 C 68.050781 314.046875 68.355469 313.886719 68.644531 313.691406 C 68.933594 313.5 69.199219 313.28125 69.445312 313.035156 C 69.691406 312.789062 69.910156 312.519531 70.105469 312.230469 C 70.296875 311.941406 70.460938 311.636719 70.59375 311.316406 C 70.726562 310.996094 70.828125 310.664062 70.894531 310.324219 C 70.964844 309.980469 70.996094 309.636719 70.996094 309.289062 Z M 70.996094 309.289062 " fill-opacity="1" fill-rule="nonzero"/><path fill="#1a1c3f" d="M 251.042969 134.539062 C 251.910156 134.539062 252.773438 134.5 253.636719 134.414062 C 254.5 134.328125 255.355469 134.203125 256.207031 134.03125 C 257.058594 133.863281 257.898438 133.652344 258.726562 133.402344 C 259.558594 133.148438 260.371094 132.855469 261.175781 132.527344 C 261.976562 132.195312 262.757812 131.824219 263.523438 131.414062 C 264.289062 131.003906 265.03125 130.558594 265.75 130.078125 C 266.472656 129.597656 267.167969 129.082031 267.839844 128.53125 C 268.507812 127.980469 269.152344 127.398438 269.765625 126.785156 C 270.375 126.171875 270.957031 125.53125 271.507812 124.859375 C 272.058594 124.191406 272.574219 123.496094 273.054688 122.773438 C 273.539062 122.050781 273.984375 121.308594 274.390625 120.546875 C 274.800781 119.78125 275.171875 118.996094 275.503906 118.195312 C 275.835938 117.394531 276.125 116.578125 276.378906 115.75 C 276.628906 114.917969 276.839844 114.078125 277.011719 113.230469 C 277.179688 112.378906 277.304688 111.523438 277.390625 110.660156 C 277.476562 109.796875 277.519531 108.929688 277.519531 108.0625 C 277.519531 107.195312 277.476562 106.332031 277.390625 105.46875 C 277.304688 104.605469 277.179688 103.75 277.011719 102.898438 C 276.839844 102.046875 276.628906 101.207031 276.378906 100.378906 C 276.125 99.546875 275.835938 98.734375 275.503906 97.929688 C 275.171875 97.128906 274.800781 96.347656 274.390625 95.582031 C 273.984375 94.816406 273.539062 94.074219 273.054688 93.355469 C 272.574219 92.632812 272.058594 91.9375 271.507812 91.265625 C 270.957031 90.597656 270.375 89.953125 269.765625 89.339844 C 269.152344 88.730469 268.507812 88.148438 267.839844 87.597656 C 267.167969 87.046875 266.472656 86.53125 265.75 86.050781 C 265.03125 85.566406 264.289062 85.121094 263.523438 84.714844 C 262.757812 84.304688 261.976562 83.933594 261.175781 83.601562 C 260.371094 83.269531 259.558594 82.980469 258.726562 82.726562 C 257.898438 82.476562 257.058594 82.265625 256.207031 82.09375 C 255.355469 81.925781 254.5 81.800781 253.636719 81.714844 C 252.773438 81.628906 251.910156 81.585938 251.042969 81.585938 C 250.175781 81.585938 249.308594 81.628906 248.445312 81.714844 C 247.582031 81.800781 246.726562 81.925781 245.875 82.09375 C 245.027344 82.265625 244.1875 82.476562 243.355469 82.726562 C 242.527344 82.980469 241.710938 83.269531 240.910156 83.601562 C 240.109375 83.933594 239.324219 84.304688 238.558594 84.714844 C 237.796875 85.121094 237.054688 85.566406 236.332031 86.050781 C 235.609375 86.53125 234.914062 87.046875 234.246094 87.597656 C 233.574219 88.148438 232.933594 88.730469 232.320312 89.339844 C 231.707031 89.953125 231.125 90.597656 230.574219 91.265625 C 230.023438 91.9375 229.507812 92.632812 229.027344 93.355469 C 228.546875 94.074219 228.101562 94.816406 227.691406 95.582031 C 227.28125 96.347656 226.910156 97.128906 226.578125 97.929688 C 226.25 98.734375 225.957031 99.546875 225.703125 100.378906 C 225.453125 101.207031 225.242188 102.046875 225.074219 102.898438 C 224.902344 103.75 224.777344 104.605469 224.691406 105.46875 C 224.605469 106.332031 224.566406 107.195312 224.566406 108.0625 C 224.566406 108.929688 224.605469 109.796875 224.691406 110.660156 C 224.777344 111.523438 224.902344 112.378906 225.074219 113.230469 C 225.242188 114.078125 225.453125 114.917969 225.703125 115.75 C 225.957031 116.578125 226.25 117.394531 226.578125 118.195312 C 226.910156 118.996094 227.28125 119.78125 227.691406 120.546875 C 228.101562 121.308594 228.546875 122.050781 229.027344 122.773438 C 229.507812 123.496094 230.023438 124.191406 230.574219 124.859375 C 231.125 125.53125 231.707031 126.171875 232.320312 126.785156 C 232.933594 127.398438 233.574219 127.980469 234.246094 128.53125 C 234.914062 129.082031 235.609375 129.597656 236.332031 130.078125 C 237.054688 130.558594 237.796875 131.003906 238.558594 131.414062 C 239.324219 131.824219 240.109375 132.195312 240.910156 132.527344 C 241.710938 132.855469 242.527344 133.148438 243.355469 133.402344 C 244.1875 133.652344 245.027344 133.863281 245.875 134.03125 C 246.726562 134.203125 247.582031 134.328125 248.445312 134.414062 C 249.308594 134.5 250.175781 134.539062 251.042969 134.539062 Z M 251.042969 92.175781 C 251.5625 92.175781 252.082031 92.203125 252.597656 92.253906 C 253.117188 92.304688 253.628906 92.382812 254.140625 92.484375 C 254.652344 92.585938 255.15625 92.710938 255.652344 92.863281 C 256.152344 93.011719 256.640625 93.1875 257.121094 93.386719 C 257.601562 93.585938 258.070312 93.808594 258.53125 94.054688 C 258.988281 94.296875 259.433594 94.566406 259.867188 94.855469 C 260.300781 95.144531 260.71875 95.453125 261.121094 95.785156 C 261.523438 96.113281 261.90625 96.460938 262.273438 96.832031 C 262.644531 97.199219 262.992188 97.582031 263.320312 97.984375 C 263.652344 98.386719 263.960938 98.804688 264.25 99.238281 C 264.539062 99.671875 264.808594 100.117188 265.050781 100.574219 C 265.296875 101.035156 265.519531 101.503906 265.71875 101.984375 C 265.917969 102.464844 266.09375 102.953125 266.242188 103.453125 C 266.394531 103.949219 266.519531 104.453125 266.621094 104.964844 C 266.722656 105.476562 266.800781 105.988281 266.851562 106.507812 C 266.902344 107.023438 266.929688 107.542969 266.929688 108.0625 C 266.929688 108.585938 266.902344 109.101562 266.851562 109.621094 C 266.800781 110.140625 266.722656 110.652344 266.621094 111.164062 C 266.519531 111.671875 266.394531 112.175781 266.242188 112.675781 C 266.09375 113.171875 265.917969 113.664062 265.71875 114.144531 C 265.519531 114.625 265.296875 115.09375 265.050781 115.550781 C 264.808594 116.011719 264.539062 116.457031 264.25 116.890625 C 263.960938 117.324219 263.652344 117.738281 263.320312 118.140625 C 262.992188 118.542969 262.644531 118.929688 262.273438 119.296875 C 261.90625 119.664062 261.523438 120.015625 261.121094 120.34375 C 260.71875 120.675781 260.300781 120.984375 259.867188 121.273438 C 259.433594 121.5625 258.988281 121.828125 258.53125 122.074219 C 258.070312 122.320312 257.601562 122.542969 257.121094 122.742188 C 256.640625 122.941406 256.152344 123.113281 255.652344 123.265625 C 255.15625 123.417969 254.652344 123.542969 254.140625 123.644531 C 253.628906 123.746094 253.117188 123.824219 252.597656 123.875 C 252.082031 123.925781 251.5625 123.949219 251.042969 123.949219 C 250.519531 123.949219 250.003906 123.925781 249.484375 123.875 C 248.964844 123.824219 248.453125 123.746094 247.941406 123.644531 C 247.433594 123.542969 246.929688 123.417969 246.429688 123.265625 C 245.933594 123.113281 245.441406 122.941406 244.960938 122.742188 C 244.480469 122.542969 244.011719 122.320312 243.554688 122.074219 C 243.09375 121.828125 242.648438 121.5625 242.214844 121.273438 C 241.78125 120.984375 241.367188 120.675781 240.964844 120.34375 C 240.5625 120.015625 240.175781 119.664062 239.808594 119.296875 C 239.441406 118.929688 239.089844 118.542969 238.761719 118.140625 C 238.429688 117.738281 238.121094 117.324219 237.832031 116.890625 C 237.542969 116.457031 237.277344 116.011719 237.03125 115.550781 C 236.785156 115.09375 236.5625 114.625 236.363281 114.144531 C 236.164062 113.664062 235.992188 113.171875 235.839844 112.675781 C 235.6875 112.175781 235.5625 111.671875 235.460938 111.164062 C 235.359375 110.652344 235.28125 110.140625 235.230469 109.621094 C 235.179688 109.101562 235.15625 108.585938 235.15625 108.0625 C 235.15625 107.542969 235.179688 107.023438 235.230469 106.507812 C 235.28125 105.988281 235.359375 105.476562 235.460938 104.964844 C 235.5625 104.453125 235.6875 103.949219 235.839844 103.453125 C 235.992188 102.953125 236.164062 102.464844 236.363281 101.984375 C 236.5625 101.503906 236.785156 101.035156 237.03125 100.574219 C 237.277344 100.117188 237.542969 99.671875 237.832031 99.238281 C 238.121094 98.804688 238.429688 98.386719 238.761719 97.984375 C 239.089844 97.582031 239.441406 97.199219 239.808594 96.832031 C 240.175781 96.460938 240.5625 96.113281 240.964844 95.785156 C 241.367188 95.453125 241.78125 95.144531 242.214844 94.855469 C 242.648438 94.566406 243.09375 94.296875 243.554688 94.054688 C 244.011719 93.808594 244.480469 93.585938 244.960938 93.386719 C 245.441406 93.1875 245.933594 93.011719 246.429688 92.863281 C 246.929688 92.710938 247.433594 92.585938 247.941406 92.484375 C 248.453125 92.382812 248.964844 92.304688 249.484375 92.253906 C 250.003906 92.203125 250.519531 92.175781 251.042969 92.175781 Z M 251.042969 92.175781 " fill-opacity="1" fill-rule="nonzero"/><path fill="#1a1c3f" d="M 277.519531 166.3125 C 277.171875 166.3125 276.828125 166.347656 276.484375 166.414062 C 276.144531 166.484375 275.8125 166.582031 275.492188 166.714844 C 275.171875 166.847656 274.867188 167.011719 274.578125 167.207031 C 274.289062 167.398438 274.019531 167.617188 273.773438 167.863281 C 273.527344 168.109375 273.308594 168.378906 273.117188 168.667969 C 272.921875 168.957031 272.757812 169.261719 272.625 169.582031 C 272.492188 169.902344 272.394531 170.234375 272.324219 170.574219 C 272.257812 170.917969 272.222656 171.261719 272.222656 171.609375 L 272.222656 309.289062 C 272.222656 309.636719 272.257812 309.980469 272.324219 310.324219 C 272.394531 310.664062 272.492188 310.996094 272.625 311.316406 C 272.757812 311.636719 272.921875 311.941406 273.117188 312.230469 C 273.308594 312.519531 273.527344 312.789062 273.773438 313.035156 C 274.019531 313.28125 274.289062 313.5 274.578125 313.691406 C 274.867188 313.886719 275.171875 314.046875 275.492188 314.183594 C 275.8125 314.316406 276.144531 314.414062 276.484375 314.484375 C 276.828125 314.550781 277.171875 314.585938 277.519531 314.585938 C 277.867188 314.585938 278.210938 314.550781 278.550781 314.484375 C 278.894531 314.414062 279.222656 314.316406 279.546875 314.183594 C 279.867188 314.046875 280.171875 313.886719 280.460938 313.691406 C 280.75 313.5 281.015625 313.28125 281.261719 313.035156 C 281.507812 312.789062 281.726562 312.519531 281.921875 312.230469 C 282.113281 311.941406 282.277344 311.636719 282.410156 311.316406 C 282.542969 310.996094 282.644531 310.664062 282.710938 310.324219 C 282.78125 309.980469 282.8125 309.636719 282.8125 309.289062 L 282.8125 240.027344 C 294.886719 238.066406 303.996094 229.433594 303.996094 219.265625 L 303.996094 171.609375 C 303.996094 154.082031 287.367188 139.835938 266.929688 139.835938 L 256.335938 139.835938 C 255.988281 139.835938 255.644531 139.871094 255.304688 139.9375 C 254.964844 140.003906 254.632812 140.105469 254.3125 140.238281 C 253.988281 140.371094 253.683594 140.535156 253.394531 140.730469 C 253.105469 140.921875 252.839844 141.140625 252.59375 141.386719 C 252.347656 141.632812 252.128906 141.902344 251.933594 142.191406 C 251.742188 142.480469 251.578125 142.785156 251.445312 143.105469 C 251.3125 143.425781 251.210938 143.757812 251.144531 144.097656 C 251.074219 144.441406 251.042969 144.785156 251.042969 145.132812 C 251.042969 145.480469 251.074219 145.824219 251.144531 146.164062 C 251.210938 146.503906 251.3125 146.835938 251.445312 147.15625 C 251.578125 147.480469 251.742188 147.785156 251.933594 148.074219 C 252.128906 148.363281 252.347656 148.628906 252.59375 148.875 C 252.839844 149.121094 253.105469 149.339844 253.394531 149.535156 C 253.683594 149.726562 253.988281 149.890625 254.3125 150.023438 C 254.632812 150.15625 254.964844 150.257812 255.304688 150.324219 C 255.644531 150.394531 255.988281 150.425781 256.335938 150.425781 L 266.929688 150.425781 C 281.542969 150.425781 293.40625 159.90625 293.40625 171.609375 L 293.40625 219.265625 C 293.40625 223.769531 288.902344 227.6875 282.8125 229.167969 L 282.8125 171.609375 C 282.8125 171.261719 282.78125 170.917969 282.710938 170.574219 C 282.644531 170.234375 282.542969 169.902344 282.410156 169.582031 C 282.277344 169.261719 282.113281 168.957031 281.921875 168.667969 C 281.726562 168.378906 281.507812 168.109375 281.261719 167.863281 C 281.015625 167.617188 280.75 167.398438 280.460938 167.207031 C 280.171875 167.011719 279.867188 166.847656 279.546875 166.714844 C 279.222656 166.582031 278.894531 166.484375 278.550781 166.414062 C 278.210938 166.347656 277.867188 166.3125 277.519531 166.3125 Z M 277.519531 166.3125 " fill-opacity="1" fill-rule="nonzero"/><path fill="#1a1c3f" d="M 245.746094 240.449219 L 245.746094 309.289062 C 245.746094 309.636719 245.78125 309.980469 245.847656 310.324219 C 245.914062 310.664062 246.015625 310.996094 246.148438 311.316406 C 246.28125 311.636719 246.445312 311.941406 246.636719 312.230469 C 246.832031 312.519531 247.050781 312.789062 247.296875 313.035156 C 247.542969 313.28125 247.8125 313.5 248.101562 313.691406 C 248.390625 313.886719 248.695312 314.046875 249.015625 314.183594 C 249.335938 314.316406 249.667969 314.414062 250.007812 314.484375 C 250.347656 314.550781 250.695312 314.585938 251.042969 314.585938 C 251.390625 314.585938 251.734375 314.550781 252.074219 314.484375 C 252.414062 314.414062 252.746094 314.316406 253.066406 314.183594 C 253.390625 314.046875 253.695312 313.886719 253.984375 313.691406 C 254.273438 313.5 254.539062 313.28125 254.785156 313.035156 C 255.03125 312.789062 255.25 312.519531 255.445312 312.230469 C 255.636719 311.941406 255.800781 311.636719 255.933594 311.316406 C 256.066406 310.996094 256.167969 310.664062 256.234375 310.324219 C 256.304688 309.980469 256.335938 309.636719 256.335938 309.289062 L 256.335938 240.449219 C 256.335938 240.101562 256.304688 239.757812 256.234375 239.414062 C 256.167969 239.074219 256.066406 238.742188 255.933594 238.421875 C 255.800781 238.101562 255.636719 237.796875 255.445312 237.507812 C 255.25 237.21875 255.03125 236.949219 254.785156 236.703125 C 254.539062 236.457031 254.273438 236.238281 253.984375 236.046875 C 253.695312 235.851562 253.390625 235.691406 253.066406 235.558594 C 252.746094 235.421875 252.414062 235.324219 252.074219 235.253906 C 251.734375 235.1875 251.390625 235.152344 251.042969 235.152344 C 250.695312 235.152344 250.347656 235.1875 250.007812 235.253906 C 249.667969 235.324219 249.335938 235.421875 249.015625 235.558594 C 248.695312 235.691406 248.390625 235.851562 248.101562 236.046875 C 247.8125 236.238281 247.542969 236.457031 247.296875 236.703125 C 247.050781 236.949219 246.832031 237.21875 246.636719 237.507812 C 246.445312 237.796875 246.28125 238.101562 246.148438 238.421875 C 246.015625 238.742188 245.914062 239.074219 245.847656 239.414062 C 245.78125 239.757812 245.746094 240.101562 245.746094 240.449219 Z M 245.746094 240.449219 " fill-opacity="1" fill-rule="nonzero"/><path fill="#1a1c3f" d="M 309.292969 145.132812 C 310.070312 145.132812 310.851562 145.09375 311.625 145.015625 C 312.402344 144.941406 313.175781 144.824219 313.941406 144.671875 C 314.707031 144.523438 315.460938 144.332031 316.207031 144.105469 C 316.957031 143.878906 317.6875 143.617188 318.410156 143.316406 C 319.132812 143.019531 319.835938 142.6875 320.523438 142.316406 C 321.210938 141.949219 321.882812 141.550781 322.53125 141.117188 C 323.179688 140.683594 323.804688 140.21875 324.410156 139.722656 C 325.011719 139.226562 325.589844 138.703125 326.140625 138.152344 C 326.691406 137.601562 327.214844 137.023438 327.710938 136.417969 C 328.207031 135.816406 328.671875 135.191406 329.105469 134.542969 C 329.539062 133.890625 329.9375 133.222656 330.308594 132.535156 C 330.675781 131.847656 331.007812 131.140625 331.304688 130.421875 C 331.605469 129.699219 331.867188 128.964844 332.09375 128.21875 C 332.320312 127.472656 332.511719 126.714844 332.664062 125.953125 C 332.816406 125.1875 332.929688 124.414062 333.003906 123.636719 C 333.082031 122.859375 333.121094 122.082031 333.121094 121.300781 C 333.121094 120.523438 333.082031 119.742188 333.003906 118.964844 C 332.929688 118.191406 332.816406 117.417969 332.664062 116.652344 C 332.511719 115.886719 332.320312 115.132812 332.09375 114.386719 C 331.867188 113.636719 331.605469 112.902344 331.304688 112.183594 C 331.007812 111.460938 330.675781 110.757812 330.308594 110.070312 C 329.9375 109.382812 329.539062 108.710938 329.105469 108.0625 C 328.671875 107.414062 328.207031 106.789062 327.710938 106.183594 C 327.214844 105.582031 326.691406 105.003906 326.140625 104.453125 C 325.589844 103.902344 325.011719 103.378906 324.410156 102.882812 C 323.804688 102.386719 323.179688 101.921875 322.53125 101.488281 C 321.882812 101.054688 321.210938 100.65625 320.523438 100.285156 C 319.835938 99.917969 319.132812 99.585938 318.410156 99.285156 C 317.6875 98.988281 316.957031 98.726562 316.207031 98.5 C 315.460938 98.273438 314.707031 98.082031 313.941406 97.929688 C 313.175781 97.777344 312.402344 97.664062 311.625 97.585938 C 310.851562 97.511719 310.070312 97.472656 309.292969 97.472656 C 308.511719 97.472656 307.730469 97.511719 306.957031 97.585938 C 306.179688 97.664062 305.40625 97.777344 304.640625 97.929688 C 303.875 98.082031 303.121094 98.273438 302.375 98.5 C 301.628906 98.726562 300.894531 98.988281 300.171875 99.285156 C 299.449219 99.585938 298.746094 99.917969 298.058594 100.285156 C 297.371094 100.65625 296.703125 101.054688 296.050781 101.488281 C 295.402344 101.921875 294.777344 102.386719 294.175781 102.882812 C 293.570312 103.378906 292.992188 103.902344 292.441406 104.453125 C 291.890625 105.003906 291.367188 105.582031 290.871094 106.183594 C 290.375 106.789062 289.910156 107.414062 289.476562 108.0625 C 289.042969 108.710938 288.644531 109.382812 288.277344 110.070312 C 287.90625 110.757812 287.574219 111.460938 287.277344 112.183594 C 286.976562 112.902344 286.714844 113.636719 286.488281 114.386719 C 286.261719 115.132812 286.070312 115.886719 285.917969 116.652344 C 285.765625 117.417969 285.652344 118.191406 285.578125 118.964844 C 285.5 119.742188 285.460938 120.523438 285.460938 121.300781 C 285.464844 122.082031 285.503906 122.859375 285.582031 123.636719 C 285.660156 124.414062 285.773438 125.183594 285.929688 125.949219 C 286.082031 126.710938 286.273438 127.46875 286.5 128.214844 C 286.726562 128.960938 286.992188 129.691406 287.289062 130.414062 C 287.589844 131.132812 287.921875 131.835938 288.292969 132.523438 C 288.660156 133.210938 289.058594 133.878906 289.492188 134.527344 C 289.925781 135.175781 290.390625 135.800781 290.886719 136.40625 C 291.382812 137.007812 291.90625 137.585938 292.457031 138.136719 C 293.007812 138.6875 293.585938 139.210938 294.1875 139.707031 C 294.789062 140.203125 295.417969 140.664062 296.066406 141.097656 C 296.714844 141.53125 297.382812 141.933594 298.070312 142.300781 C 298.757812 142.671875 299.460938 143.003906 300.179688 143.304688 C 300.902344 143.601562 301.632812 143.867188 302.378906 144.09375 C 303.125 144.320312 303.882812 144.511719 304.644531 144.664062 C 305.410156 144.820312 306.179688 144.933594 306.957031 145.011719 C 307.734375 145.089844 308.511719 145.128906 309.292969 145.132812 Z M 309.292969 108.0625 C 310.160156 108.0625 311.019531 108.148438 311.875 108.316406 C 312.726562 108.488281 313.554688 108.738281 314.355469 109.070312 C 315.160156 109.402344 315.921875 109.8125 316.644531 110.292969 C 317.367188 110.777344 318.039062 111.328125 318.652344 111.941406 C 319.265625 112.554688 319.816406 113.226562 320.296875 113.949219 C 320.78125 114.671875 321.1875 115.433594 321.523438 116.234375 C 321.855469 117.039062 322.105469 117.867188 322.273438 118.71875 C 322.445312 119.570312 322.53125 120.433594 322.53125 121.300781 C 322.53125 122.171875 322.445312 123.03125 322.273438 123.886719 C 322.105469 124.738281 321.855469 125.566406 321.523438 126.367188 C 321.1875 127.171875 320.78125 127.933594 320.296875 128.65625 C 319.816406 129.378906 319.265625 130.046875 318.652344 130.664062 C 318.039062 131.277344 317.367188 131.828125 316.644531 132.308594 C 315.921875 132.792969 315.160156 133.199219 314.355469 133.53125 C 313.554688 133.867188 312.726562 134.117188 311.875 134.285156 C 311.019531 134.457031 310.160156 134.539062 309.292969 134.539062 C 308.421875 134.539062 307.5625 134.457031 306.707031 134.285156 C 305.855469 134.117188 305.027344 133.867188 304.226562 133.53125 C 303.421875 133.199219 302.660156 132.792969 301.9375 132.308594 C 301.214844 131.828125 300.542969 131.277344 299.929688 130.664062 C 299.316406 130.046875 298.765625 129.378906 298.285156 128.65625 C 297.800781 127.933594 297.394531 127.171875 297.058594 126.367188 C 296.726562 125.566406 296.476562 124.738281 296.308594 123.886719 C 296.136719 123.03125 296.050781 122.171875 296.050781 121.300781 C 296.050781 120.433594 296.136719 119.570312 296.308594 118.71875 C 296.476562 117.867188 296.726562 117.039062 297.058594 116.234375 C 297.394531 115.433594 297.800781 114.671875 298.285156 113.949219 C 298.765625 113.226562 299.316406 112.554688 299.929688 111.941406 C 300.542969 111.328125 301.214844 110.777344 301.9375 110.292969 C 302.660156 109.8125 303.421875 109.402344 304.226562 109.070312 C 305.027344 108.738281 305.855469 108.488281 306.707031 108.316406 C 307.5625 108.148438 308.421875 108.0625 309.292969 108.0625 Z M 309.292969 108.0625 " fill-opacity="1" fill-rule="nonzero"/><path fill="#1a1c3f" d="M 309.292969 235.152344 C 308.945312 235.152344 308.597656 235.1875 308.257812 235.253906 C 307.917969 235.324219 307.585938 235.421875 307.265625 235.558594 C 306.945312 235.691406 306.636719 235.851562 306.347656 236.046875 C 306.058594 236.238281 305.792969 236.457031 305.546875 236.703125 C 305.300781 236.949219 305.082031 237.21875 304.886719 237.507812 C 304.695312 237.796875 304.53125 238.101562 304.398438 238.421875 C 304.265625 238.742188 304.164062 239.074219 304.097656 239.414062 C 304.03125 239.757812 303.996094 240.101562 303.996094 240.449219 L 303.996094 309.289062 C 303.996094 309.636719 304.03125 309.980469 304.097656 310.324219 C 304.164062 310.664062 304.265625 310.996094 304.398438 311.316406 C 304.53125 311.636719 304.695312 311.941406 304.886719 312.230469 C 305.082031 312.519531 305.300781 312.789062 305.546875 313.035156 C 305.792969 313.28125 306.058594 313.5 306.347656 313.691406 C 306.636719 313.886719 306.945312 314.046875 307.265625 314.183594 C 307.585938 314.316406 307.917969 314.414062 308.257812 314.484375 C 308.597656 314.550781 308.945312 314.585938 309.292969 314.585938 C 309.640625 314.585938 309.984375 314.550781 310.324219 314.484375 C 310.664062 314.414062 310.996094 314.316406 311.316406 314.183594 C 311.640625 314.046875 311.945312 313.886719 312.234375 313.691406 C 312.523438 313.5 312.789062 313.28125 313.035156 313.035156 C 313.28125 312.789062 313.5 312.519531 313.695312 312.230469 C 313.886719 311.941406 314.050781 311.636719 314.183594 311.316406 C 314.316406 310.996094 314.417969 310.664062 314.484375 310.324219 C 314.550781 309.980469 314.585938 309.636719 314.585938 309.289062 L 314.585938 240.449219 C 314.585938 240.101562 314.550781 239.757812 314.484375 239.414062 C 314.417969 239.074219 314.316406 238.742188 314.183594 238.421875 C 314.050781 238.101562 313.886719 237.796875 313.695312 237.507812 C 313.5 237.21875 313.28125 236.949219 313.035156 236.703125 C 312.789062 236.457031 312.523438 236.238281 312.234375 236.046875 C 311.945312 235.851562 311.640625 235.691406 311.316406 235.558594 C 310.996094 235.421875 310.664062 235.324219 310.324219 235.253906 C 309.984375 235.1875 309.640625 235.152344 309.292969 235.152344 Z M 309.292969 235.152344 " fill-opacity="1" fill-rule="nonzero"/><path fill="#1a1c3f" d="M 325.175781 150.425781 L 314.585938 150.425781 C 314.238281 150.425781 313.894531 150.460938 313.554688 150.527344 C 313.210938 150.597656 312.882812 150.695312 312.558594 150.832031 C 312.238281 150.964844 311.933594 151.125 311.644531 151.320312 C 311.355469 151.511719 311.089844 151.730469 310.84375 151.976562 C 310.597656 152.222656 310.375 152.492188 310.183594 152.78125 C 309.992188 153.070312 309.828125 153.375 309.695312 153.695312 C 309.5625 154.015625 309.460938 154.347656 309.394531 154.6875 C 309.324219 155.03125 309.292969 155.375 309.292969 155.722656 C 309.292969 156.070312 309.324219 156.414062 309.394531 156.753906 C 309.460938 157.097656 309.5625 157.425781 309.695312 157.75 C 309.828125 158.070312 309.992188 158.375 310.183594 158.664062 C 310.375 158.953125 310.597656 159.222656 310.84375 159.46875 C 311.089844 159.710938 311.355469 159.933594 311.644531 160.125 C 311.933594 160.320312 312.238281 160.480469 312.558594 160.613281 C 312.882812 160.746094 313.210938 160.847656 313.554688 160.917969 C 313.894531 160.984375 314.238281 161.019531 314.585938 161.019531 L 325.175781 161.019531 C 325.699219 161.019531 326.214844 161.042969 326.734375 161.09375 C 327.253906 161.144531 327.765625 161.222656 328.277344 161.324219 C 328.785156 161.425781 329.289062 161.550781 329.789062 161.703125 C 330.285156 161.851562 330.777344 162.027344 331.257812 162.226562 C 331.738281 162.425781 332.207031 162.648438 332.667969 162.894531 C 333.125 163.140625 333.570312 163.40625 334.003906 163.695312 C 334.4375 163.984375 334.851562 164.292969 335.253906 164.625 C 335.65625 164.953125 336.042969 165.304688 336.410156 165.671875 C 336.777344 166.039062 337.128906 166.421875 337.457031 166.824219 C 337.789062 167.226562 338.097656 167.644531 338.386719 168.078125 C 338.675781 168.511719 338.941406 168.957031 339.1875 169.414062 C 339.433594 169.875 339.65625 170.34375 339.855469 170.824219 C 340.054688 171.304688 340.226562 171.792969 340.378906 172.292969 C 340.53125 172.789062 340.65625 173.292969 340.757812 173.804688 C 340.859375 174.316406 340.9375 174.828125 340.988281 175.347656 C 341.039062 175.863281 341.0625 176.382812 341.0625 176.902344 L 341.0625 213.972656 C 341.0625 219.265625 339.367188 222.339844 335.769531 223.714844 L 335.769531 182.199219 C 335.769531 181.851562 335.734375 181.507812 335.667969 181.167969 C 335.597656 180.824219 335.5 180.496094 335.363281 180.171875 C 335.230469 179.851562 335.070312 179.546875 334.875 179.257812 C 334.683594 178.96875 334.464844 178.699219 334.21875 178.457031 C 333.972656 178.210938 333.703125 177.988281 333.414062 177.796875 C 333.125 177.601562 332.820312 177.441406 332.5 177.308594 C 332.179688 177.175781 331.847656 177.074219 331.503906 177.007812 C 331.164062 176.9375 330.820312 176.902344 330.472656 176.902344 C 330.125 176.902344 329.78125 176.9375 329.441406 177.007812 C 329.097656 177.074219 328.765625 177.175781 328.445312 177.308594 C 328.125 177.441406 327.820312 177.601562 327.53125 177.796875 C 327.242188 177.988281 326.972656 178.210938 326.726562 178.457031 C 326.484375 178.699219 326.261719 178.96875 326.070312 179.257812 C 325.875 179.546875 325.714844 179.851562 325.582031 180.171875 C 325.449219 180.496094 325.347656 180.824219 325.277344 181.167969 C 325.210938 181.507812 325.175781 181.851562 325.175781 182.199219 L 325.175781 309.289062 C 325.175781 309.636719 325.210938 309.980469 325.277344 310.324219 C 325.347656 310.664062 325.449219 310.996094 325.582031 311.316406 C 325.714844 311.636719 325.875 311.941406 326.070312 312.230469 C 326.261719 312.519531 326.484375 312.789062 326.726562 313.035156 C 326.972656 313.28125 327.242188 313.5 327.53125 313.691406 C 327.820312 313.886719 328.125 314.046875 328.445312 314.183594 C 328.765625 314.316406 329.097656 314.414062 329.441406 314.484375 C 329.78125 314.550781 330.125 314.585938 330.472656 314.585938 C 330.820312 314.585938 331.164062 314.550781 331.503906 314.484375 C 331.847656 314.414062 332.179688 314.316406 332.5 314.183594 C 332.820312 314.046875 333.125 313.886719 333.414062 313.691406 C 333.703125 313.5 333.972656 313.28125 334.21875 313.035156 C 334.464844 312.789062 334.683594 312.519531 334.875 312.230469 C 335.070312 311.941406 335.230469 311.636719 335.363281 311.316406 C 335.5 310.996094 335.597656 310.664062 335.667969 310.324219 C 335.734375 309.980469 335.769531 309.636719 335.769531 309.289062 L 335.769531 234.625 C 336.359375 234.527344 336.945312 234.40625 337.523438 234.253906 C 338.101562 234.105469 338.671875 233.925781 339.234375 233.722656 C 339.796875 233.519531 340.351562 233.285156 340.890625 233.03125 C 341.429688 232.773438 341.957031 232.492188 342.472656 232.1875 C 342.988281 231.878906 343.484375 231.550781 343.96875 231.195312 C 344.449219 230.84375 344.914062 230.464844 345.363281 230.070312 C 345.8125 229.671875 346.238281 229.253906 346.648438 228.816406 C 347.054688 228.378906 347.441406 227.921875 347.804688 227.449219 C 348.171875 226.972656 348.511719 226.484375 348.832031 225.976562 C 349.148438 225.46875 349.445312 224.949219 349.714844 224.414062 C 349.980469 223.878906 350.226562 223.335938 350.445312 222.777344 C 350.660156 222.21875 350.851562 221.652344 351.015625 221.078125 C 351.179688 220.503906 351.320312 219.921875 351.429688 219.332031 C 351.539062 218.742188 351.617188 218.152344 351.671875 217.554688 C 351.726562 216.957031 351.75 216.363281 351.746094 215.761719 C 351.746094 215.164062 351.714844 214.566406 351.65625 213.972656 L 351.65625 176.902344 C 351.65625 176.035156 351.613281 175.171875 351.527344 174.308594 C 351.441406 173.445312 351.316406 172.589844 351.144531 171.738281 C 350.976562 170.886719 350.765625 170.046875 350.515625 169.21875 C 350.261719 168.386719 349.972656 167.574219 349.640625 166.773438 C 349.308594 165.96875 348.9375 165.1875 348.527344 164.421875 C 348.121094 163.65625 347.675781 162.914062 347.191406 162.195312 C 346.710938 161.472656 346.195312 160.777344 345.644531 160.105469 C 345.09375 159.4375 344.511719 158.796875 343.898438 158.183594 C 343.285156 157.570312 342.644531 156.988281 341.972656 156.4375 C 341.304688 155.886719 340.609375 155.371094 339.886719 154.890625 C 339.167969 154.40625 338.421875 153.960938 337.660156 153.554688 C 336.894531 153.144531 336.109375 152.773438 335.308594 152.441406 C 334.507812 152.109375 333.691406 151.820312 332.863281 151.566406 C 332.035156 151.316406 331.191406 151.105469 330.34375 150.9375 C 329.492188 150.765625 328.636719 150.640625 327.773438 150.554688 C 326.910156 150.46875 326.042969 150.425781 325.175781 150.425781 Z M 325.175781 150.425781 " fill-opacity="1" fill-rule="nonzero"/></svg>