<svg xmlns="http://www.w3.org/2000/svg" xmlns:xlink="http://www.w3.org/1999/xlink" width="50" zoomAndPan="magnify" viewBox="0 0 375 374.999991" height="60" preserveAspectRatio="xMidYMid meet" version="1.0"><path fill="#1a1c3f" d="M 303.910156 85.019531 L 268.824219 105.867188 C 281.335938 117.277344 291.082031 130.332031 299.078125 144.476562 C 307.089844 158.652344 313.316406 173.875 318.800781 189.613281 L 354.0625 168.660156 C 348.578125 152.738281 342.382812 137.394531 334.402344 123.273438 C 326.417969 109.148438 316.621094 96.191406 303.910156 85.019531 Z M 72.695312 76.710938 L 114.9375 101.808594 C 116.828125 102.929688 117.457031 105.371094 116.339844 107.261719 C 116.050781 107.753906 115.671875 108.15625 115.234375 108.46875 C 113.878906 109.621094 112.550781 110.785156 111.257812 111.972656 C 114.039062 115.050781 117.058594 116.824219 120.96875 117.816406 C 126.027344 119.105469 132.679688 119.246094 141.953125 119.144531 C 147.109375 113.949219 151.136719 111.058594 159.480469 108.785156 C 164.226562 107.492188 170.277344 106.457031 176.585938 105.707031 C 183.582031 104.871094 191.082031 104.367188 197.5625 104.222656 C 203.65625 104.089844 208.785156 104.292969 213.355469 104.714844 C 218.03125 105.148438 222.023438 105.792969 225.804688 106.539062 C 227.410156 106.855469 229.191406 107.238281 230.957031 107.621094 C 236.390625 108.789062 241.703125 109.933594 247.40625 110.121094 C 251.148438 110.242188 255.214844 109.96875 258.890625 109.582031 C 259.535156 109.515625 260.171875 109.441406 260.804688 109.363281 C 260.457031 109.066406 260.109375 108.769531 259.757812 108.46875 C 259.324219 108.15625 258.945312 107.753906 258.65625 107.261719 C 257.535156 105.371094 258.164062 102.929688 260.058594 101.808594 L 302.300781 76.710938 L 302.304688 76.722656 C 303.714844 75.886719 305.554688 75.988281 306.882812 77.101562 C 321.4375 89.351562 332.457031 103.691406 341.320312 119.375 C 350.082031 134.882812 356.710938 151.636719 362.566406 168.953125 C 363.289062 170.75 362.613281 172.851562 360.894531 173.867188 L 318.652344 198.964844 L 318.648438 198.960938 C 318.414062 199.101562 318.160156 199.21875 317.886719 199.308594 C 315.804688 200.003906 313.550781 198.882812 312.855469 196.800781 L 312.351562 195.316406 C 309.453125 198.519531 306.390625 201.375 303.125 203.933594 C 299.617188 206.683594 295.886719 209.085938 291.894531 211.203125 C 295.082031 215.039062 296.175781 219.652344 295.691406 224.113281 C 295.402344 226.785156 294.523438 229.398438 293.175781 231.734375 C 291.816406 234.089844 289.992188 236.160156 287.820312 237.730469 C 284.804688 239.917969 281.144531 241.199219 277.144531 241.039062 C 277.226562 241.773438 277.269531 242.519531 277.269531 243.273438 C 277.269531 248.679688 275.078125 253.578125 271.535156 257.121094 C 267.992188 260.664062 263.09375 262.859375 257.6875 262.859375 C 256.292969 262.859375 254.929688 262.707031 253.601562 262.421875 C 253.535156 265.644531 252.59375 268.777344 250.960938 271.503906 C 249.261719 274.332031 246.816406 276.714844 243.816406 278.289062 C 241.3125 279.601562 238.449219 280.363281 235.34375 280.363281 C 233.738281 280.363281 232.175781 280.152344 230.683594 279.757812 C 230.296875 282.558594 229.230469 285.207031 227.628906 287.480469 C 225.589844 290.371094 222.667969 292.664062 219.167969 293.890625 C 217.355469 294.527344 215.410156 294.878906 213.386719 294.878906 C 208.820312 294.878906 200.21875 294.179688 190.675781 292.117188 C 184.9375 290.875 178.835938 289.140625 173.023438 286.761719 L 169.25 291.472656 L 169.257812 291.480469 C 165.941406 295.621094 161.230469 298.03125 156.320312 298.574219 C 151.417969 299.117188 146.300781 297.792969 142.148438 294.46875 L 142.140625 294.460938 L 142.132812 294.46875 C 138.425781 291.5 136.105469 287.414062 135.273438 283.070312 C 133.179688 284.1875 130.902344 284.863281 128.550781 285.125 C 123.703125 285.660156 118.554688 284.390625 114.140625 281.554688 C 113.664062 281.25 113.226562 280.9375 112.828125 280.625 C 108.84375 277.488281 106.871094 273.015625 106.519531 268.386719 C 106.484375 267.917969 106.46875 267.445312 106.464844 266.972656 C 105.207031 267.367188 103.90625 267.636719 102.601562 267.78125 C 97.523438 268.34375 92.222656 267.023438 88.285156 264.0625 C 88.179688 263.980469 88.273438 264.042969 87.894531 263.738281 L 87.886719 263.75 C 83.609375 260.34375 81.425781 255.582031 81.03125 250.722656 C 80.773438 247.496094 81.320312 244.214844 82.582031 241.253906 C 78.3125 241.285156 73.996094 239.90625 70.40625 237.03125 C 66.25 233.707031 63.835938 229 63.292969 224.09375 C 62.75 219.195312 64.078125 214.074219 67.398438 209.925781 L 68.695312 208.304688 C 67.761719 206.066406 66.828125 204.1875 65.5 202.351562 C 64.503906 200.96875 63.238281 199.542969 61.546875 197.925781 C 60.546875 199.257812 58.769531 199.863281 57.105469 199.308594 C 56.835938 199.21875 56.582031 199.101562 56.34375 198.960938 L 56.339844 198.964844 L 14.097656 173.867188 C 12.382812 172.851562 11.707031 170.75 12.429688 168.953125 C 18.28125 151.636719 24.910156 134.882812 33.675781 119.375 C 42.539062 103.691406 53.558594 89.351562 68.113281 77.101562 C 69.4375 75.988281 71.277344 75.886719 72.6875 76.722656 Z M 105.542969 117.542969 C 96.5 126.898438 89.105469 137.273438 82.835938 148.371094 C 75.503906 161.34375 69.679688 175.351562 64.527344 189.894531 C 67.894531 192.816406 70.1875 195.265625 71.953125 197.710938 C 72.84375 198.945312 73.582031 200.148438 74.242188 201.378906 L 79.402344 194.933594 L 79.394531 194.925781 C 82.710938 190.785156 87.417969 188.378906 92.324219 187.835938 C 97.222656 187.292969 102.339844 188.617188 106.488281 191.9375 L 106.507812 191.953125 L 106.511719 191.945312 L 106.535156 191.964844 L 106.539062 191.957031 L 106.71875 192.113281 C 109.902344 194.734375 112.03125 198.1875 113.042969 201.910156 L 114.023438 200.683594 C 120.496094 192.5625 128.242188 190.457031 134.867188 192.046875 C 137.566406 192.695312 140.042969 193.953125 142.148438 195.671875 C 144.246094 197.386719 145.988281 199.550781 147.226562 202.011719 C 149.605469 206.742188 150.183594 212.570312 147.902344 218.402344 C 152.21875 218.300781 156.59375 219.636719 160.230469 222.472656 C 160.417969 222.605469 160.59375 222.75 160.753906 222.914062 C 164.449219 226.609375 166.777344 231.316406 167.3125 236.144531 C 167.832031 240.851562 166.667969 245.640625 163.449219 249.726562 L 162.984375 250.316406 C 166.910156 250.496094 170.824219 251.875 174.125 254.519531 C 178.28125 257.84375 180.695312 262.550781 181.238281 267.453125 C 181.722656 271.8125 180.726562 276.339844 178.164062 280.210938 C 182.871094 281.980469 187.738281 283.324219 192.359375 284.324219 C 201.257812 286.25 209.195312 286.898438 213.386719 286.898438 C 214.535156 286.898438 215.597656 286.714844 216.550781 286.382812 C 218.425781 285.722656 220.003906 284.476562 221.117188 282.898438 C 222.226562 281.320312 222.867188 279.410156 222.867188 277.414062 C 222.867188 277.023438 222.84375 276.628906 222.792969 276.238281 C 214.28125 273.996094 205.828125 270.941406 197.429688 267.078125 C 188.292969 262.871094 179.21875 257.699219 170.203125 251.566406 C 168.390625 250.324219 167.921875 247.847656 169.160156 246.035156 C 170.398438 244.21875 172.878906 243.75 174.691406 244.988281 C 183.332031 250.871094 192.023438 255.824219 200.765625 259.847656 C 209.480469 263.859375 218.238281 266.945312 227.042969 269.105469 C 227.699219 269.269531 228.277344 269.582031 228.746094 270.003906 C 229.636719 270.746094 230.660156 271.347656 231.785156 271.761719 C 232.882812 272.164062 234.082031 272.386719 235.34375 272.386719 C 237.125 272.386719 238.730469 271.96875 240.105469 271.246094 C 241.800781 270.355469 243.179688 269.011719 244.136719 267.421875 C 245.09375 265.824219 245.628906 263.96875 245.628906 262.054688 C 245.628906 260.949219 245.449219 259.828125 245.066406 258.730469 C 225.179688 252.242188 203.121094 241.292969 178.898438 225.890625 C 177.039062 224.710938 176.488281 222.246094 177.667969 220.390625 C 178.847656 218.53125 181.308594 217.980469 183.167969 219.160156 C 207.503906 234.632812 229.507812 245.472656 249.179688 251.679688 C 249.726562 251.851562 250.207031 252.128906 250.613281 252.484375 C 251.589844 253.238281 252.683594 253.835938 253.855469 254.246094 C 255.03125 254.65625 256.320312 254.878906 257.6875 254.878906 C 260.890625 254.878906 263.792969 253.582031 265.894531 251.480469 C 267.996094 249.378906 269.292969 246.480469 269.292969 243.273438 C 269.292969 242.214844 269.152344 241.191406 268.890625 240.222656 C 268.738281 239.664062 268.550781 239.132812 268.335938 238.625 C 262.691406 236.613281 254.199219 232.648438 242.859375 226.726562 C 230.472656 220.261719 214.75 211.511719 195.6875 200.476562 C 193.785156 199.371094 193.136719 196.9375 194.238281 195.035156 C 195.339844 193.136719 197.773438 192.488281 199.675781 193.585938 C 218.820312 204.671875 234.4375 213.371094 246.539062 219.683594 C 258.476562 225.917969 267.042969 229.871094 272.238281 231.554688 C 272.472656 231.621094 272.703125 231.710938 272.929688 231.824219 C 276.863281 233.804688 280.492188 233.203125 283.148438 231.28125 C 284.429688 230.351562 285.5 229.140625 286.289062 227.777344 C 287.085938 226.394531 287.605469 224.851562 287.777344 223.269531 C 288.136719 219.953125 286.855469 216.449219 283.210938 214.035156 L 283.199219 214.027344 L 283.175781 214.015625 L 283.164062 214.007812 L 283.160156 214.003906 L 283.152344 214 L 283.144531 213.992188 L 283.078125 213.945312 C 283.023438 213.90625 282.972656 213.867188 282.921875 213.824219 L 282.914062 213.820312 L 282.835938 213.753906 L 282.832031 213.75 L 282.808594 213.734375 L 282.800781 213.726562 L 282.789062 213.71875 L 282.382812 213.375 C 282.285156 213.296875 282.1875 213.214844 282.09375 213.128906 C 275.535156 207.597656 268.964844 202.0625 262.042969 196.53125 C 254.867188 190.796875 247.351562 185.09375 239.15625 179.457031 C 223.035156 168.355469 203.964844 157.269531 184.839844 146.179688 C 182.925781 146.519531 181.003906 146.910156 179.035156 147.589844 C 176.644531 148.410156 174.109375 149.671875 171.292969 151.808594 C 168.265625 154.105469 164.710938 157.5625 161.046875 161.125 C 157.332031 164.734375 153.5 168.457031 149.738281 171.445312 C 145.703125 174.648438 141.730469 177.03125 137.855469 178.34375 C 133.613281 179.78125 129.492188 179.960938 125.546875 178.589844 L 125.53125 178.582031 L 125.53125 178.589844 C 121.257812 177.101562 117.292969 173.761719 115.1875 169.058594 C 113.4375 165.148438 112.96875 160.339844 114.683594 154.945312 C 117.601562 145.785156 127.015625 135.0625 134.421875 127.097656 C 128.210938 127.011719 123.253906 126.628906 119.003906 125.546875 C 113.539062 124.15625 109.351562 121.726562 105.542969 117.542969 Z M 106.171875 105.867188 L 71.085938 85.019531 C 58.371094 96.191406 48.574219 109.148438 40.59375 123.273438 C 32.613281 137.394531 26.417969 152.738281 20.933594 168.660156 L 55.535156 189.222656 C 55.679688 188.851562 55.882812 188.496094 56.144531 188.171875 C 56.386719 187.867188 56.667969 187.609375 56.972656 187.394531 C 62.269531 172.445312 68.28125 157.984375 75.917969 144.476562 C 83.910156 130.332031 93.660156 117.277344 106.171875 105.867188 Z M 91.3125 229.054688 C 91.480469 228.847656 91.664062 228.660156 91.863281 228.492188 L 102.949219 214.582031 C 103.054688 214.394531 103.179688 214.214844 103.316406 214.046875 L 103.320312 214.042969 L 103.335938 214.054688 C 105.253906 211.632812 106.015625 208.636719 105.695312 205.75 C 105.382812 202.925781 104.023438 200.21875 101.695312 198.28125 L 101.492188 198.128906 L 101.5 198.117188 L 101.488281 198.105469 L 101.488281 198.101562 C 99.074219 196.191406 96.082031 195.433594 93.195312 195.75 C 90.308594 196.070312 87.539062 197.480469 85.59375 199.910156 L 85.589844 199.910156 L 85.558594 199.949219 L 85.554688 199.945312 L 76.554688 211.1875 C 76.429688 211.371094 76.292969 211.542969 76.144531 211.703125 L 73.601562 214.878906 C 71.65625 217.304688 70.886719 220.320312 71.207031 223.222656 C 71.527344 226.121094 72.9375 228.894531 75.359375 230.832031 C 77.785156 232.773438 80.800781 233.542969 83.703125 233.222656 C 86.597656 232.902344 89.367188 231.488281 91.3125 229.054688 Z M 146.480469 258.394531 C 146.617188 258.085938 146.792969 257.789062 147.015625 257.511719 C 147.445312 256.976562 147.894531 256.472656 148.367188 255.996094 L 157.183594 244.800781 C 159.027344 242.460938 159.695312 239.71875 159.394531 237.015625 C 159.066406 234.050781 157.597656 231.097656 155.246094 228.691406 C 152.84375 226.851562 149.902344 226.117188 147.074219 226.425781 C 144.457031 226.714844 141.949219 227.894531 140.082031 229.917969 L 117.632812 258.085938 C 117.492188 258.457031 117.296875 258.8125 117.039062 259.136719 C 116.8125 259.425781 116.609375 259.710938 116.429688 259.988281 C 114.992188 262.226562 114.261719 265.0625 114.46875 267.796875 C 114.660156 270.328125 115.6875 272.734375 117.75 274.359375 C 117.988281 274.546875 118.21875 274.710938 118.441406 274.855469 C 121.328125 276.707031 124.628906 277.546875 127.675781 277.207031 C 130.363281 276.910156 132.875 275.667969 134.691406 273.359375 L 137.441406 269.867188 C 137.933594 269 138.5 268.164062 139.144531 267.359375 C 139.417969 267.019531 139.738281 266.730469 140.089844 266.503906 Z M 144.042969 274.363281 C 143.070312 276.335938 142.714844 278.527344 142.953125 280.65625 C 143.273438 283.550781 144.6875 286.320312 147.121094 288.269531 L 147.113281 288.277344 C 149.535156 290.210938 152.546875 290.980469 155.449219 290.660156 C 158.339844 290.339844 161.109375 288.925781 163.058594 286.492188 L 163.066406 286.5 L 168.476562 279.742188 C 168.628906 279.503906 168.800781 279.289062 168.992188 279.09375 L 170.933594 276.671875 C 172.875 274.246094 173.644531 271.230469 173.324219 268.328125 C 173.003906 265.425781 171.59375 262.65625 169.167969 260.71875 C 166.746094 258.777344 163.730469 258.003906 160.828125 258.328125 C 158.457031 258.589844 156.167969 259.589844 154.347656 261.28125 Z M 133.074219 225.933594 C 133.140625 225.835938 133.210938 225.734375 133.285156 225.640625 L 133.359375 225.546875 C 133.4375 225.449219 133.519531 225.359375 133.601562 225.269531 L 133.609375 225.257812 L 137.9375 219.828125 C 141.925781 214.824219 142.09375 209.523438 140.121094 205.597656 C 139.382812 204.125 138.355469 202.84375 137.128906 201.84375 C 135.917969 200.851562 134.519531 200.132812 133.027344 199.773438 C 129.1875 198.851562 124.492188 200.320312 120.253906 205.636719 L 91.417969 241.828125 L 91.238281 242.0625 C 89.558594 244.292969 88.746094 247.21875 88.980469 250.097656 C 89.203125 252.886719 90.4375 255.601562 92.84375 257.515625 L 92.835938 257.527344 L 92.84375 257.53125 C 93.019531 257.675781 92.761719 257.457031 93.085938 257.703125 C 95.398438 259.445312 98.601562 260.210938 101.726562 259.867188 C 104.5625 259.554688 107.277344 258.304688 109.097656 256.019531 Z M 268.304688 116.367188 C 266.136719 116.699219 263.191406 117.128906 259.699219 117.496094 C 255.757812 117.910156 251.347656 118.199219 247.15625 118.0625 C 240.65625 117.851562 235.046875 116.644531 229.304688 115.410156 C 227.714844 115.066406 226.113281 114.722656 224.277344 114.359375 C 220.601562 113.632812 216.828125 113.019531 212.640625 112.628906 C 208.34375 112.230469 203.5 112.042969 197.71875 112.167969 C 191.628906 112.300781 184.417969 112.796875 177.519531 113.621094 C 171.472656 114.339844 165.804688 115.296875 161.570312 116.449219 C 153.175781 118.738281 150.019531 122.101562 143.25 129.308594 L 142.964844 129.613281 C 135.832031 137.210938 124.988281 148.757812 122.253906 157.347656 C 121.191406 160.6875 121.433594 163.558594 122.445312 165.820312 C 123.613281 168.417969 125.792969 170.261719 128.148438 171.078125 L 128.148438 171.082031 C 130.308594 171.828125 132.710938 171.679688 135.300781 170.804688 C 138.261719 169.800781 141.445312 167.863281 144.78125 165.214844 C 148.289062 162.429688 151.949219 158.875 155.5 155.421875 C 159.296875 151.730469 162.980469 148.152344 166.496094 145.484375 C 170.132812 142.722656 173.390625 141.101562 176.449219 140.050781 C 179.449219 139.019531 182.191406 138.550781 184.929688 138.089844 C 185.8125 137.941406 186.746094 138.089844 187.578125 138.570312 L 187.734375 138.660156 C 207.328125 150.019531 226.921875 161.375 243.675781 172.910156 C 252.117188 178.722656 259.757812 184.515625 267 190.300781 C 273.34375 195.371094 279.410156 200.453125 285.4375 205.539062 C 290.109375 203.300781 294.34375 200.714844 298.230469 197.671875 C 302.230469 194.539062 305.890625 190.90625 309.304688 186.652344 C 304.4375 173.273438 298.945312 160.378906 292.160156 148.371094 C 285.625 136.808594 277.875 126.027344 268.304688 116.367188 Z M 268.304688 116.367188 " fill-opacity="1" fill-rule="nonzero"/></svg>