<svg xmlns="http://www.w3.org/2000/svg" xmlns:xlink="http://www.w3.org/1999/xlink" width="50" zoomAndPan="magnify" viewBox="0 0 375 374.999991" height="60" preserveAspectRatio="xMidYMid meet" version="1.0"><defs><clipPath id="3180fe2036"><path d="M 33.273438 41.40625 L 341.523438 41.40625 L 341.523438 333.90625 L 33.273438 333.90625 Z M 33.273438 41.40625 " clip-rule="nonzero"/></clipPath></defs><g clip-path="url(#3180fe2036)"><path fill="#1a1c3f" d="M 317.875 263.324219 C 303.160156 248.609375 282.847656 239.472656 260.515625 239.472656 L 232.433594 239.472656 C 232.441406 239.101562 232.464844 238.730469 232.464844 238.363281 L 232.464844 224.882812 C 233.683594 223.828125 234.863281 222.722656 236.003906 221.582031 C 239.472656 218.113281 242.582031 214.265625 245.257812 210.125 C 259.316406 208.511719 270.296875 203.609375 273.101562 190.550781 C 277.566406 189.671875 281.5625 187.46875 284.660156 184.367188 C 288.742188 180.289062 291.277344 174.652344 291.277344 168.460938 L 291.277344 143.5 C 291.277344 137.296875 288.742188 131.667969 284.660156 127.589844 L 284.34375 127.296875 C 281.652344 124.707031 278.332031 122.785156 274.644531 121.769531 C 274.652344 121.675781 274.660156 121.589844 274.660156 121.5 C 274.660156 99.4375 265.058594 79.402344 249.589844 64.890625 C 234.191406 50.445312 212.992188 41.488281 189.699219 41.488281 L 185.308594 41.488281 C 162.015625 41.488281 140.816406 50.445312 125.425781 64.890625 C 109.957031 79.402344 100.355469 99.4375 100.355469 121.5 C 100.355469 121.589844 100.363281 121.675781 100.371094 121.769531 C 96.554688 122.816406 93.121094 124.84375 90.375 127.582031 L 90.355469 127.605469 C 86.273438 131.691406 83.738281 137.320312 83.738281 143.5 L 83.738281 168.460938 C 83.738281 174.488281 86.152344 179.988281 90.0625 184.050781 L 90.355469 184.367188 C 94.433594 188.449219 100.0625 190.984375 106.261719 190.984375 C 111.476562 190.984375 116.277344 189.1875 120.105469 186.195312 C 122.773438 199.851562 129.511719 212.097656 139.003906 221.589844 C 140.785156 223.371094 142.660156 225.042969 144.625 226.625 L 144.625 238.378906 C 144.625 238.746094 144.640625 239.117188 144.65625 239.488281 L 114.488281 239.488281 C 92.152344 239.488281 71.847656 248.625 57.132812 263.339844 C 42.414062 278.035156 33.273438 298.347656 33.273438 320.679688 L 33.273438 328.53125 C 33.273438 331.273438 35.503906 333.503906 38.25 333.503906 L 336.75 333.503906 C 339.496094 333.503906 341.722656 331.273438 341.722656 328.53125 L 341.722656 320.679688 C 341.722656 298.347656 332.585938 278.035156 317.875 263.324219 Z M 251.140625 198.78125 C 252.777344 194.753906 254.046875 190.535156 254.894531 186.179688 C 257.1875 187.976562 259.839844 189.34375 262.714844 190.144531 C 260.824219 194.53125 256.683594 197.199219 251.140625 198.78125 Z M 277.613281 134.617188 C 279.894531 136.898438 281.316406 140.035156 281.316406 143.492188 L 281.316406 168.453125 C 281.316406 171.90625 279.894531 175.054688 277.613281 177.328125 C 275.332031 179.609375 272.183594 181.027344 268.730469 181.027344 C 265.273438 181.027344 262.128906 179.609375 259.855469 177.328125 L 259.832031 177.328125 C 257.5625 175.0625 256.152344 171.914062 256.152344 168.453125 L 256.152344 143.492188 C 256.152344 140.019531 257.5625 136.882812 259.832031 134.617188 L 259.855469 134.59375 C 262.121094 132.324219 265.269531 130.914062 268.738281 130.914062 C 272.09375 130.914062 275.152344 132.234375 277.398438 134.375 Z M 132.21875 72.117188 C 145.820312 59.355469 164.605469 51.433594 185.300781 51.433594 L 189.691406 51.433594 C 210.378906 51.433594 229.171875 59.355469 242.773438 72.117188 C 256.261719 84.769531 264.652344 102.195312 264.6875 121.34375 C 261.449219 121.9375 258.449219 123.234375 255.84375 125.070312 C 254.300781 108.75 246.992188 94.046875 235.988281 83.042969 C 223.550781 70.605469 206.375 62.878906 187.492188 62.878906 C 168.605469 62.878906 151.433594 70.605469 138.996094 83.042969 C 127.992188 94.046875 120.683594 108.75 119.140625 125.070312 C 116.535156 123.234375 113.535156 121.9375 110.296875 121.34375 C 110.347656 102.195312 118.730469 84.769531 132.21875 72.117188 Z M 245.757812 124.390625 C 234.035156 124.34375 222.777344 122.839844 212.007812 119.894531 C 199.667969 116.515625 187.894531 111.210938 176.695312 103.984375 C 174.777344 102.753906 172.175781 102.976562 170.503906 104.664062 C 165.546875 109.632812 159.183594 113.773438 151.410156 117.078125 C 145.011719 119.800781 137.648438 121.945312 129.355469 123.535156 C 131.144531 110.570312 137.191406 98.921875 146.042969 90.066406 C 156.6875 79.425781 171.367188 72.816406 187.507812 72.816406 C 203.648438 72.816406 218.328125 79.425781 228.972656 90.066406 C 238.007812 99.113281 244.125 111.089844 245.757812 124.390625 Z M 106.261719 181.027344 C 102.808594 181.027344 99.660156 179.609375 97.386719 177.328125 L 97.15625 177.113281 C 95.011719 174.859375 93.691406 171.804688 93.691406 168.453125 L 93.691406 143.492188 C 93.691406 140.019531 95.105469 136.882812 97.371094 134.617188 L 97.394531 134.59375 C 99.660156 132.324219 102.808594 130.914062 106.277344 130.914062 C 109.746094 130.914062 112.886719 132.324219 115.152344 134.59375 L 115.152344 134.617188 C 117.4375 136.898438 118.855469 140.035156 118.855469 143.492188 L 118.855469 168.453125 C 118.855469 171.90625 117.4375 175.054688 115.152344 177.328125 C 112.863281 179.609375 109.714844 181.027344 106.261719 181.027344 Z M 128.785156 173.085938 L 128.785156 133.742188 C 138.757812 131.992188 147.59375 129.488281 155.28125 126.210938 C 162.808594 123.011719 169.246094 119.0625 174.605469 114.390625 C 185.640625 121.097656 197.238281 126.125 209.398438 129.449219 C 221.183594 132.671875 233.449219 134.292969 246.214844 134.300781 L 246.214844 173.078125 C 246.214844 183.019531 243.699219 192.394531 239.296875 200.625 C 231.65625 201.132812 222.980469 200.816406 214.441406 200.492188 L 212.699219 200.429688 C 211.921875 197.878906 210.546875 195.589844 208.746094 193.738281 C 205.820312 190.746094 201.78125 188.886719 197.339844 188.886719 C 192.898438 188.886719 188.855469 190.738281 185.933594 193.738281 C 183.050781 196.691406 181.261719 200.761719 181.261719 205.242188 C 181.261719 209.722656 183.050781 213.792969 185.933594 216.746094 C 188.855469 219.738281 192.898438 221.597656 197.339844 221.597656 C 201.78125 221.597656 205.820312 219.746094 208.746094 216.746094 C 210.480469 214.964844 211.804688 212.785156 212.601562 210.355469 L 214.097656 210.410156 C 220.234375 210.640625 226.425781 210.871094 232.378906 210.824219 C 231.292969 212.113281 230.160156 213.363281 228.972656 214.558594 C 218.328125 225.199219 203.648438 231.808594 187.507812 231.808594 C 177.707031 231.808594 168.453125 229.363281 160.308594 225.066406 C 157.609375 223.601562 155.042969 221.921875 152.636719 220.054688 C 152.3125 219.808594 151.964844 219.609375 151.613281 219.445312 C 149.660156 217.925781 147.792969 216.300781 146.042969 214.558594 C 135.394531 203.910156 128.785156 189.226562 128.785156 173.085938 Z M 203.460938 205.242188 C 203.460938 207.046875 202.761719 208.675781 201.625 209.832031 C 200.53125 210.957031 199.003906 211.652344 197.324219 211.652344 C 195.644531 211.652344 194.117188 210.957031 193.019531 209.832031 C 191.886719 208.675781 191.1875 207.046875 191.1875 205.242188 C 191.1875 203.4375 191.886719 201.8125 193.019531 200.652344 C 194.117188 199.527344 195.644531 198.835938 197.324219 198.835938 C 199.003906 198.835938 200.53125 199.527344 201.625 200.652344 C 202.761719 201.8125 203.460938 203.4375 203.460938 205.242188 Z M 159.378906 235.6875 C 161.398438 236.621094 163.464844 237.46875 165.585938 238.191406 C 171.90625 240.367188 178.664062 241.585938 185.664062 241.714844 C 185.734375 241.714844 185.804688 241.714844 185.871094 241.722656 C 186.203125 241.730469 186.527344 241.746094 186.859375 241.746094 L 190.207031 241.746094 C 197.632812 241.746094 204.796875 240.5 211.488281 238.199219 C 215.320312 236.882812 219.007812 235.207031 222.5 233.226562 L 222.5 238.363281 C 222.5 247.414062 218.792969 255.644531 212.824219 261.613281 C 206.855469 267.578125 198.621094 271.289062 189.574219 271.289062 L 187.5 271.289062 C 178.445312 271.289062 170.21875 267.578125 164.25 261.613281 C 158.28125 255.644531 154.574219 247.40625 154.574219 238.363281 L 154.574219 233.28125 C 156.136719 234.136719 157.742188 234.945312 159.378906 235.6875 Z M 43.222656 320.679688 C 43.222656 301.085938 51.242188 283.273438 64.160156 270.347656 C 77.074219 257.433594 94.894531 249.414062 114.488281 249.414062 L 146.089844 249.414062 C 148.074219 256.785156 151.964844 263.386719 157.21875 268.636719 C 163.871094 275.292969 172.710938 279.777344 182.527344 280.929688 L 182.527344 323.546875 L 43.222656 323.546875 Z M 331.777344 323.554688 L 192.472656 323.554688 L 192.472656 281.128906 C 203.121094 280.410156 212.738281 275.777344 219.863281 268.644531 C 225.113281 263.394531 229.007812 256.785156 230.992188 249.421875 L 260.511719 249.421875 C 280.105469 249.421875 297.917969 257.441406 310.832031 270.355469 C 323.75 283.273438 331.769531 301.09375 331.769531 320.6875 L 331.769531 323.554688 Z M 331.777344 323.554688 " fill-opacity="1" fill-rule="nonzero"/></g></svg>