<svg xmlns="http://www.w3.org/2000/svg" width="38" height="48" viewBox="0 0 50 49">
  <path id="box-seam" d="M20.564,2.68a1.256,1.256,0,0,0-.934,0l-14.992,6,6.039,2.414L26.136,4.908,20.564,2.68Zm8.953,3.582L14.058,12.444,20.1,14.858,35.556,8.676Zm8.164,4.271L21.353,17.064v19.9l16.328-6.531v-19.9ZM18.841,36.967V17.061L2.512,10.533v19.9l16.328,6.531ZM18.7.346a3.768,3.768,0,0,1,2.8,0L39.4,7.511a1.256,1.256,0,0,1,.789,1.166v21.76a2.512,2.512,0,0,1-1.58,2.331l-18.049,7.22a1.256,1.256,0,0,1-.934,0L1.583,32.767A2.512,2.512,0,0,1,0,30.436V8.676A1.256,1.256,0,0,1,.789,7.511Z" transform="translate(0 -0.077)" fill="#1a1c3f" fill-rule="evenodd"></path>
</svg>
