<svg xmlns="http://www.w3.org/2000/svg" xmlns:xlink="http://www.w3.org/1999/xlink" width="50" zoomAndPan="magnify" viewBox="0 0 375 374.999991" height="60" preserveAspectRatio="xMidYMid meet" version="1.0"><defs><clipPath id="042adfaa2a"><path d="M 48.199219 48.199219 L 326.449219 48.199219 L 326.449219 326.449219 L 48.199219 326.449219 Z M 48.199219 48.199219 " clip-rule="nonzero"/></clipPath></defs><g clip-path="url(#042adfaa2a)"><path fill="#1a1c3f" d="M 310.914062 154.238281 C 310.082031 149.578125 310.003906 144.898438 310.675781 140.210938 C 311.300781 132.488281 311.945312 124.496094 307.996094 117.683594 C 303.992188 110.761719 296.671875 107.316406 289.621094 103.976562 C 285.292969 102.257812 281.34375 99.902344 277.773438 96.910156 C 274.78125 93.339844 272.425781 89.390625 270.710938 85.058594 C 267.378906 77.996094 263.929688 70.691406 257.003906 66.691406 C 250.1875 62.742188 242.195312 63.386719 234.472656 64.007812 C 229.785156 64.683594 225.109375 64.601562 220.445312 63.773438 C 216.179688 62.207031 212.269531 60.011719 208.707031 57.1875 C 202.546875 52.914062 195.539062 48.050781 187.351562 48.050781 C 179.160156 48.050781 172.152344 52.914062 165.976562 57.203125 C 162.417969 60.027344 158.503906 62.222656 154.238281 63.789062 C 149.574219 64.617188 144.898438 64.695312 140.210938 64.019531 C 132.484375 63.398438 124.496094 62.753906 117.683594 66.703125 C 110.761719 70.707031 107.316406 78.023438 103.976562 85.074219 C 102.257812 89.40625 99.902344 93.355469 96.910156 96.925781 C 93.339844 99.917969 89.390625 102.273438 85.058594 103.988281 C 77.996094 107.320312 70.691406 110.765625 66.691406 117.695312 C 62.746094 124.511719 63.390625 132.503906 64.007812 140.230469 C 64.683594 144.917969 64.601562 149.59375 63.773438 154.257812 C 62.207031 158.523438 60.011719 162.433594 57.191406 165.996094 C 52.914062 172.152344 48.050781 179.160156 48.050781 187.351562 C 48.050781 195.539062 52.914062 202.546875 57.207031 208.722656 C 60.027344 212.285156 62.222656 216.195312 63.789062 220.460938 C 64.617188 225.125 64.695312 229.796875 64.019531 234.484375 C 63.398438 242.210938 62.753906 250.199219 66.703125 257.019531 C 70.707031 263.9375 78.023438 267.382812 85.074219 270.726562 C 89.402344 272.441406 93.355469 274.796875 96.925781 277.785156 C 99.914062 281.359375 102.269531 285.308594 103.988281 289.636719 C 107.320312 296.703125 110.765625 304.003906 117.695312 308.011719 C 124.511719 311.953125 132.503906 311.308594 140.230469 310.691406 C 144.917969 310.019531 149.59375 310.097656 154.257812 310.925781 C 158.523438 312.492188 162.433594 314.683594 165.996094 317.507812 C 172.175781 321.800781 179.179688 326.664062 187.367188 326.664062 C 195.554688 326.664062 202.5625 321.800781 208.742188 317.507812 C 212.300781 314.683594 216.210938 312.492188 220.476562 310.925781 C 225.140625 310.09375 229.816406 310.015625 234.503906 310.691406 C 242.230469 311.3125 250.222656 311.960938 257.035156 308.011719 C 263.953125 304.007812 267.402344 296.6875 270.742188 289.636719 C 272.460938 285.308594 274.816406 281.359375 277.804688 277.789062 C 281.375 274.796875 285.324219 272.441406 289.65625 270.726562 C 296.71875 267.394531 304.023438 263.945312 308.027344 257.019531 C 311.96875 250.203125 311.328125 242.210938 310.710938 234.484375 C 310.035156 229.796875 310.113281 225.121094 310.945312 220.460938 C 312.507812 216.195312 314.703125 212.28125 317.527344 208.722656 C 321.816406 202.539062 326.683594 195.539062 326.683594 187.351562 C 326.683594 179.160156 321.816406 172.152344 317.527344 165.976562 C 314.691406 162.417969 312.488281 158.507812 310.914062 154.238281 Z M 308.921875 202.773438 C 305.363281 207.304688 302.667969 212.304688 300.832031 217.765625 C 299.644531 223.585938 299.460938 229.441406 300.28125 235.324219 C 300.800781 241.738281 301.289062 247.796875 298.976562 251.796875 C 296.589844 255.894531 291.050781 258.515625 285.179688 261.28125 C 279.730469 263.476562 274.808594 266.515625 270.40625 270.40625 C 266.515625 274.808594 263.476562 279.730469 261.28125 285.179688 C 258.515625 291.050781 255.894531 296.605469 251.796875 298.976562 C 247.796875 301.289062 241.734375 300.796875 235.324219 300.285156 C 229.441406 299.460938 223.585938 299.648438 217.765625 300.835938 C 212.304688 302.671875 207.304688 305.371094 202.773438 308.925781 C 197.375 312.679688 192.273438 316.222656 187.351562 316.222656 C 182.425781 316.222656 177.328125 312.679688 171.925781 308.925781 C 167.390625 305.371094 162.394531 302.671875 156.929688 300.835938 C 154.023438 300.105469 151.070312 299.765625 148.070312 299.8125 C 145.167969 299.8125 142.25 300.046875 139.375 300.28125 C 132.960938 300.796875 126.902344 301.289062 122.902344 298.976562 C 118.800781 296.589844 116.1875 291.050781 113.414062 285.179688 C 111.222656 279.730469 108.179688 274.804688 104.292969 270.40625 C 99.890625 266.515625 94.96875 263.476562 89.519531 261.28125 C 83.65625 258.515625 78.097656 255.882812 75.722656 251.796875 C 73.410156 247.796875 73.902344 241.738281 74.417969 235.324219 C 75.234375 229.4375 75.050781 223.585938 73.863281 217.765625 C 72.03125 212.304688 69.335938 207.304688 65.777344 202.773438 C 62.019531 197.375 58.476562 192.273438 58.476562 187.351562 C 58.476562 182.425781 62.019531 177.328125 65.773438 171.925781 C 69.332031 167.390625 72.027344 162.394531 73.863281 156.929688 C 75.050781 151.109375 75.238281 145.261719 74.417969 139.378906 C 73.902344 132.960938 73.414062 126.902344 75.726562 122.90625 C 78.113281 118.804688 83.648438 116.1875 89.519531 113.417969 C 94.96875 111.226562 99.894531 108.183594 104.296875 104.292969 C 108.183594 99.894531 111.222656 94.96875 113.417969 89.523438 C 116.1875 83.648438 118.808594 78.097656 122.910156 75.726562 C 126.902344 73.414062 132.964844 73.898438 139.378906 74.417969 C 145.261719 75.234375 151.113281 75.050781 156.933594 73.867188 C 162.394531 72.03125 167.390625 69.335938 171.925781 65.777344 C 177.328125 62.019531 182.425781 58.476562 187.351562 58.476562 C 192.273438 58.476562 197.375 62.019531 202.773438 65.769531 C 207.304688 69.328125 212.304688 72.027344 217.765625 73.863281 C 223.585938 75.054688 229.4375 75.238281 235.324219 74.417969 C 241.738281 73.902344 247.800781 73.414062 251.796875 75.726562 C 255.894531 78.113281 258.515625 83.648438 261.28125 89.519531 C 263.476562 94.96875 266.515625 99.894531 270.40625 104.296875 C 274.808594 108.183594 279.734375 111.222656 285.179688 113.417969 C 291.050781 116.1875 296.605469 118.808594 298.976562 122.910156 C 301.289062 126.90625 300.800781 132.960938 300.285156 139.378906 C 299.464844 145.261719 299.648438 151.113281 300.835938 156.933594 C 302.671875 162.394531 305.371094 167.394531 308.925781 171.925781 C 312.679688 177.328125 316.222656 182.429688 316.222656 187.351562 C 316.222656 192.277344 312.679688 197.375 308.921875 202.773438 Z M 308.921875 202.773438 " fill-opacity="1" fill-rule="nonzero"/></g><path fill="#1a1c3f" d="M 187.351562 90.960938 C 185.773438 90.960938 184.195312 91 182.621094 91.074219 C 181.042969 91.152344 179.472656 91.269531 177.902344 91.425781 C 176.332031 91.578125 174.765625 91.773438 173.207031 92.003906 C 171.644531 92.234375 170.09375 92.503906 168.542969 92.8125 C 166.996094 93.121094 165.457031 93.464844 163.929688 93.847656 C 162.398438 94.230469 160.878906 94.652344 159.367188 95.109375 C 157.859375 95.566406 156.363281 96.0625 154.875 96.59375 C 153.390625 97.125 151.917969 97.695312 150.460938 98.296875 C 149.003906 98.902344 147.5625 99.539062 146.136719 100.214844 C 144.710938 100.890625 143.300781 101.597656 141.910156 102.339844 C 140.519531 103.085938 139.148438 103.863281 137.792969 104.671875 C 136.441406 105.484375 135.109375 106.328125 133.796875 107.203125 C 132.484375 108.082031 131.195312 108.988281 129.929688 109.929688 C 128.660156 110.867188 127.417969 111.839844 126.199219 112.839844 C 124.980469 113.839844 123.785156 114.871094 122.617188 115.929688 C 121.449219 116.988281 120.304688 118.078125 119.191406 119.191406 C 118.074219 120.308594 116.988281 121.449219 115.925781 122.617188 C 114.867188 123.789062 113.839844 124.980469 112.835938 126.203125 C 111.835938 127.421875 110.867188 128.664062 109.925781 129.929688 C 108.988281 131.199219 108.078125 132.488281 107.203125 133.800781 C 106.324219 135.109375 105.480469 136.445312 104.671875 137.796875 C 103.859375 139.148438 103.082031 140.523438 102.339844 141.914062 C 101.59375 143.304688 100.886719 144.714844 100.210938 146.140625 C 99.539062 147.566406 98.898438 149.007812 98.292969 150.464844 C 97.691406 151.921875 97.125 153.394531 96.589844 154.878906 C 96.058594 156.363281 95.566406 157.863281 95.109375 159.371094 C 94.648438 160.882812 94.230469 162.402344 93.847656 163.929688 C 93.460938 165.460938 93.117188 167 92.808594 168.546875 C 92.5 170.09375 92.230469 171.648438 92 173.210938 C 91.769531 174.769531 91.574219 176.335938 91.421875 177.90625 C 91.265625 179.476562 91.152344 181.046875 91.074219 182.625 C 90.996094 184.199219 90.957031 185.777344 90.957031 187.351562 C 90.957031 188.929688 90.996094 190.507812 91.074219 192.082031 C 91.152344 193.660156 91.265625 195.230469 91.421875 196.800781 C 91.574219 198.371094 91.769531 199.9375 92 201.496094 C 92.230469 203.058594 92.5 204.613281 92.808594 206.160156 C 93.117188 207.707031 93.460938 209.246094 93.847656 210.773438 C 94.230469 212.304688 94.648438 213.824219 95.109375 215.335938 C 95.566406 216.84375 96.0625 218.34375 96.59375 219.828125 C 97.125 221.3125 97.691406 222.785156 98.292969 224.242188 C 98.898438 225.699219 99.539062 227.140625 100.210938 228.566406 C 100.886719 229.992188 101.597656 231.402344 102.339844 232.792969 C 103.082031 234.183594 103.859375 235.558594 104.671875 236.910156 C 105.484375 238.261719 106.328125 239.59375 107.203125 240.90625 C 108.078125 242.21875 108.988281 243.507812 109.925781 244.773438 C 110.867188 246.042969 111.835938 247.285156 112.839844 248.503906 C 113.839844 249.722656 114.867188 250.917969 115.929688 252.085938 C 116.988281 253.257812 118.074219 254.398438 119.191406 255.515625 C 120.304688 256.628906 121.449219 257.71875 122.617188 258.777344 C 123.785156 259.835938 124.980469 260.867188 126.199219 261.867188 C 127.417969 262.867188 128.664062 263.835938 129.929688 264.777344 C 131.195312 265.71875 132.488281 266.625 133.796875 267.5 C 135.109375 268.378906 136.441406 269.222656 137.796875 270.03125 C 139.148438 270.84375 140.519531 271.621094 141.914062 272.363281 C 143.304688 273.109375 144.710938 273.816406 146.136719 274.492188 C 147.5625 275.167969 149.007812 275.804688 150.464844 276.410156 C 151.921875 277.011719 153.390625 277.582031 154.878906 278.113281 C 156.363281 278.644531 157.859375 279.136719 159.371094 279.597656 C 160.878906 280.054688 162.398438 280.472656 163.929688 280.859375 C 165.460938 281.242188 167 281.585938 168.546875 281.894531 C 170.09375 282.203125 171.648438 282.472656 173.207031 282.703125 C 174.769531 282.933594 176.332031 283.128906 177.902344 283.28125 C 179.472656 283.4375 181.046875 283.554688 182.621094 283.628906 C 184.199219 283.707031 185.773438 283.746094 187.351562 283.746094 C 188.929688 283.746094 190.507812 283.707031 192.082031 283.628906 C 193.65625 283.550781 195.230469 283.4375 196.800781 283.28125 C 198.371094 283.128906 199.933594 282.933594 201.496094 282.703125 C 203.054688 282.472656 204.609375 282.203125 206.15625 281.894531 C 207.703125 281.585938 209.242188 281.242188 210.773438 280.855469 C 212.304688 280.472656 213.824219 280.054688 215.332031 279.59375 C 216.84375 279.136719 218.339844 278.640625 219.824219 278.109375 C 221.3125 277.578125 222.78125 277.011719 224.242188 276.40625 C 225.699219 275.804688 227.140625 275.164062 228.566406 274.492188 C 229.992188 273.816406 231.398438 273.105469 232.792969 272.363281 C 234.183594 271.621094 235.554688 270.84375 236.90625 270.03125 C 238.261719 269.21875 239.59375 268.375 240.90625 267.5 C 242.21875 266.625 243.507812 265.714844 244.773438 264.773438 C 246.039062 263.835938 247.285156 262.867188 248.503906 261.863281 C 249.722656 260.863281 250.917969 259.832031 252.085938 258.773438 C 253.253906 257.714844 254.398438 256.628906 255.511719 255.511719 C 256.628906 254.394531 257.714844 253.253906 258.773438 252.085938 C 259.832031 250.914062 260.863281 249.722656 261.863281 248.503906 C 262.867188 247.28125 263.835938 246.039062 264.773438 244.773438 C 265.714844 243.503906 266.625 242.214844 267.5 240.902344 C 268.375 239.59375 269.21875 238.261719 270.03125 236.90625 C 270.839844 235.554688 271.617188 234.179688 272.363281 232.789062 C 273.105469 231.398438 273.816406 229.988281 274.488281 228.5625 C 275.164062 227.136719 275.804688 225.695312 276.40625 224.238281 C 277.011719 222.78125 277.578125 221.308594 278.109375 219.824219 C 278.640625 218.339844 279.136719 216.839844 279.59375 215.332031 C 280.050781 213.820312 280.472656 212.300781 280.855469 210.773438 C 281.238281 209.242188 281.582031 207.703125 281.890625 206.15625 C 282.199219 204.609375 282.46875 203.054688 282.699219 201.492188 C 282.933594 199.933594 283.125 198.367188 283.28125 196.796875 C 283.433594 195.226562 283.550781 193.65625 283.628906 192.078125 C 283.703125 190.503906 283.742188 188.925781 283.742188 187.351562 C 283.742188 185.773438 283.699219 184.195312 283.621094 182.621094 C 283.542969 181.046875 283.425781 179.476562 283.269531 177.90625 C 283.113281 176.335938 282.917969 174.773438 282.683594 173.210938 C 282.453125 171.652344 282.179688 170.097656 281.871094 168.554688 C 281.5625 167.007812 281.214844 165.46875 280.832031 163.9375 C 280.449219 162.410156 280.027344 160.890625 279.566406 159.382812 C 279.109375 157.871094 278.613281 156.375 278.082031 154.890625 C 277.546875 153.40625 276.980469 151.9375 276.375 150.480469 C 275.769531 149.023438 275.132812 147.582031 274.457031 146.15625 C 273.78125 144.730469 273.070312 143.324219 272.328125 141.933594 C 271.582031 140.542969 270.804688 139.171875 269.996094 137.820312 C 269.183594 136.46875 268.339844 135.136719 267.464844 133.824219 C 266.585938 132.511719 265.679688 131.226562 264.738281 129.957031 C 263.800781 128.691406 262.828125 127.449219 261.828125 126.230469 C 260.828125 125.011719 259.796875 123.816406 258.738281 122.648438 C 257.679688 121.480469 256.59375 120.339844 255.476562 119.222656 C 254.363281 118.109375 253.21875 117.023438 252.050781 115.960938 C 250.882812 114.902344 249.691406 113.875 248.46875 112.871094 C 247.25 111.871094 246.007812 110.902344 244.742188 109.960938 C 243.476562 109.023438 242.1875 108.113281 240.875 107.238281 C 239.566406 106.363281 238.234375 105.519531 236.882812 104.707031 C 235.527344 103.894531 234.15625 103.117188 232.765625 102.375 C 231.375 101.628906 229.96875 100.921875 228.542969 100.246094 C 227.117188 99.570312 225.675781 98.929688 224.21875 98.328125 C 222.765625 97.722656 221.292969 97.152344 219.808594 96.621094 C 218.324219 96.089844 216.828125 95.59375 215.320312 95.136719 C 213.808594 94.675781 212.289062 94.253906 210.761719 93.871094 C 209.230469 93.484375 207.695312 93.140625 206.148438 92.832031 C 204.601562 92.519531 203.046875 92.25 201.488281 92.015625 C 199.929688 91.785156 198.363281 91.589844 196.792969 91.433594 C 195.226562 91.277344 193.652344 91.160156 192.078125 91.082031 C 190.503906 91.003906 188.925781 90.960938 187.351562 90.960938 Z M 187.351562 273.316406 C 185.941406 273.316406 184.539062 273.28125 183.132812 273.214844 C 181.726562 273.144531 180.324219 273.042969 178.925781 272.902344 C 177.523438 272.765625 176.128906 272.59375 174.738281 272.386719 C 173.34375 272.179688 171.960938 271.941406 170.578125 271.664062 C 169.199219 271.390625 167.828125 271.082031 166.460938 270.742188 C 165.097656 270.398438 163.742188 270.023438 162.394531 269.617188 C 161.050781 269.207031 159.714844 268.765625 158.390625 268.292969 C 157.066406 267.816406 155.753906 267.3125 154.453125 266.773438 C 153.152344 266.234375 151.867188 265.664062 150.59375 265.0625 C 149.324219 264.460938 148.066406 263.828125 146.828125 263.167969 C 145.585938 262.503906 144.363281 261.808594 143.15625 261.085938 C 141.949219 260.363281 140.761719 259.609375 139.589844 258.828125 C 138.421875 258.046875 137.269531 257.238281 136.140625 256.398438 C 135.011719 255.5625 133.902344 254.695312 132.816406 253.804688 C 131.726562 252.910156 130.664062 251.992188 129.621094 251.046875 C 128.578125 250.101562 127.558594 249.132812 126.5625 248.136719 C 125.570312 247.144531 124.597656 246.125 123.65625 245.082031 C 122.710938 244.039062 121.792969 242.976562 120.898438 241.886719 C 120.007812 240.800781 119.140625 239.691406 118.304688 238.5625 C 117.464844 237.429688 116.65625 236.28125 115.875 235.113281 C 115.09375 233.941406 114.339844 232.753906 113.617188 231.546875 C 112.894531 230.339844 112.199219 229.117188 111.535156 227.875 C 110.875 226.636719 110.242188 225.378906 109.640625 224.105469 C 109.039062 222.835938 108.46875 221.550781 107.929688 220.25 C 107.390625 218.949219 106.886719 217.636719 106.410156 216.3125 C 105.9375 214.988281 105.496094 213.652344 105.085938 212.308594 C 104.679688 210.960938 104.304688 209.605469 103.960938 208.242188 C 103.621094 206.875 103.3125 205.503906 103.039062 204.125 C 102.761719 202.742188 102.523438 201.359375 102.316406 199.964844 C 102.109375 198.574219 101.9375 197.179688 101.800781 195.777344 C 101.660156 194.378906 101.558594 192.976562 101.488281 191.570312 C 101.421875 190.164062 101.386719 188.761719 101.386719 187.351562 C 101.386719 185.945312 101.421875 184.539062 101.488281 183.136719 C 101.558594 181.730469 101.660156 180.328125 101.800781 178.925781 C 101.9375 177.527344 102.109375 176.132812 102.316406 174.738281 C 102.523438 173.347656 102.761719 171.960938 103.039062 170.582031 C 103.3125 169.203125 103.621094 167.832031 103.960938 166.464844 C 104.304688 165.101562 104.679688 163.746094 105.085938 162.398438 C 105.496094 161.054688 105.9375 159.71875 106.410156 158.394531 C 106.882812 157.070312 107.390625 155.757812 107.929688 154.457031 C 108.46875 153.15625 109.039062 151.871094 109.640625 150.597656 C 110.242188 149.328125 110.871094 148.070312 111.535156 146.832031 C 112.199219 145.589844 112.890625 144.367188 113.617188 143.160156 C 114.339844 141.953125 115.089844 140.765625 115.871094 139.59375 C 116.65625 138.425781 117.464844 137.273438 118.300781 136.144531 C 119.140625 135.015625 120.003906 133.90625 120.898438 132.820312 C 121.789062 131.730469 122.710938 130.667969 123.652344 129.625 C 124.597656 128.582031 125.570312 127.5625 126.5625 126.566406 C 127.558594 125.574219 128.578125 124.601562 129.617188 123.660156 C 130.660156 122.714844 131.726562 121.796875 132.8125 120.902344 C 133.902344 120.011719 135.011719 119.144531 136.140625 118.308594 C 137.269531 117.46875 138.417969 116.660156 139.589844 115.878906 C 140.757812 115.09375 141.949219 114.34375 143.152344 113.621094 C 144.359375 112.898438 145.585938 112.203125 146.824219 111.539062 C 148.066406 110.875 149.324219 110.246094 150.59375 109.644531 C 151.867188 109.042969 153.152344 108.472656 154.453125 107.933594 C 155.75 107.394531 157.0625 106.886719 158.386719 106.414062 C 159.710938 105.941406 161.046875 105.5 162.394531 105.089844 C 163.742188 104.683594 165.097656 104.308594 166.460938 103.964844 C 167.824219 103.625 169.199219 103.316406 170.578125 103.039062 C 171.957031 102.765625 173.34375 102.527344 174.734375 102.320312 C 176.125 102.113281 177.523438 101.941406 178.921875 101.804688 C 180.324219 101.664062 181.726562 101.5625 183.128906 101.492188 C 184.535156 101.421875 185.941406 101.390625 187.347656 101.390625 C 188.753906 101.390625 190.160156 101.421875 191.566406 101.492188 C 192.972656 101.5625 194.375 101.664062 195.773438 101.800781 C 197.175781 101.941406 198.570312 102.113281 199.960938 102.320312 C 201.351562 102.523438 202.738281 102.765625 204.117188 103.039062 C 205.5 103.316406 206.871094 103.621094 208.234375 103.964844 C 209.601562 104.304688 210.957031 104.679688 212.300781 105.089844 C 213.648438 105.5 214.984375 105.9375 216.308594 106.414062 C 217.632812 106.886719 218.945312 107.394531 220.246094 107.929688 C 221.546875 108.46875 222.832031 109.039062 224.101562 109.640625 C 225.375 110.242188 226.628906 110.875 227.871094 111.539062 C 229.113281 112.203125 230.335938 112.894531 231.542969 113.617188 C 232.75 114.339844 233.9375 115.09375 235.105469 115.875 C 236.277344 116.65625 237.425781 117.464844 238.558594 118.304688 C 239.6875 119.140625 240.796875 120.007812 241.882812 120.898438 C 242.972656 121.792969 244.035156 122.710938 245.078125 123.65625 C 246.121094 124.601562 247.140625 125.570312 248.132812 126.566406 C 249.128906 127.558594 250.097656 128.578125 251.042969 129.621094 C 251.988281 130.664062 252.90625 131.726562 253.800781 132.816406 C 254.691406 133.902344 255.558594 135.011719 256.394531 136.140625 C 257.234375 137.273438 258.042969 138.421875 258.824219 139.589844 C 259.605469 140.761719 260.359375 141.949219 261.082031 143.15625 C 261.804688 144.363281 262.5 145.585938 263.164062 146.828125 C 263.824219 148.066406 264.457031 149.324219 265.058594 150.597656 C 265.660156 151.867188 266.230469 153.152344 266.769531 154.453125 C 267.308594 155.753906 267.8125 157.066406 268.289062 158.390625 C 268.761719 159.714844 269.203125 161.050781 269.613281 162.394531 C 270.019531 163.742188 270.394531 165.097656 270.738281 166.460938 C 271.078125 167.828125 271.386719 169.199219 271.660156 170.578125 C 271.9375 171.960938 272.175781 173.34375 272.382812 174.738281 C 272.589844 176.128906 272.761719 177.523438 272.898438 178.925781 C 273.039062 180.324219 273.140625 181.726562 273.210938 183.132812 C 273.28125 184.539062 273.3125 185.941406 273.3125 187.351562 C 273.3125 188.757812 273.277344 190.160156 273.207031 191.566406 C 273.136719 192.972656 273.03125 194.375 272.890625 195.773438 C 272.753906 197.171875 272.578125 198.566406 272.371094 199.957031 C 272.164062 201.351562 271.921875 202.734375 271.644531 204.113281 C 271.371094 205.492188 271.0625 206.863281 270.71875 208.230469 C 270.375 209.59375 270 210.949219 269.589844 212.292969 C 269.179688 213.640625 268.738281 214.972656 268.265625 216.296875 C 267.789062 217.621094 267.285156 218.933594 266.746094 220.230469 C 266.207031 221.53125 265.636719 222.816406 265.03125 224.085938 C 264.429688 225.359375 263.796875 226.613281 263.136719 227.855469 C 262.472656 229.09375 261.777344 230.316406 261.054688 231.523438 C 260.332031 232.730469 259.578125 233.917969 258.796875 235.085938 C 258.015625 236.253906 257.203125 237.40625 256.367188 238.535156 C 255.527344 239.664062 254.664062 240.773438 253.769531 241.859375 C 252.878906 242.945312 251.960938 244.011719 251.015625 245.050781 C 250.070312 246.09375 249.101562 247.113281 248.105469 248.105469 C 247.113281 249.101562 246.09375 250.070312 245.050781 251.015625 C 244.011719 251.960938 242.945312 252.878906 241.859375 253.769531 C 240.773438 254.664062 239.664062 255.527344 238.535156 256.367188 C 237.40625 257.203125 236.253906 258.015625 235.085938 258.796875 C 233.917969 259.578125 232.730469 260.332031 231.523438 261.054688 C 230.316406 261.777344 229.09375 262.472656 227.855469 263.136719 C 226.613281 263.796875 225.359375 264.429688 224.085938 265.03125 C 222.816406 265.636719 221.53125 266.207031 220.230469 266.746094 C 218.933594 267.285156 217.621094 267.789062 216.296875 268.265625 C 214.972656 268.738281 213.640625 269.179688 212.292969 269.589844 C 210.949219 270 209.59375 270.375 208.230469 270.71875 C 206.863281 271.0625 205.492188 271.371094 204.113281 271.644531 C 202.734375 271.921875 201.351562 272.164062 199.957031 272.371094 C 198.566406 272.578125 197.171875 272.753906 195.773438 272.890625 C 194.375 273.03125 192.972656 273.136719 191.566406 273.207031 C 190.160156 273.277344 188.757812 273.3125 187.351562 273.3125 Z M 187.351562 273.316406 " fill-opacity="1" fill-rule="nonzero"/><path fill="#1a1c3f" d="M 231.054688 142.855469 C 228.78125 142.847656 226.59375 143.28125 224.492188 144.152344 C 222.390625 145.019531 220.539062 146.261719 218.933594 147.875 L 176.324219 190.484375 L 155.765625 169.90625 C 155.371094 169.503906 154.953125 169.125 154.523438 168.765625 C 154.089844 168.402344 153.636719 168.066406 153.171875 167.75 C 152.703125 167.433594 152.222656 167.140625 151.726562 166.871094 C 151.230469 166.601562 150.722656 166.359375 150.203125 166.140625 C 149.683594 165.921875 149.15625 165.730469 148.617188 165.5625 C 148.078125 165.398438 147.53125 165.257812 146.980469 165.144531 C 146.429688 165.03125 145.871094 164.949219 145.308594 164.890625 C 144.75 164.832031 144.1875 164.800781 143.625 164.800781 C 143.058594 164.796875 142.496094 164.824219 141.9375 164.878906 C 141.375 164.929688 140.816406 165.011719 140.265625 165.121094 C 139.710938 165.230469 139.164062 165.363281 138.625 165.527344 C 138.085938 165.691406 137.554688 165.878906 137.03125 166.09375 C 136.511719 166.308594 136.003906 166.546875 135.503906 166.8125 C 135.007812 167.078125 134.523438 167.367188 134.054688 167.679688 C 133.585938 167.992188 133.132812 168.328125 132.695312 168.6875 C 132.261719 169.042969 131.84375 169.421875 131.445312 169.820312 C 131.046875 170.21875 130.667969 170.636719 130.3125 171.074219 C 129.953125 171.507812 129.617188 171.960938 129.304688 172.429688 C 128.992188 172.898438 128.703125 173.382812 128.441406 173.882812 C 128.175781 174.378906 127.933594 174.886719 127.71875 175.410156 C 127.503906 175.929688 127.316406 176.460938 127.15625 177 C 126.992188 177.542969 126.855469 178.089844 126.75 178.640625 C 126.640625 179.195312 126.558594 179.75 126.507812 180.3125 C 126.453125 180.875 126.425781 181.4375 126.429688 182 C 126.433594 182.566406 126.460938 183.125 126.519531 183.6875 C 126.578125 184.25 126.664062 184.804688 126.773438 185.359375 C 126.886719 185.910156 127.027344 186.457031 127.195312 186.992188 C 127.359375 187.53125 127.554688 188.0625 127.773438 188.582031 C 127.992188 189.101562 128.234375 189.609375 128.503906 190.105469 C 128.773438 190.601562 129.066406 191.082031 129.382812 191.546875 C 129.699219 192.015625 130.035156 192.464844 130.398438 192.898438 C 130.757812 193.332031 131.140625 193.746094 131.539062 194.140625 L 164.230469 226.828125 C 164.628906 227.226562 165.042969 227.601562 165.476562 227.957031 C 165.910156 228.3125 166.359375 228.648438 166.828125 228.957031 C 167.292969 229.269531 167.773438 229.558594 168.269531 229.824219 C 168.761719 230.085938 169.269531 230.328125 169.789062 230.542969 C 170.304688 230.757812 170.832031 230.945312 171.371094 231.109375 C 171.90625 231.269531 172.449219 231.40625 173 231.515625 C 173.550781 231.625 174.105469 231.707031 174.664062 231.765625 C 175.222656 231.820312 175.78125 231.847656 176.34375 231.847656 C 176.902344 231.847656 177.464844 231.820312 178.023438 231.765625 C 178.582031 231.707031 179.136719 231.625 179.683594 231.515625 C 180.234375 231.40625 180.777344 231.269531 181.316406 231.109375 C 181.851562 230.945312 182.378906 230.757812 182.898438 230.542969 C 183.417969 230.328125 183.921875 230.085938 184.417969 229.824219 C 184.914062 229.558594 185.394531 229.269531 185.859375 228.957031 C 186.328125 228.648438 186.777344 228.3125 187.210938 227.957031 C 187.644531 227.601562 188.058594 227.226562 188.457031 226.828125 L 243.171875 172.105469 C 243.765625 171.511719 244.316406 170.875 244.820312 170.195312 C 245.320312 169.519531 245.769531 168.808594 246.167969 168.066406 C 246.5625 167.324219 246.90625 166.554688 247.1875 165.761719 C 247.472656 164.96875 247.695312 164.160156 247.859375 163.332031 C 248.027344 162.507812 248.128906 161.671875 248.167969 160.832031 C 248.210938 159.988281 248.191406 159.148438 248.109375 158.3125 C 248.023438 157.472656 247.882812 156.644531 247.675781 155.828125 C 247.472656 155.011719 247.207031 154.210938 246.886719 153.433594 C 246.5625 152.65625 246.1875 151.90625 245.753906 151.183594 C 245.320312 150.460938 244.835938 149.773438 244.300781 149.121094 C 243.765625 148.46875 243.1875 147.859375 242.5625 147.296875 C 241.9375 146.730469 241.277344 146.210938 240.574219 145.746094 C 239.875 145.277344 239.144531 144.863281 238.382812 144.503906 C 237.621094 144.140625 236.835938 143.839844 236.03125 143.59375 C 235.222656 143.351562 234.402344 143.167969 233.570312 143.042969 C 232.738281 142.917969 231.898438 142.855469 231.054688 142.855469 Z M 235.796875 164.730469 L 181.070312 219.457031 C 180.753906 219.757812 180.414062 220.027344 180.046875 220.261719 C 179.675781 220.5 179.289062 220.699219 178.886719 220.859375 C 178.480469 221.023438 178.0625 221.144531 177.632812 221.226562 C 177.203125 221.3125 176.769531 221.351562 176.332031 221.351562 C 175.894531 221.351562 175.460938 221.3125 175.03125 221.226562 C 174.605469 221.144531 174.1875 221.023438 173.78125 220.859375 C 173.375 220.699219 172.988281 220.5 172.621094 220.261719 C 172.253906 220.027344 171.910156 219.757812 171.59375 219.457031 L 138.902344 186.753906 C 138.59375 186.441406 138.3125 186.105469 138.070312 185.738281 C 137.824219 185.371094 137.617188 184.984375 137.449219 184.578125 C 137.28125 184.171875 137.152344 183.753906 137.066406 183.320312 C 136.980469 182.890625 136.9375 182.453125 136.9375 182.011719 C 136.9375 181.574219 136.980469 181.136719 137.066406 180.703125 C 137.152344 180.273438 137.28125 179.855469 137.449219 179.445312 C 137.617188 179.039062 137.824219 178.652344 138.066406 178.289062 C 138.3125 177.921875 138.589844 177.582031 138.902344 177.269531 C 139.214844 176.960938 139.550781 176.683594 139.917969 176.4375 C 140.285156 176.191406 140.671875 175.984375 141.078125 175.816406 C 141.484375 175.648438 141.902344 175.523438 142.335938 175.4375 C 142.765625 175.351562 143.203125 175.304688 143.644531 175.304688 C 144.082031 175.304688 144.519531 175.347656 144.949219 175.433594 C 145.382812 175.519531 145.800781 175.648438 146.210938 175.816406 C 146.617188 175.984375 147.003906 176.191406 147.367188 176.4375 C 147.734375 176.679688 148.074219 176.957031 148.382812 177.269531 L 172.648438 201.53125 C 172.890625 201.773438 173.152344 201.988281 173.4375 202.179688 C 173.722656 202.371094 174.023438 202.53125 174.339844 202.660156 C 174.65625 202.792969 174.980469 202.890625 175.316406 202.957031 C 175.652344 203.027344 175.992188 203.058594 176.335938 203.058594 C 176.675781 203.058594 177.015625 203.027344 177.351562 202.957031 C 177.6875 202.890625 178.011719 202.792969 178.328125 202.660156 C 178.644531 202.53125 178.945312 202.371094 179.230469 202.179688 C 179.515625 201.988281 179.777344 201.773438 180.019531 201.53125 L 226.320312 155.246094 C 226.632812 154.945312 226.976562 154.675781 227.34375 154.4375 C 227.710938 154.199219 228.097656 154 228.503906 153.835938 C 228.910156 153.675781 229.328125 153.550781 229.757812 153.46875 C 230.1875 153.386719 230.621094 153.34375 231.058594 153.34375 C 231.496094 153.34375 231.929688 153.386719 232.359375 153.46875 C 232.789062 153.550781 233.207031 153.675781 233.609375 153.835938 C 234.015625 154 234.402344 154.199219 234.773438 154.4375 C 235.140625 154.675781 235.480469 154.945312 235.796875 155.246094 C 236.109375 155.558594 236.386719 155.898438 236.628906 156.265625 C 236.875 156.628906 237.078125 157.015625 237.246094 157.421875 C 237.414062 157.832031 237.542969 158.25 237.628906 158.679688 C 237.714844 159.113281 237.757812 159.550781 237.757812 159.988281 C 237.757812 160.429688 237.714844 160.863281 237.628906 161.296875 C 237.542969 161.730469 237.414062 162.148438 237.246094 162.554688 C 237.078125 162.960938 236.875 163.347656 236.628906 163.714844 C 236.386719 164.082031 236.109375 164.417969 235.796875 164.730469 Z M 235.796875 164.730469 " fill-opacity="1" fill-rule="nonzero"/></svg>