<?xml version="1.0" encoding="UTF-8" standalone="no"?>
<!-- Created with Inkscape (http://www.inkscape.org/) -->

<svg
   xmlns:dc="http://purl.org/dc/elements/1.1/"
   xmlns:cc="http://creativecommons.org/ns#"
   xmlns:rdf="http://www.w3.org/1999/02/22-rdf-syntax-ns#"
   xmlns:svg="http://www.w3.org/2000/svg"
   xmlns="http://www.w3.org/2000/svg"
   xmlns:sodipodi="http://sodipodi.sourceforge.net/DTD/sodipodi-0.dtd"
   xmlns:inkscape="http://www.inkscape.org/namespaces/inkscape"
   version="1.1"
   id="svg2"
   xml:space="preserve"
   width="4096"
   height="4096"
   viewBox="0 0 4096 4096"
   sodipodi:docname="pilkington-logo.svg"
   inkscape:version="0.92.1 r15371"
   inkscape:export-filename="C:\back\C Drive\Users\animalog\Dropbox\sites\pilkington-logo-0.png"
   inkscape:export-xdpi="96"
   inkscape:export-ydpi="96"><metadata
     id="metadata8"><rdf:RDF><cc:Work
         rdf:about=""><dc:format>image/svg+xml</dc:format><dc:type
           rdf:resource="http://purl.org/dc/dcmitype/StillImage" /><dc:title></dc:title></cc:Work></rdf:RDF></metadata><defs
     id="defs6"><clipPath
       clipPathUnits="userSpaceOnUse"
       id="clipPath18"><path
         d="m 447.591,702.198 h 102.047 v 55.786 H 447.591 Z"
         id="path16"
         inkscape:connector-curvature="0" /></clipPath><clipPath
       clipPathUnits="userSpaceOnUse"
       id="clipPath58"><path
         d="m 462.189,34.198 h 76.001 v 95.629 h -76.001 z"
         id="path56"
         inkscape:connector-curvature="0" /></clipPath><clipPath
       clipPathUnits="userSpaceOnUse"
       id="clipPath78"><path
         d="m 457.654,34.016 h 81.922 v 96.662 h -81.922 z"
         id="path76"
         inkscape:connector-curvature="0" /></clipPath><clipPath
       clipPathUnits="userSpaceOnUse"
       id="clipPath94"><path
         d="M 0,0 H 612 V 792 H 0 Z"
         id="path92"
         inkscape:connector-curvature="0" /></clipPath><clipPath
       clipPathUnits="userSpaceOnUse"
       id="clipPath110"><path
         d="M 330.426,721.134 H 127.559 c 0,0 -85.039,10e-4 -85.039,-85.039 v 0 -20.27 -240.301 c 0,-47.353 37.758,-94.672 83.936,-105.205 v 0 l 359.178,-77.15 c 5.865,-1.247 12.217,-2.114 18.774,-2.114 v 0 c 28.218,0 52.29,17.696 60.956,43.162 v 0 c 3.439,10.106 4.114,17.428 4.116,25.125 v 0 c -0.005,12.038 0,289.571 0,289.571 v 0 c 0,46.966 -35.515,84.983 -81.435,90.238 v 0 c -30.376,3.476 -56.58,23.078 -68.384,48.985 v 0 c -8.548,18.76 -28.731,32.998 -51.504,32.998 v 0 z"
         id="path108"
         inkscape:connector-curvature="0" /></clipPath><clipPath
       clipPathUnits="userSpaceOnUse"
       id="clipPath140"><path
         d="m 56.693,735.409 h 118.276 v 22.576 H 56.693 Z"
         id="path138"
         inkscape:connector-curvature="0" /></clipPath><clipPath
       clipPathUnits="userSpaceOnUse"
       id="clipPath140-3"><path
         d="m 56.693,735.409 h 118.276 v 22.576 H 56.693 Z"
         id="path138-6"
         inkscape:connector-curvature="0" /></clipPath></defs><sodipodi:namedview
     pagecolor="#ffffff"
     bordercolor="#666666"
     borderopacity="1"
     objecttolerance="10"
     gridtolerance="10"
     guidetolerance="10"
     inkscape:pageopacity="0"
     inkscape:pageshadow="2"
     inkscape:window-width="1600"
     inkscape:window-height="838"
     id="namedview4"
     showgrid="false"
     inkscape:zoom="0.028284271"
     inkscape:cx="8885.9904"
     inkscape:cy="-1388.1517"
     inkscape:window-x="-8"
     inkscape:window-y="-8"
     inkscape:window-maximized="1"
     inkscape:current-layer="g10" /><g
     id="g10"
     inkscape:groupmode="layer"
     inkscape:label="pilkington-logo"
     transform="matrix(1.3333333,0,0,-1.3333333,0,4096)"><g
       id="g134"
       transform="matrix(21.811983,0,0,21.811983,-1028.8051,-17203.521)"
       inkscape:export-xdpi="19.53614"
       inkscape:export-ydpi="19.53614"><g
         id="g136"
         clip-path="url(#clipPath140)"><g
           id="g142"
           transform="translate(56.6929,746.6967)"><path
             d="m 0,0 c 0,6.237 5.058,11.288 11.289,11.288 6.237,0 11.293,-5.051 11.293,-11.288 0,-6.237 -5.056,-11.287 -11.293,-11.287 C 5.058,-11.287 0,-6.237 0,0"
             style="fill:#0fab4b;fill-opacity:1;fill-rule:nonzero;stroke:none"
             id="path144"
             inkscape:connector-curvature="0" /></g><g
           id="g146"
           transform="translate(57.2905,746.6967)"><path
             d="m 0,0 c 0,5.907 4.785,10.697 10.691,10.697 5.911,0 10.698,-4.79 10.698,-10.697 0,-5.905 -4.787,-10.688 -10.698,-10.688 C 4.785,-10.688 0,-5.905 0,0"
             style="fill:#ffffff;fill-opacity:1;fill-rule:nonzero;stroke:none"
             id="path148"
             inkscape:connector-curvature="0" /></g><g
           id="g150"
           transform="translate(58.0429,746.6967)"><path
             d="m 0,0 c 0,5.486 4.453,9.935 9.939,9.935 5.49,0 9.94,-4.449 9.94,-9.935 0,-5.486 -4.45,-9.935 -9.94,-9.935 C 4.453,-9.935 0,-5.486 0,0"
             style="fill:#0fab4b;fill-opacity:1;fill-rule:nonzero;stroke:none"
             id="path152"
             inkscape:connector-curvature="0" /></g><g
           id="g154"
           transform="translate(63.1321,744.7705)"><path
             d="m 0,0 c -0.718,-0.765 -0.8,-1.634 -0.619,-2.843 0,-0.032 0.05,-0.121 0.05,-0.121 0,0 -0.05,0.057 -0.13,0.089 -0.743,0.444 -1.273,1.264 -1.29,2.11 -0.006,0.596 0.16,1.149 0.576,1.53 0.06,0.055 0.161,0.095 0.161,0.095 0,0 -0.072,-0.02 -0.144,-0.035 -1.241,-0.303 -1.972,0.419 -2.605,0.995 -0.072,0.06 -0.126,0.077 -0.178,0.106 0.052,0.012 0.106,0.023 0.178,0.109 0.633,0.562 1.364,1.298 2.605,0.992 0.072,-0.014 0.144,-0.046 0.144,-0.046 0,0 -0.101,0.055 -0.161,0.106 -0.416,0.375 -0.582,0.932 -0.576,1.522 0.017,0.851 0.547,1.657 1.29,2.118 0.08,0.035 0.13,0.089 0.13,0.089 0,0 -0.05,-0.089 -0.05,-0.12 C -0.8,5.492 -0.718,4.609 0,3.832 1.072,2.694 3.275,3.139 3.778,2.958 3.516,3.313 4.132,5.652 2.947,6.782 2.167,7.484 1.288,7.584 0.073,7.395 c -0.021,0 -0.107,-0.057 -0.107,-0.057 0,0 0.05,0.057 0.086,0.137 0.457,0.746 1.267,1.273 2.115,1.29 C 2.756,8.777 3.313,8.605 3.69,8.198 3.741,8.129 3.798,8.031 3.798,8.031 c 0,0 -0.032,0.072 -0.043,0.144 -0.311,1.238 0.427,1.96 1.007,2.602 0.065,0.081 0.082,0.132 0.088,0.178 C 4.878,10.909 4.896,10.858 4.957,10.777 5.535,10.135 6.26,9.413 5.956,8.175 5.935,8.103 5.907,8.031 5.907,8.031 c 0,0 0.055,0.098 0.127,0.167 0.358,0.407 0.914,0.579 1.51,0.567 C 8.386,8.748 9.212,8.221 9.654,7.475 9.688,7.395 9.74,7.338 9.74,7.338 c 0,0 -0.086,0.057 -0.115,0.057 C 8.416,7.584 7.544,7.507 6.782,6.782 5.581,5.664 6.181,3.359 5.928,2.958 6.392,3.173 8.61,2.683 9.704,3.832 c 0.729,0.777 0.824,1.66 0.62,2.864 0,0.031 -0.057,0.12 -0.057,0.12 0,0 0.057,-0.054 0.138,-0.089 0.762,-0.461 1.29,-1.267 1.301,-2.118 0,-0.59 -0.172,-1.147 -0.585,-1.522 -0.063,-0.051 -0.16,-0.106 -0.16,-0.106 0,0 0.08,0.032 0.152,0.046 1.244,0.306 1.957,-0.43 2.602,-0.992 C 13.787,1.949 13.833,1.938 13.886,1.926 13.833,1.897 13.787,1.88 13.715,1.82 13.07,1.244 12.357,0.522 11.113,0.825 11.041,0.84 10.961,0.86 10.961,0.86 c 0,0 0.097,-0.04 0.16,-0.095 0.413,-0.381 0.585,-0.934 0.585,-1.53 -0.011,-0.846 -0.539,-1.666 -1.301,-2.11 -0.081,-0.032 -0.138,-0.089 -0.138,-0.089 0,0 0.057,0.089 0.057,0.121 0.204,1.209 0.109,2.078 -0.62,2.843 -1.078,1.172 -3.303,0.694 -3.776,0.889 0.275,-0.362 -0.36,-2.695 0.854,-3.813 0.762,-0.719 1.634,-0.825 2.843,-0.622 0.029,0 0.115,0.061 0.115,0.061 0,0 -0.052,-0.061 -0.086,-0.144 -0.442,-0.759 -1.268,-1.27 -2.11,-1.289 -0.596,0 -1.152,0.166 -1.51,0.576 -0.072,0.066 -0.127,0.157 -0.127,0.157 0,0 0.028,-0.069 0.049,-0.143 C 6.26,-5.578 5.535,-6.292 4.957,-6.936 4.896,-7.005 4.878,-7.068 4.85,-7.108 c -0.006,0.04 -0.023,0.103 -0.088,0.172 -0.58,0.644 -1.318,1.358 -1.007,2.608 0.011,0.074 0.043,0.143 0.043,0.143 0,0 -0.057,-0.091 -0.108,-0.157 -0.377,-0.41 -0.934,-0.576 -1.523,-0.576 -0.848,0.019 -1.658,0.53 -2.115,1.289 -0.036,0.083 -0.086,0.144 -0.086,0.144 0,0 0.086,-0.061 0.107,-0.061 1.215,-0.203 2.094,-0.097 2.874,0.622 1.185,1.118 0.569,3.446 0.831,3.813 C 3.275,0.694 1.072,1.152 0,0"
             style="fill:#ffffff;fill-opacity:1;fill-rule:nonzero;stroke:none"
             id="path156"
             inkscape:connector-curvature="0" /></g><g
           id="g158"
           transform="translate(119.0256,749.6777)"><path
             d="m 0,0 h 0.392 c 0.594,0 0.806,-0.441 0.806,-1.124 v -7.154 c 0,-0.599 -0.14,-0.845 -0.854,-0.845 H 0 v -0.405 h 4.2 v 0.405 H 3.856 c -0.538,0 -0.865,0.137 -0.865,0.98 V -1 c 0,0.722 0.155,1 0.802,1 H 4.2 V 0.396 H 0 Z"
             style="fill:#231f20;fill-opacity:1;fill-rule:nonzero;stroke:none"
             id="path160"
             inkscape:connector-curvature="0" /></g><g
           id="g162"
           transform="translate(154.0908,750.0732)"><path
             d="m 0,0 0.08,-2.451 h -0.298 c -0.175,1.442 -0.871,1.777 -1.754,1.777 h -1.325 v -7.865 c 0,-0.863 0.328,-1.012 0.877,-1.012 h 0.333 V -9.923 H -6.3 v 0.372 h 0.344 c 0.733,0 0.914,0.362 0.914,0.986 v 7.891 h -1.281 c -1.433,0 -1.583,-0.868 -1.697,-1.777 H -8.364 L -8.255,0 Z"
             style="fill:#231f20;fill-opacity:1;fill-rule:nonzero;stroke:none"
             id="path164"
             inkscape:connector-curvature="0" /></g><g
           id="g166"
           transform="translate(143.7837,750.2051)"><path
             d="m 0,0 c -0.046,-0.39 -0.212,-0.47 -0.665,-0.315 -0.356,0.126 -1.161,0.43 -2.185,0.43 -2.889,0.028 -5.262,-1.729 -5.136,-5.406 0.072,-2.975 1.863,-4.902 4.77,-5.062 2.161,-0.132 3.239,0.487 4.127,1.012 v 2.938 c 0,0.745 0.144,1.031 0.797,1.031 H 1.92 v 0.405 h -4.047 v -0.405 h 0.619 c 0.522,0 0.917,-0.355 0.917,-1.031 v -2.706 c -0.324,-0.295 -1.038,-0.654 -2.092,-0.654 -1.829,0 -3.463,1.646 -3.463,4.672 0,2.872 1.239,4.661 3.368,4.661 1.603,0 2.623,-1.135 3.13,-2.239 L 0.65,-2.62 0.352,0 Z"
             style="fill:#231f20;fill-opacity:1;fill-rule:nonzero;stroke:none"
             id="path168"
             inkscape:connector-curvature="0" /></g><g
           id="g170"
           transform="translate(111.2592,741.5343)"><path
             d="m 0,0 c 0,-0.874 0.447,-0.989 0.98,-0.989 h 0.331 v -0.395 h -4.21 v 0.395 h 0.334 c 0.713,0 0.855,0.184 0.855,0.989 v 7.129 c 0,0.808 -0.071,1.014 -0.779,1.014 h -0.41 v 0.396 h 4.21 V 8.143 H 0.887 C 0.067,8.143 0,7.736 0,7.143 V 3.999 C 1.718,5.409 3.295,7.071 3.627,7.582 3.805,7.865 3.782,8.143 3.321,8.143 H 2.931 V 8.539 H 6.356 V 8.143 L 5.918,8.126 C 5.383,8.126 5.003,7.84 4.526,7.369 3.98,6.813 2.674,5.601 1.386,4.334 L 5.383,0 c 0.4,-0.427 0.986,-0.972 1.493,-0.972 H 7.141 V -1.384 H 2.808 v 0.372 H 3.14 c 0.548,0 0.71,0.407 0.298,0.872 C 3.106,0.227 0,3.689 0,3.689 Z"
             style="fill:#231f20;fill-opacity:1;fill-rule:nonzero;stroke:none"
             id="path172"
             inkscape:connector-curvature="0" /></g><g
           id="g174"
           transform="translate(87.4502,746.7425)"><path
             d="m 0,0 c 0.321,-0.224 0.837,-0.407 1.47,-0.413 1.602,-0.06 2.672,1.135 2.672,3.107 0,1.648 -0.594,3.153 -2.566,3.153 C 1.032,5.847 0.226,5.744 0,5.658 Z m -0.9,6.383 c 1.126,0 2.429,0.055 3.071,0.055 2.478,0 3.857,-1.657 3.857,-3.52 0,-2.219 -1.759,-4.024 -4.012,-4.024 -1.125,0 -1.565,0.123 -2.016,0.26 L 0,-4.804 C 0,-5.715 0.451,-6.22 1.161,-6.22 h 0.602 v -0.372 h -5.059 v 0.372 h 0.52 c 0.844,0 1.068,0.539 1.068,1.393 v 9.382 c 0,1.149 -0.19,1.401 -0.981,1.401 h -0.666 v 0.39 c 0,0 1.383,0 2.455,0.037"
             style="fill:#231f20;fill-opacity:1;fill-rule:nonzero;stroke:none"
             id="path176"
             inkscape:connector-curvature="0" /></g><g
           id="g178"
           transform="translate(94.3664,749.6777)"><path
             d="m 0,0 h 0.39 c 0.568,0 0.805,-0.441 0.805,-1.124 v -7.154 c 0,-0.599 -0.137,-0.845 -0.861,-0.845 H 0 v -0.405 h 4.194 v 0.405 H 3.865 c -0.57,0 -0.878,0.137 -0.878,0.98 V -1 c 0,0.722 0.132,1 0.808,1 H 4.194 V 0.396 H 0 Z"
             style="fill:#231f20;fill-opacity:1;fill-rule:nonzero;stroke:none"
             id="path180"
             inkscape:connector-curvature="0" /></g><g
           id="g182"
           transform="translate(100.1865,740.1501)"><path
             d="m 0,0 v 0.404 h 0.344 c 0.712,0 0.857,0.341 0.857,0.98 v 7.129 c 0,0.682 -0.222,1.015 -0.804,1.015 H 0 V 9.923 H 4.202 V 9.528 H 3.796 C 3.149,9.528 3.005,9.25 3.005,8.527 V 1.384 c 0,-0.438 0,-0.733 0.416,-0.733 h 1.505 c 1.257,0 1.965,0.53 2.601,2.135 L 7.867,2.703 7.084,0 Z"
             style="fill:#231f20;fill-opacity:1;fill-rule:nonzero;stroke:none"
             id="path184"
             inkscape:connector-curvature="0" /></g><g
           id="g186"
           transform="translate(173.7708,748.6056)"><path
             d="M 0,0 C 0,0.986 0.258,1.101 0.826,1.101 H 1.199 V 1.468 H -2.144 V 1.101 h 0.304 c 0.877,0 1.032,-0.27 1.032,-1.067 V -5.283 L -6.552,1.468 H -9.075 V 1.072 C -8.754,1.055 -8.22,1.009 -7.613,0.034 v -7.131 c 0,-0.768 -0.218,-0.986 -0.986,-0.986 H -8.96 v -0.373 h 3.646 v 0.373 h -0.407 c -0.777,0 -1.003,0.255 -1.003,1.012 v 6.194 L 0,-8.897 Z"
             style="fill:#231f20;fill-opacity:1;fill-rule:nonzero;stroke:none"
             id="path188"
             inkscape:connector-curvature="0" /></g><g
           id="g190"
           transform="translate(133.6707,748.6056)"><path
             d="M 0,0 C 0,0.986 0.241,1.101 0.826,1.101 H 1.187 V 1.468 H -2.144 V 1.101 h 0.298 c 0.877,0 1.043,-0.27 1.043,-1.067 v -5.317 l -5.761,6.751 h -2.51 V 1.072 c 0.312,-0.017 0.851,-0.063 1.478,-1.038 v -7.131 c 0,-0.768 -0.229,-0.986 -0.994,-0.986 h -0.358 v -0.373 h 3.628 v 0.373 h -0.407 c -0.768,0 -0.991,0.255 -0.991,1.012 v 6.194 L 0,-8.897 Z"
             style="fill:#231f20;fill-opacity:1;fill-rule:nonzero;stroke:none"
             id="path192"
             inkscape:connector-curvature="0" /></g><g
           id="g194"
           transform="translate(159.356,749.8038)"><path
             d="m 0,0 c -1.757,0 -2.823,-1.746 -2.823,-4.712 0,-3.07 1.106,-4.73 2.797,-4.73 1.605,0 2.806,1.8 2.806,4.73 C 2.78,-1.576 1.677,0 0,0 m 4.686,-4.712 c 0,-3.07 -1.966,-5.314 -4.712,-5.314 -2.608,0 -4.718,2.055 -4.718,5.314 0,3.204 2.064,5.343 4.744,5.343 2.405,0 4.686,-1.904 4.686,-5.343"
             style="fill:#231f20;fill-opacity:1;fill-rule:nonzero;stroke:none"
             id="path196"
             inkscape:connector-curvature="0" /></g></g></g><g
       id="g158-7-9"
       transform="matrix(27.121049,0,0,27.121049,1282.1772,1230.989)"
       style="fill:#231f20;fill-opacity:1"
       inkscape:export-xdpi="8.7600002"
       inkscape:export-ydpi="8.7600002"><path
         d="m 0,0 h 0.392 c 0.594,0 0.806,-0.441 0.806,-1.124 v -7.154 c 0,-0.599 -0.14,-0.845 -0.854,-0.845 H 0 v -0.405 h 4.2 v 0.405 H 3.856 c -0.538,0 -0.865,0.137 -0.865,0.98 V -1 c 0,0.722 0.155,1 0.802,1 H 4.2 V 0.396 H 0 Z"
         style="fill:#231f20;fill-opacity:1;fill-rule:nonzero;stroke:none"
         id="path160-9-5"
         inkscape:connector-curvature="0" /></g><g
       id="g162-1-8"
       transform="matrix(27.121049,0,0,27.121049,2233.1823,1241.7156)"
       style="fill:#231f20;fill-opacity:1"
       inkscape:export-xdpi="8.7600002"
       inkscape:export-ydpi="8.7600002"><path
         d="m 0,0 0.08,-2.451 h -0.298 c -0.175,1.442 -0.871,1.777 -1.754,1.777 h -1.325 v -7.865 c 0,-0.863 0.328,-1.012 0.877,-1.012 h 0.333 V -9.923 H -6.3 v 0.372 h 0.344 c 0.733,0 0.914,0.362 0.914,0.986 v 7.891 h -1.281 c -1.433,0 -1.583,-0.868 -1.697,-1.777 H -8.364 L -8.255,0 Z"
         style="fill:#231f20;fill-opacity:1;fill-rule:nonzero;stroke:none"
         id="path164-7-6"
         inkscape:connector-curvature="0" /></g><g
       id="g166-1-1"
       transform="matrix(27.121049,0,0,27.121049,1953.643,1245.2928)"
       style="fill:#231f20;fill-opacity:1"
       inkscape:export-xdpi="8.7600002"
       inkscape:export-ydpi="8.7600002"><path
         d="m 0,0 c -0.046,-0.39 -0.212,-0.47 -0.665,-0.315 -0.356,0.126 -1.161,0.43 -2.185,0.43 -2.889,0.028 -5.262,-1.729 -5.136,-5.406 0.072,-2.975 1.863,-4.902 4.77,-5.062 2.161,-0.132 3.239,0.487 4.127,1.012 v 2.938 c 0,0.745 0.144,1.031 0.797,1.031 H 1.92 v 0.405 h -4.047 v -0.405 h 0.619 c 0.522,0 0.917,-0.355 0.917,-1.031 v -2.706 c -0.324,-0.295 -1.038,-0.654 -2.092,-0.654 -1.829,0 -3.463,1.646 -3.463,4.672 0,2.872 1.239,4.661 3.368,4.661 1.603,0 2.623,-1.135 3.13,-2.239 L 0.65,-2.62 0.352,0 Z"
         style="fill:#231f20;fill-opacity:1;fill-rule:nonzero;stroke:none"
         id="path168-0-1"
         inkscape:connector-curvature="0" /></g><g
       id="g170-0-0"
       transform="matrix(27.121049,0,0,27.121049,1071.5442,1010.1316)"
       style="fill:#231f20;fill-opacity:1"
       inkscape:export-xdpi="8.7600002"
       inkscape:export-ydpi="8.7600002"><path
         d="m 0,0 c 0,-0.874 0.447,-0.989 0.98,-0.989 h 0.331 v -0.395 h -4.21 v 0.395 h 0.334 c 0.713,0 0.855,0.184 0.855,0.989 v 7.129 c 0,0.808 -0.071,1.014 -0.779,1.014 h -0.41 v 0.396 h 4.21 V 8.143 H 0.887 C 0.067,8.143 0,7.736 0,7.143 V 3.999 C 1.718,5.409 3.295,7.071 3.627,7.582 3.805,7.865 3.782,8.143 3.321,8.143 H 2.931 V 8.539 H 6.356 V 8.143 L 5.918,8.126 C 5.383,8.126 5.003,7.84 4.526,7.369 3.98,6.813 2.674,5.601 1.386,4.334 L 5.383,0 c 0.4,-0.427 0.986,-0.972 1.493,-0.972 H 7.141 V -1.384 H 2.808 v 0.372 H 3.14 c 0.548,0 0.71,0.407 0.298,0.872 C 3.106,0.227 0,3.689 0,3.689 Z"
         style="fill:#231f20;fill-opacity:1;fill-rule:nonzero;stroke:none"
         id="path172-6-4"
         inkscape:connector-curvature="0" /></g><g
       id="g174-2-6"
       transform="matrix(27.121049,0,0,27.121049,425.81918,1151.3834)"
       style="fill:#231f20;fill-opacity:1"
       inkscape:export-xdpi="8.7600002"
       inkscape:export-ydpi="8.7600002"><path
         d="m 0,0 c 0.321,-0.224 0.837,-0.407 1.47,-0.413 1.602,-0.06 2.672,1.135 2.672,3.107 0,1.648 -0.594,3.153 -2.566,3.153 C 1.032,5.847 0.226,5.744 0,5.658 Z m -0.9,6.383 c 1.126,0 2.429,0.055 3.071,0.055 2.478,0 3.857,-1.657 3.857,-3.52 0,-2.219 -1.759,-4.024 -4.012,-4.024 -1.125,0 -1.565,0.123 -2.016,0.26 L 0,-4.804 C 0,-5.715 0.451,-6.22 1.161,-6.22 h 0.602 v -0.372 h -5.059 v 0.372 h 0.52 c 0.844,0 1.068,0.539 1.068,1.393 v 9.382 c 0,1.149 -0.19,1.401 -0.981,1.401 h -0.666 v 0.39 c 0,0 1.383,0 2.455,0.037"
         style="fill:#231f20;fill-opacity:1;fill-rule:nonzero;stroke:none"
         id="path176-1-9"
         inkscape:connector-curvature="0" /></g><g
       id="g178-5-7"
       transform="matrix(27.121049,0,0,27.121049,613.39377,1230.989)"
       style="fill:#231f20;fill-opacity:1"
       inkscape:export-xdpi="8.7600002"
       inkscape:export-ydpi="8.7600002"><path
         d="m 0,0 h 0.39 c 0.568,0 0.805,-0.441 0.805,-1.124 v -7.154 c 0,-0.599 -0.137,-0.845 -0.861,-0.845 H 0 v -0.405 h 4.194 v 0.405 H 3.865 c -0.57,0 -0.878,0.137 -0.878,0.98 V -1 c 0,0.722 0.132,1 0.808,1 H 4.194 V 0.396 H 0 Z"
         style="fill:#231f20;fill-opacity:1;fill-rule:nonzero;stroke:none"
         id="path180-2-5"
         inkscape:connector-curvature="0" /></g><g
       id="g182-1-0"
       transform="matrix(27.121049,0,0,27.121049,771.24102,972.59057)"
       style="fill:#231f20;fill-opacity:1"
       inkscape:export-xdpi="8.7600002"
       inkscape:export-ydpi="8.7600002"><path
         d="m 0,0 v 0.404 h 0.344 c 0.712,0 0.857,0.341 0.857,0.98 v 7.129 c 0,0.682 -0.222,1.015 -0.804,1.015 H 0 V 9.923 H 4.202 V 9.528 H 3.796 C 3.149,9.528 3.005,9.25 3.005,8.527 V 1.384 c 0,-0.438 0,-0.733 0.416,-0.733 h 1.505 c 1.257,0 1.965,0.53 2.601,2.135 L 7.867,2.703 7.084,0 Z"
         style="fill:#231f20;fill-opacity:1;fill-rule:nonzero;stroke:none"
         id="path184-9-0"
         inkscape:connector-curvature="0" /></g><g
       id="g186-5-9"
       transform="matrix(27.121049,0,0,27.121049,2766.9244,1201.9126)"
       style="fill:#231f20;fill-opacity:1"
       inkscape:export-xdpi="8.7600002"
       inkscape:export-ydpi="8.7600002"><path
         d="M 0,0 C 0,0.986 0.258,1.101 0.826,1.101 H 1.199 V 1.468 H -2.144 V 1.101 h 0.304 c 0.877,0 1.032,-0.27 1.032,-1.067 V -5.283 L -6.552,1.468 H -9.075 V 1.072 C -8.754,1.055 -8.22,1.009 -7.613,0.034 v -7.131 c 0,-0.768 -0.218,-0.986 -0.986,-0.986 H -8.96 v -0.373 h 3.646 v 0.373 h -0.407 c -0.777,0 -1.003,0.255 -1.003,1.012 v 6.194 L 0,-8.897 Z"
         style="fill:#231f20;fill-opacity:1;fill-rule:nonzero;stroke:none"
         id="path188-0-5"
         inkscape:connector-curvature="0" /></g><g
       id="g190-2-9"
       transform="matrix(27.121049,0,0,27.121049,1679.3677,1201.9126)"
       style="fill:#231f20;fill-opacity:1"
       inkscape:export-xdpi="8.7600002"
       inkscape:export-ydpi="8.7600002"><path
         d="M 0,0 C 0,0.986 0.241,1.101 0.826,1.101 H 1.187 V 1.468 H -2.144 V 1.101 h 0.298 c 0.877,0 1.043,-0.27 1.043,-1.067 v -5.317 l -5.761,6.751 h -2.51 V 1.072 c 0.312,-0.017 0.851,-0.063 1.478,-1.038 v -7.131 c 0,-0.768 -0.229,-0.986 -0.994,-0.986 h -0.358 v -0.373 h 3.628 v 0.373 h -0.407 c -0.768,0 -0.991,0.255 -0.991,1.012 v 6.194 L 0,-8.897 Z"
         style="fill:#231f20;fill-opacity:1;fill-rule:nonzero;stroke:none"
         id="path192-8-5"
         inkscape:connector-curvature="0" /></g><g
       id="g194-5-2"
       transform="matrix(27.121049,0,0,27.121049,2375.9799,1234.4092)"
       style="fill:#231f20;fill-opacity:1"
       inkscape:export-xdpi="8.7600002"
       inkscape:export-ydpi="8.7600002"><path
         d="m 0,0 c -1.757,0 -2.823,-1.746 -2.823,-4.712 0,-3.07 1.106,-4.73 2.797,-4.73 1.605,0 2.806,1.8 2.806,4.73 C 2.78,-1.576 1.677,0 0,0 m 4.686,-4.712 c 0,-3.07 -1.966,-5.314 -4.712,-5.314 -2.608,0 -4.718,2.055 -4.718,5.314 0,3.204 2.064,5.343 4.744,5.343 2.405,0 4.686,-1.904 4.686,-5.343"
         style="fill:#231f20;fill-opacity:1;fill-rule:nonzero;stroke:none"
         id="path196-0-7"
         inkscape:connector-curvature="0" /></g><g
       id="g142-1-5"
       transform="matrix(35.92881,0,0,35.92881,1143.3778,1833.3672)"
       inkscape:export-xdpi="8.7600002"
       inkscape:export-ydpi="8.7600002"><path
         d="m 0,0 c 0,6.237 5.058,11.288 11.289,11.288 6.237,0 11.293,-5.051 11.293,-11.288 0,-6.237 -5.056,-11.287 -11.293,-11.287 C 5.058,-11.287 0,-6.237 0,0"
         style="fill:#0fab4b;fill-opacity:1;fill-rule:nonzero;stroke:none"
         id="path144-8-8"
         inkscape:connector-curvature="0" /></g><g
       id="g146-2-6"
       transform="matrix(35.92881,0,0,35.92881,1164.8093,1833.3672)"
       inkscape:export-xdpi="8.7600002"
       inkscape:export-ydpi="8.7600002"><path
         d="m 0,0 c 0,5.907 4.785,10.697 10.691,10.697 5.911,0 10.698,-4.79 10.698,-10.697 0,-5.905 -4.787,-10.688 -10.698,-10.688 C 4.785,-10.688 0,-5.905 0,0"
         style="fill:#ffffff;fill-opacity:1;fill-rule:nonzero;stroke:none"
         id="path148-6-1"
         inkscape:connector-curvature="0" /></g><g
       id="g150-8-6"
       transform="matrix(35.92881,0,0,35.92881,1191.9356,1833.3672)"
       inkscape:export-xdpi="8.7600002"
       inkscape:export-ydpi="8.7600002"><path
         d="m 0,0 c 0,5.486 4.453,9.935 9.939,9.935 5.49,0 9.94,-4.449 9.94,-9.935 0,-5.486 -4.45,-9.935 -9.94,-9.935 C 4.453,-9.935 0,-5.486 0,0"
         style="fill:#0fab4b;fill-opacity:1;fill-rule:nonzero;stroke:none"
         id="path152-9-2"
         inkscape:connector-curvature="0" /></g><g
       id="g154-4-6"
       transform="matrix(35.92881,0,0,35.92881,1374.6695,1764.1609)"
       inkscape:export-xdpi="8.7600002"
       inkscape:export-ydpi="8.7600002"><path
         d="m 0,0 c -0.718,-0.765 -0.8,-1.634 -0.619,-2.843 0,-0.032 0.05,-0.121 0.05,-0.121 0,0 -0.05,0.057 -0.13,0.089 -0.743,0.444 -1.273,1.264 -1.29,2.11 -0.006,0.596 0.16,1.149 0.576,1.53 0.06,0.055 0.161,0.095 0.161,0.095 0,0 -0.072,-0.02 -0.144,-0.035 -1.241,-0.303 -1.972,0.419 -2.605,0.995 -0.072,0.06 -0.126,0.077 -0.178,0.106 0.052,0.012 0.106,0.023 0.178,0.109 0.633,0.562 1.364,1.298 2.605,0.992 0.072,-0.014 0.144,-0.046 0.144,-0.046 0,0 -0.101,0.055 -0.161,0.106 -0.416,0.375 -0.582,0.932 -0.576,1.522 0.017,0.851 0.547,1.657 1.29,2.118 0.08,0.035 0.13,0.089 0.13,0.089 0,0 -0.05,-0.089 -0.05,-0.12 C -0.8,5.492 -0.718,4.609 0,3.832 1.072,2.694 3.275,3.139 3.778,2.958 3.516,3.313 4.132,5.652 2.947,6.782 2.167,7.484 1.288,7.584 0.073,7.395 c -0.021,0 -0.107,-0.057 -0.107,-0.057 0,0 0.05,0.057 0.086,0.137 0.457,0.746 1.267,1.273 2.115,1.29 C 2.756,8.777 3.313,8.605 3.69,8.198 3.741,8.129 3.798,8.031 3.798,8.031 c 0,0 -0.032,0.072 -0.043,0.144 -0.311,1.238 0.427,1.96 1.007,2.602 0.065,0.081 0.082,0.132 0.088,0.178 C 4.878,10.909 4.896,10.858 4.957,10.777 5.535,10.135 6.26,9.413 5.956,8.175 5.935,8.103 5.907,8.031 5.907,8.031 c 0,0 0.055,0.098 0.127,0.167 0.358,0.407 0.914,0.579 1.51,0.567 C 8.386,8.748 9.212,8.221 9.654,7.475 9.688,7.395 9.74,7.338 9.74,7.338 c 0,0 -0.086,0.057 -0.115,0.057 C 8.416,7.584 7.544,7.507 6.782,6.782 5.581,5.664 6.181,3.359 5.928,2.958 6.392,3.173 8.61,2.683 9.704,3.832 c 0.729,0.777 0.824,1.66 0.62,2.864 0,0.031 -0.057,0.12 -0.057,0.12 0,0 0.057,-0.054 0.138,-0.089 0.762,-0.461 1.29,-1.267 1.301,-2.118 0,-0.59 -0.172,-1.147 -0.585,-1.522 -0.063,-0.051 -0.16,-0.106 -0.16,-0.106 0,0 0.08,0.032 0.152,0.046 1.244,0.306 1.957,-0.43 2.602,-0.992 C 13.787,1.949 13.833,1.938 13.886,1.926 13.833,1.897 13.787,1.88 13.715,1.82 13.07,1.244 12.357,0.522 11.113,0.825 11.041,0.84 10.961,0.86 10.961,0.86 c 0,0 0.097,-0.04 0.16,-0.095 0.413,-0.381 0.585,-0.934 0.585,-1.53 -0.011,-0.846 -0.539,-1.666 -1.301,-2.11 -0.081,-0.032 -0.138,-0.089 -0.138,-0.089 0,0 0.057,0.089 0.057,0.121 0.204,1.209 0.109,2.078 -0.62,2.843 -1.078,1.172 -3.303,0.694 -3.776,0.889 0.275,-0.362 -0.36,-2.695 0.854,-3.813 0.762,-0.719 1.634,-0.825 2.843,-0.622 0.029,0 0.115,0.061 0.115,0.061 0,0 -0.052,-0.061 -0.086,-0.144 -0.442,-0.759 -1.268,-1.27 -2.11,-1.289 -0.596,0 -1.152,0.166 -1.51,0.576 -0.072,0.066 -0.127,0.157 -0.127,0.157 0,0 0.028,-0.069 0.049,-0.143 C 6.26,-5.578 5.535,-6.292 4.957,-6.936 4.896,-7.005 4.878,-7.068 4.85,-7.108 c -0.006,0.04 -0.023,0.103 -0.088,0.172 -0.58,0.644 -1.318,1.358 -1.007,2.608 0.011,0.074 0.043,0.143 0.043,0.143 0,0 -0.057,-0.091 -0.108,-0.157 -0.377,-0.41 -0.934,-0.576 -1.523,-0.576 -0.848,0.019 -1.658,0.53 -2.115,1.289 -0.036,0.083 -0.086,0.144 -0.086,0.144 0,0 0.086,-0.061 0.107,-0.061 1.215,-0.203 2.094,-0.097 2.874,0.622 1.185,1.118 0.569,3.446 0.831,3.813 C 3.275,0.694 1.072,1.152 0,0"
         style="fill:#ffffff;fill-opacity:1;fill-rule:nonzero;stroke:none"
         id="path156-3-9"
         inkscape:connector-curvature="0" /></g></g></svg>