<?xml version="1.0" encoding="utf-8"?>
<!-- Generator: Adobe Illustrator 21.0.0, SVG Export Plug-In . SVG Version: 6.00 Build 0)  -->
<svg version="1.1" id="Layer_1" xmlns="http://www.w3.org/2000/svg" xmlns:xlink="http://www.w3.org/1999/xlink" x="0px" y="0px"
	 viewBox="0 0 2500 2500" style="enable-background:new 0 0 2500 2500;" xml:space="preserve">
<style type="text/css">
	.st0{fill:#FBE03C;stroke:#000000;stroke-width:0.565;stroke-miterlimit:2.613;}
	.st1{fill:#CC2131;stroke:#000000;stroke-width:0.565;stroke-miterlimit:2.613;}
	.st2{fill:#CC2131;}
</style>
<path class="st0" d="M492.5,1163.5l350.6-352.4v352.4H492.5z M863.7,805.4h210.2v359.3H863.7V805.4z"/>
<path class="st1" d="M1093.2,805.4h210.2v359.3h-210.2V805.4z M1322.8,805.4H1533v359.3h-210.2V805.4z M1901.9,805.4l-350.6,353.5
	V805.4H1901.9z"/>
<path class="st2" d="M274.5,1538.8c-19.3,0-50.8,8.7-91.5,8.7c-92.8,0-146.2-48.7-146.2-133.2c0-85.3,60.8-140.6,158.5-140.6
	c44.7,0,75.8,10.6,92.8,10.6c4.4,0,8.8-1.3,14.5-2.7l-23.2,65c-25.4-17.1-51.6-25.1-81.5-25.1c-57.3,0-92.8,37.4-92.8,89.7
	c0,57.7,30.7,88.4,88.9,88.4c32.9,0,64.4-10.1,99.9-27.7v70.7C286.3,1540.2,280.2,1538.8,274.5,1538.8L274.5,1538.8z M424.9,1440
	l52.6-122.3L534,1440H424.9z M622.9,1494.3L537,1301.4c-2.6-5.7-3.9-9.6-3.9-11.8c0-2.2,1.7-5.3,3.5-9.8H428.4c2.2,4.9,3,7.6,3,9.4
	c0,2.6-1.3,7-4,12.3l-92.4,192.9c-8.8,18.1-17.5,34-30.7,47.2h100.3c-6.5-5.7-10.1-13.7-10.1-24.3c0-6.6,1.3-13.2,3-17.2l5.7-12.8
	h150.3l7.4,17.2c1.3,3.1,3,9.2,3,15.9c0,7.9-3,14.2-9.6,21.2h99C641.3,1528.7,631.2,1512.9,622.9,1494.3L622.9,1494.3z
	 M741.3,1397.6v-73h69.8c41.7,0,59.3,7.9,59.3,36.2c0,28.3-17.6,36.7-59.3,36.7H741.3L741.3,1397.6z M741.3,1495.9v-53.5h30.3
	c26.4,0,47,9.6,64.1,30.6c18,22,26.4,39.9,26.4,53.1c0,5.7-2.6,10.1-7.9,15.4h111.7c-24.5-16.7-36.3-42.2-52.5-67.2
	c-11.9-18.4-23.2-33.3-45.5-43.4c46-8.8,70.9-36.5,70.9-73.6c0-34.9-19.3-61.8-49.5-71.4c-19.3-6.2-46-6.2-79.9-6.2H655.8
	c15.3,7,21.9,21.1,21.9,44.9v171.3c0,24.1-6.1,38.6-21.9,45.6h108C748.4,1534.9,741.3,1520,741.3,1495.9L741.3,1495.9z"/>
<path class="st2" d="M1220.4,1529.5c-19.8,0-57.1,18-115.4,18c-99.5,0-153.2-49.7-153.2-134.7c0-83.3,59-139.6,168.6-139.6
	c38.6,0,66.6,7,83.8,7c5.3,0,14-0.9,25.9-2.7l-18.4,66.8c-29.8-17.1-61.4-25.8-93-25.8c-63.6,0-99.5,34.6-99.5,96.4
	c0,57.2,29.4,87.2,85.5,87.2c48.6,0,74.6-17.2,74.6-48v-23.8h-59.7c-12.7,0-22.4,2.2-33.8,10.6l9.2-33.9c5.3-18.5,10.1-21.6,32-21.6
	h122c-7.5,7.5-7.5,14.5-7.5,24.6V1533C1231.3,1530.8,1224.3,1529.5,1220.4,1529.5L1220.4,1529.5z M1254.7,1279.8h108.7
	c-15.3,6.7-23.2,22.1-23.2,45v172h74c41.5,0,74-8.4,102-31.2c-14.5,37.4-25,58.1-25,64.6c0,3.5,2.2,7,5.2,11.4h-241.8
	c15.3-7,21.9-21.5,21.9-44.8v-172C1276.6,1301,1270.1,1286.9,1254.7,1279.8z M1620.6,1440l52.6-122.3l56.5,122.3H1620.6L1620.6,1440
	z M1818.6,1494.3l-85.8-192.9c-2.6-5.7-3.9-9.6-3.9-11.8c0-2.2,1.8-5.3,3.5-9.8h-108.1c2.2,4.9,3,7.6,3,9.4c0,2.6-1.3,7-3.9,12.3
	l-92.5,192.9c-8.8,18.1-17.5,34-30.7,47.2h100.3c-6.6-5.7-10.1-13.7-10.1-24.3c0-6.6,1.3-13.2,3.1-17.2l5.7-12.8h150.2l7.4,17.2
	c1.3,3.1,3.1,9.2,3.1,15.9c0,7.9-3.1,14.2-9.6,21.2h99C1837,1528.7,1826.9,1512.9,1818.6,1494.3z M1966.1,1499.8
	c43.7,0,65.6-11.5,65.6-34.3c0-27.7-30.6-29.4-82.2-36.5c-63.8-8.8-95.2-32.1-95.2-73c0-47,43.7-82.3,117.9-82.3
	c47.6,0,83.1,8.4,103.1,8.4c3.5,0,7.1-0.4,11-2.2l-16.2,66.4c-25.4-16.2-59.5-25.5-100.1-25.5c-31.9,0-48.5,9.2-48.5,26.3
	c0,25.5,30.2,22.9,85.2,33c62.1,11.5,93.2,33,93.2,78.2c0,56.2-46.9,89.1-133.4,89.1c-39.3,0-68.6-6.1-84.8-6.1
	c-4.3,0-8.7,0.9-13.1,2.6l-16.1-73.7C1891.9,1490.1,1929,1499.8,1966.1,1499.8L1966.1,1499.8z M2233.6,1499.8
	c43.7,0,65.6-11.5,65.6-34.3c0-27.7-30.6-29.4-82.2-36.5c-63.8-8.8-95.2-32.1-95.2-73c0-47,43.7-82.3,117.9-82.3
	c47.7,0,83.1,8.4,103.2,8.4c3.5,0,7-0.4,10.9-2.2l-16.1,66.4c-25.4-16.2-59.6-25.5-100.2-25.5c-31.9,0-48.5,9.2-48.5,26.3
	c0,25.5,30.1,22.9,85.2,33c62.1,11.5,93.2,33,93.2,78.2c0,56.2-46.9,89.1-133.4,89.1c-39.3,0-68.6-6.1-84.7-6.1
	c-4.4,0-8.7,0.9-13.1,2.6l-16.2-73.7C2159.4,1490.1,2196.5,1499.8,2233.6,1499.8L2233.6,1499.8z M2428.6,1237.6c8,0,15.2,3,20.8,8.8
	c5.5,5.6,8.2,12.6,8.2,21c0,7.5-3.1,14.8-8.5,20c-5.7,5.5-13,8.6-20.6,8.6s-15-3.2-20.6-8.8c-5.4-5.4-8.4-12.7-8.3-20.3
	c0-7.7,3.2-15.3,8.8-20.9C2413.7,1240.5,2421,1237.5,2428.6,1237.6L2428.6,1237.6z M2428.5,1231.9c-12.5,0-23.3,6.2-29.5,16.8
	c-3.4,5.9-5,11.9-5,18.2c0,9,3.4,17.7,9.9,24.3c6.5,6.7,15.4,10.5,24.7,10.5c9,0,17.9-3.5,24.6-10.1c6.6-6.4,10.1-15,10.1-24.6
	c0-9.4-3.4-18-9.8-24.6C2446.9,1235.6,2437.9,1231.8,2428.5,1231.9L2428.5,1231.9z M2414.1,1246.8v38.8h9.4v-15.8h4.6l7.4,15.8h10.4
	l-8.6-17.3c5.3-1.3,8.4-5.2,8.4-10.3c0-7.5-5.5-11.2-16.5-11.2L2414.1,1246.8l9.4,6h4.1c5.7,0,8.5,1.7,8.5,5.8c0,3.9-2.6,5.6-8,5.6
	h-4.6v-11.3L2414.1,1246.8L2414.1,1246.8z"/>
</svg>
