<?xml version="1.0" encoding="UTF-8" standalone="no"?>
<svg xmlns="http://www.w3.org/2000/svg" viewBox="0 0 512 512">
<path d="M 105,109 104,110 102,110 99,113 99,114 98,115 98,116 97,117 97,118 96,119 96,120 94,122 94,123 93,124 93,125 92,126 92,127 91,128 91,129 90,130 90,131 88,133 88,134 87,135 87,136 86,137 86,138 85,139 85,140 84,141 84,142 82,144 82,145 81,146 81,147 80,148 80,149 79,150 79,151 77,153 77,154 76,155 76,156 75,157 75,158 74,159 74,160 73,161 73,162 71,164 71,165 70,166 70,167 69,168 69,169 68,170 68,171 66,173 66,174 65,175 65,176 64,177 64,178 63,179 63,180 62,181 62,182 60,184 60,185 59,186 59,187 58,188 58,189 57,190 57,191 56,192 56,193 54,195 54,196 53,197 53,198 52,199 52,200 51,201 51,202 49,204 49,205 48,206 48,207 47,208 47,209 46,210 46,211 45,212 45,213 43,215 43,216 42,217 42,218 41,219 41,220 40,221 40,222 38,224 38,225 37,226 37,227 36,228 36,229 35,230 35,231 34,232 34,233 32,235 32,236 31,237 31,238 30,239 30,240 29,241 29,242 27,244 27,245 26,246 26,247 25,248 25,250 24,251 24,254 25,255 25,256 26,257 26,258 27,259 28,259 29,260 30,260 32,262 33,262 34,263 35,263 36,264 37,264 38,265 39,265 40,266 41,266 43,268 44,268 45,269 46,269 47,270 48,270 49,271 50,271 51,272 52,272 54,274 55,274 56,275 57,275 58,276 59,276 60,277 61,277 62,278 64,278 65,279 66,279 67,278 69,278 70,277 71,277 74,274 75,275 75,276 80,281 80,282 87,289 87,291 86,292 86,293 85,294 85,297 84,298 84,307 85,308 85,311 86,312 86,313 87,314 87,315 89,317 89,318 92,321 93,321 95,323 96,323 97,324 98,324 99,325 101,325 102,326 111,326 112,327 112,332 111,333 112,334 112,339 113,340 113,341 114,342 114,343 115,344 115,345 117,347 117,348 119,350 120,350 123,353 124,353 125,354 127,354 128,355 132,355 133,356 138,356 139,355 143,355 144,354 145,354 146,353 147,353 148,354 148,358 149,359 149,360 150,361 150,362 151,363 151,364 152,365 152,366 156,370 157,370 159,372 160,372 161,373 162,373 163,374 166,374 167,375 175,375 176,374 179,374 180,373 182,373 183,372 184,372 185,373 185,374 186,375 186,378 187,379 187,381 188,382 188,383 190,385 190,386 194,390 195,390 197,392 198,392 199,393 200,393 201,394 204,394 205,395 213,395 214,394 217,394 218,393 219,393 220,392 221,392 222,391 223,391 225,389 226,389 227,390 228,390 229,391 231,391 232,392 233,392 234,393 236,393 237,394 239,394 240,395 242,395 243,396 245,396 246,397 248,397 249,398 252,398 253,399 257,399 258,400 262,400 263,401 272,401 273,402 280,402 281,401 287,401 288,400 291,400 292,399 294,399 295,398 297,398 299,396 300,396 301,395 302,395 310,387 310,386 312,384 312,383 313,382 322,382 323,381 325,381 326,380 328,380 329,379 330,379 331,378 332,378 334,376 335,376 341,370 341,369 343,367 343,366 344,365 344,364 345,363 345,361 346,360 346,357 347,356 350,356 351,355 353,355 354,354 356,354 357,353 358,353 360,351 361,351 368,344 368,343 370,341 370,340 371,339 371,338 372,337 372,334 373,333 373,328 374,327 374,324 373,323 373,322 375,320 377,320 378,319 380,319 382,317 383,317 386,314 387,314 389,312 389,311 391,309 391,308 393,306 393,304 394,303 394,302 395,301 395,296 396,295 396,291 399,288 400,288 401,287 402,287 404,285 405,285 406,284 407,284 409,282 410,282 412,280 413,280 415,278 416,278 418,276 419,276 421,274 422,274 425,271 426,271 429,268 430,268 433,265 434,266 434,267 435,268 435,269 436,270 436,271 437,272 437,273 438,274 438,275 441,278 444,278 445,279 446,279 447,278 449,278 450,277 451,277 452,276 453,276 454,275 455,275 456,274 457,274 459,272 460,272 461,271 462,271 463,270 464,270 465,269 466,269 467,268 468,268 470,266 471,266 472,265 473,265 474,264 475,264 476,263 477,263 478,262 479,262 481,260 482,260 483,259 484,259 485,258 485,257 486,256 486,255 487,254 487,251 486,250 486,248 485,247 485,246 484,245 484,244 482,242 482,241 481,240 481,239 480,238 480,237 479,236 479,235 477,233 477,232 476,231 476,230 475,229 475,228 474,227 474,226 473,225 473,224 471,222 471,221 470,220 470,219 469,218 469,217 468,216 468,215 467,214 467,213 465,211 465,210 464,209 464,208 463,207 463,206 462,205 462,204 460,202 460,201 459,200 459,199 458,198 458,197 457,196 457,195 456,194 456,193 454,191 454,190 453,189 453,188 452,187 452,186 451,185 451,184 449,182 449,181 448,180 448,179 447,178 447,177 446,176 446,175 445,174 445,173 443,171 443,170 442,169 442,168 441,167 441,166 440,165 440,164 438,162 438,161 437,160 437,159 436,158 436,157 435,156 435,155 434,154 434,153 432,151 432,150 431,149 431,148 430,147 430,146 429,145 429,144 427,142 427,141 426,140 426,139 425,138 425,137 424,136 424,135 423,134 423,133 421,131 421,130 420,129 420,128 419,127 419,126 418,125 418,124 417,123 417,122 415,120 415,119 414,118 414,117 413,116 413,115 412,114 412,113 409,110 407,110 406,109 403,109 402,110 400,110 398,112 397,112 396,113 395,113 394,114 393,114 392,115 391,115 389,117 388,117 387,118 386,118 385,119 384,119 383,120 382,120 381,121 380,121 378,123 377,123 376,124 375,124 374,125 373,125 372,126 371,126 369,128 368,128 367,129 366,129 365,130 365,131 364,132 364,133 363,134 363,137 364,138 364,140 365,141 365,142 367,144 365,146 364,146 363,147 360,147 359,148 343,148 342,147 339,147 338,146 336,146 335,145 334,145 333,144 331,144 330,143 329,143 328,142 326,142 325,141 322,141 321,140 318,140 317,139 314,139 313,138 308,138 307,137 300,137 299,136 255,136 254,137 244,137 243,138 235,138 234,139 227,139 226,140 219,140 218,141 213,141 212,142 208,142 207,143 205,143 204,144 202,144 200,146 199,146 192,153 192,154 189,157 189,158 187,160 187,161 186,162 185,162 184,161 181,161 180,160 177,160 176,159 173,159 172,158 168,158 167,157 164,157 163,156 160,156 159,155 156,155 155,154 153,154 152,153 151,153 150,152 149,152 148,151 146,151 144,149 143,149 142,148 143,147 143,146 144,145 144,144 146,142 146,141 147,140 147,138 148,137 148,134 147,133 147,132 146,131 146,130 145,129 144,129 142,127 141,127 140,126 139,126 138,125 137,125 136,124 135,124 134,123 133,123 131,121 130,121 129,120 128,120 127,119 126,119 125,118 124,118 123,117 122,117 120,115 119,115 118,114 117,114 116,113 115,113 114,112 113,112 111,110 109,110 108,109 " fill="white" stroke="white" stroke-width="1"/>
</svg>