<?xml version="1.0" encoding="UTF-8" standalone="no"?>
<svg xmlns="http://www.w3.org/2000/svg" viewBox="0 0 512 512">
<path d="M 251,492 249,494 248,494 248,495 246,497 246,506 248,508 248,509 249,509 251,511 260,511 262,509 263,509 263,508 265,506 265,497 263,495 263,494 262,494 260,492 " fill="white" stroke="white" stroke-width="1"/>
<path d="M 239,0 238,1 232,1 231,2 226,2 225,3 222,3 221,4 218,4 217,5 214,5 213,6 211,6 210,7 208,7 207,8 205,8 204,9 203,9 202,10 200,10 199,11 198,11 197,12 196,12 195,13 193,13 192,14 191,14 190,15 189,15 188,16 187,16 186,17 185,17 183,19 182,19 181,20 180,20 178,22 177,22 175,24 174,24 172,26 171,26 169,28 168,28 164,32 163,32 158,37 157,37 148,46 148,47 142,53 142,54 138,58 138,59 136,61 136,62 134,64 134,65 132,67 132,68 130,70 130,71 129,72 129,73 128,74 128,75 127,76 127,77 125,79 125,80 124,81 124,83 123,84 123,85 122,86 122,87 121,88 121,89 120,90 120,92 119,93 119,94 118,95 118,97 117,98 117,100 116,101 116,104 115,105 115,107 114,108 114,111 113,112 113,116 112,117 112,122 111,123 111,129 110,130 110,151 107,154 106,154 103,157 102,157 96,163 96,164 93,167 93,168 91,170 91,171 89,173 89,174 88,175 88,176 87,177 87,179 86,180 86,181 85,182 85,184 84,185 84,188 83,189 83,194 82,195 82,209 83,210 83,215 84,216 84,219 85,220 85,222 86,223 86,224 87,225 87,227 88,228 88,229 89,230 89,231 91,233 91,234 93,236 93,237 96,240 96,241 102,247 103,247 106,250 107,250 109,252 110,252 112,254 113,254 114,255 115,255 116,256 117,256 118,257 120,257 121,258 123,258 124,259 127,259 128,260 132,260 133,261 154,261 155,262 155,263 156,264 156,265 157,266 157,267 158,268 158,270 159,271 159,272 160,273 160,274 162,276 162,277 163,278 163,279 165,281 165,282 167,284 167,285 169,287 169,288 173,292 173,293 186,306 187,306 191,310 192,310 194,312 195,312 197,314 198,314 200,316 201,316 202,317 203,317 204,318 204,336 203,337 202,337 201,338 200,338 199,339 198,339 197,340 195,340 194,341 193,341 192,342 191,342 190,343 189,343 188,344 144,344 143,345 135,345 134,346 129,346 128,347 124,347 123,348 120,348 119,349 116,349 115,350 112,350 111,351 109,351 108,352 106,352 105,353 103,353 102,354 101,354 100,355 98,355 97,356 95,356 94,357 93,357 92,358 91,358 90,359 89,359 88,360 87,360 86,361 85,361 84,362 83,362 82,363 81,363 80,364 79,364 77,366 76,366 75,367 74,367 72,369 71,369 69,371 68,371 66,373 65,373 62,376 61,376 57,380 56,380 48,388 47,388 43,392 43,393 35,401 35,402 31,406 31,407 29,409 29,410 26,413 26,414 25,415 25,416 23,418 23,419 21,421 21,422 20,423 20,424 19,425 19,426 18,427 18,428 17,429 17,430 15,432 15,434 14,435 14,436 13,437 13,438 12,439 12,440 11,441 11,443 10,444 10,445 9,446 9,448 8,449 8,451 7,452 7,454 6,455 6,458 5,459 5,461 4,462 4,465 3,466 3,470 2,471 2,476 1,477 1,483 0,484 0,506 2,508 2,509 3,509 5,511 215,511 217,509 218,509 218,508 220,506 220,497 218,495 218,494 217,494 215,492 21,492 20,491 20,486 21,485 21,479 22,478 22,474 23,473 23,469 24,468 24,466 25,465 25,462 26,461 26,459 27,458 27,456 28,455 28,454 29,453 29,451 30,450 30,449 31,448 31,446 32,445 32,444 33,443 33,442 34,441 34,440 35,439 35,438 36,437 36,436 37,435 37,434 39,432 39,431 40,430 40,429 42,427 42,426 44,424 44,423 47,420 47,419 51,415 51,414 70,395 71,395 75,391 76,391 78,389 79,389 81,387 82,387 84,385 85,385 87,383 88,383 89,382 90,382 91,381 92,381 94,379 95,379 96,378 97,378 98,377 100,377 101,376 102,376 103,375 104,375 105,374 107,374 108,373 109,373 110,372 112,372 113,371 115,371 116,370 118,370 119,369 122,369 123,368 126,368 127,367 130,367 131,366 136,366 137,365 144,365 145,364 149,364 150,365 150,369 151,370 151,372 153,374 153,375 155,377 155,378 157,380 157,381 159,383 159,384 161,386 161,387 163,389 163,390 165,392 165,393 168,396 168,397 170,399 170,400 172,402 172,403 174,405 174,406 176,408 176,409 178,411 178,412 180,414 180,415 182,417 182,418 185,421 185,422 187,424 187,425 189,427 189,428 191,430 191,431 193,433 193,434 195,436 195,437 197,439 197,440 200,443 200,444 201,444 203,446 206,446 207,447 208,447 209,446 212,446 214,444 215,444 255,404 256,404 297,445 298,445 299,446 302,446 303,447 304,447 305,446 308,446 313,441 313,440 315,438 315,437 317,435 317,434 319,432 319,431 322,428 322,427 324,425 324,424 326,422 326,421 328,419 328,418 330,416 330,415 332,413 332,412 334,410 334,409 337,406 337,405 339,403 339,402 341,400 341,399 343,397 343,396 345,394 345,393 347,391 347,390 349,388 349,387 351,385 351,384 354,381 354,380 356,378 356,377 358,375 358,374 359,373 359,372 360,371 360,369 361,368 361,366 360,365 361,364 366,364 367,365 374,365 375,366 380,366 381,367 384,367 385,368 388,368 389,369 392,369 393,370 395,370 396,371 398,371 399,372 401,372 402,373 404,373 405,374 406,374 407,375 408,375 409,376 410,376 411,377 413,377 414,378 415,378 416,379 417,379 419,381 420,381 421,382 422,382 423,383 424,383 426,385 427,385 429,387 430,387 432,389 433,389 435,391 436,391 440,395 441,395 460,414 460,415 464,419 464,420 467,423 467,424 469,426 469,427 471,429 471,430 472,431 472,432 474,434 474,435 475,436 475,437 476,438 476,439 477,440 477,441 478,442 478,443 479,444 479,445 480,446 480,448 481,449 481,450 482,451 482,453 483,454 483,455 484,456 484,458 485,459 485,461 486,462 486,465 487,466 487,469 488,470 488,473 489,474 489,478 490,479 490,485 491,486 491,491 490,492 296,492 294,494 293,494 293,495 291,497 291,506 293,508 293,509 294,509 296,511 506,511 508,509 509,509 509,508 511,506 511,484 510,483 510,477 509,476 509,471 508,470 508,467 507,466 507,462 506,461 506,459 505,458 505,455 504,454 504,452 503,451 503,449 502,448 502,446 501,445 501,444 500,443 500,441 499,440 499,439 498,438 498,437 497,436 497,435 496,434 496,432 494,430 494,429 493,428 493,427 492,426 492,425 491,424 491,423 490,422 490,421 488,419 488,418 486,416 486,415 485,414 485,413 482,410 482,409 479,406 479,405 476,402 476,401 468,393 468,392 464,388 463,388 455,380 454,380 450,376 449,376 446,373 445,373 443,371 442,371 440,369 439,369 437,367 436,367 435,366 434,366 432,364 431,364 430,363 429,363 428,362 427,362 426,361 425,361 424,360 423,360 422,359 421,359 420,358 419,358 418,357 417,357 416,356 414,356 413,355 412,355 411,354 409,354 408,353 406,353 405,352 403,352 402,351 400,351 399,350 396,350 395,349 393,349 392,348 388,348 387,347 383,347 382,346 377,346 376,345 368,345 367,344 323,344 322,343 321,343 320,342 319,342 318,341 317,341 316,340 314,340 313,339 312,339 311,338 310,338 309,337 308,337 307,336 307,318 308,317 309,317 310,316 311,316 313,314 314,314 316,312 317,312 319,310 320,310 324,306 325,306 338,293 338,292 342,288 342,287 344,285 344,284 346,282 346,281 348,279 348,278 349,277 349,276 351,274 351,273 352,272 352,271 353,270 353,268 354,267 354,266 355,265 355,264 356,263 356,262 357,261 378,261 379,260 383,260 384,259 387,259 388,258 390,258 391,257 393,257 394,256 395,256 396,255 397,255 398,254 399,254 401,252 402,252 404,250 405,250 408,247 409,247 415,241 415,240 418,237 418,236 420,234 420,233 422,231 422,230 423,229 423,228 424,227 424,225 425,224 425,223 426,222 426,220 427,219 427,216 428,215 428,210 429,209 429,195 428,194 428,189 427,188 427,185 426,184 426,182 425,181 425,180 424,179 424,177 423,176 423,175 422,174 422,173 420,171 420,170 418,168 418,167 415,164 415,163 409,157 408,157 405,154 404,154 401,151 401,130 400,129 400,123 399,122 399,117 398,116 398,112 397,111 397,108 396,107 396,105 395,104 395,101 394,100 394,98 393,97 393,96 392,95 392,93 391,92 391,90 390,89 390,88 389,87 389,86 388,85 388,84 387,83 387,81 385,79 385,78 384,77 384,76 383,75 383,74 382,73 382,72 381,71 381,70 379,68 379,67 377,65 377,64 375,62 375,61 373,59 373,58 369,54 369,53 363,47 363,46 354,37 353,37 348,32 347,32 343,28 342,28 340,26 339,26 337,24 336,24 334,22 333,22 331,20 330,20 329,19 328,19 326,17 325,17 324,16 323,16 322,15 321,15 320,14 319,14 318,13 317,13 316,12 314,12 313,11 312,11 311,10 309,10 308,9 307,9 306,8 304,8 303,7 301,7 300,6 298,6 297,5 294,5 293,4 290,4 289,3 286,3 285,2 280,2 279,1 273,1 272,0 " fill="white" stroke="white" stroke-width="1"/>
</svg>