<?xml version="1.0" encoding="UTF-8"?>
<svg id="Camada_1" xmlns="http://www.w3.org/2000/svg" version="1.1" viewBox="0 0 1000 1000">
  <!-- Generator: Adobe Illustrator 29.1.0, SVG Export Plug-In . SVG Version: 2.1.0 Build 142)  -->
  <defs>
    <style>
      .st0 {
        fill: #101664;
      }
    </style>
  </defs>
  <path class="st0" d="M436.9,807.9h220.7c5.5,0,10.6-3.1,13-8.1l158.6-319.3c2.4-4.9,1.9-10.8-1.4-15.2l-73.6-99.1c-2.7-3.7-7.1-5.9-11.7-5.9h-130.3c-12,0-18.8,13.6-11.7,23.2l55.7,75c5.4,7.3,2.9,17.7-5.2,21.7l-145.6,72.8c-3.5,1.7-6.1,4.8-7.3,8.5l-75.1,227.2c-3.1,9.4,3.9,19.1,13.8,19.1Z"/>
  <path class="st0" d="M563.1,192.1h-220.7c-5.5,0-10.6,3.1-13,8.1l-158.6,319.3c-2.4,4.9-1.9,10.8,1.4,15.2l73.6,99.1c2.7,3.7,7.1,5.9,11.7,5.9h130.3c12,0,18.8-13.6,11.7-23.2l-55.7-75c-5.4-7.3-2.9-17.7,5.2-21.7l145.6-72.8c3.5-1.7,6.1-4.8,7.3-8.5l75.1-227.2c3.1-9.4-3.9-19.1-13.8-19.1Z"/>
</svg>