<?xml version="1.0" encoding="UTF-8" standalone="no"?>
<svg xmlns="http://www.w3.org/2000/svg" viewBox="0 0 512 512">
<path d="M 253,475 252,476 250,476 246,480 246,482 245,483 245,487 246,488 246,490 250,494 251,494 252,495 258,495 259,494 261,494 264,491 264,490 265,489 265,481 264,480 264,479 262,477 261,477 260,476 259,476 258,475 " fill="white" stroke="white" stroke-width="1"/>
<path d="M 247,204 246,205 240,205 239,206 235,206 234,207 231,207 230,208 228,208 227,209 225,209 224,210 223,210 222,211 220,211 219,212 218,212 217,213 216,213 215,214 214,214 213,215 212,215 210,217 209,217 207,219 206,219 204,221 203,221 199,225 198,225 189,234 189,235 186,238 186,239 183,242 183,243 181,245 181,246 180,247 180,248 179,249 179,250 178,251 178,252 177,253 177,254 176,255 176,256 175,257 175,258 174,259 174,261 173,262 173,264 172,265 172,268 171,269 171,272 170,273 170,277 169,278 169,280 168,281 163,276 162,276 159,273 158,273 157,272 156,272 154,270 153,270 152,269 151,269 150,268 149,268 148,267 146,267 145,266 144,266 143,265 141,265 140,264 137,264 136,263 132,263 131,262 108,262 107,263 103,263 102,264 99,264 98,265 96,265 95,266 93,266 92,267 91,267 90,268 89,268 88,269 87,269 86,270 85,270 84,271 83,271 81,273 80,273 78,275 77,275 73,279 72,279 66,285 66,286 62,290 62,291 60,293 60,294 58,296 58,297 57,298 57,299 56,300 56,301 55,302 55,303 54,304 54,306 53,307 53,308 52,309 52,312 51,313 51,315 50,316 50,321 49,322 49,343 50,344 50,348 51,349 51,352 52,353 52,355 53,356 53,358 54,359 54,360 55,361 55,362 56,363 56,364 57,365 57,366 58,367 58,368 59,369 59,370 61,372 61,373 64,376 64,377 73,386 71,388 69,388 68,389 67,389 66,390 65,390 64,391 63,391 61,393 60,393 58,395 57,395 54,398 53,398 45,406 45,407 42,410 42,411 40,413 40,414 38,416 38,417 37,418 37,419 36,420 36,421 35,422 35,424 34,425 34,426 33,427 33,430 32,431 32,433 31,434 31,439 30,440 30,474 29,475 7,475 6,476 4,476 1,479 1,480 0,481 0,489 1,490 1,491 4,494 5,494 6,495 213,495 214,494 216,494 219,491 219,490 220,489 220,481 219,480 219,479 217,477 216,477 215,476 214,476 213,475 166,475 165,474 165,429 166,428 166,425 167,424 167,421 168,420 168,419 169,418 169,416 170,415 170,414 171,413 171,412 172,411 172,410 173,409 173,408 175,406 175,405 178,402 178,401 188,391 189,391 192,388 193,388 194,387 195,387 197,385 198,385 199,384 200,384 201,383 203,383 204,382 206,382 207,381 208,381 209,380 212,380 213,379 218,379 219,378 292,378 293,379 298,379 299,380 302,380 303,381 304,381 305,382 307,382 308,383 309,383 310,384 312,384 313,385 314,385 316,387 317,387 318,388 319,388 322,391 323,391 333,401 333,402 336,405 336,406 338,408 338,409 339,410 339,411 340,412 340,413 341,414 341,415 342,416 342,418 343,419 343,420 344,421 344,424 345,425 345,428 346,429 346,474 345,475 298,475 297,476 296,476 295,477 294,477 292,479 292,480 291,481 291,489 292,490 292,491 295,494 297,494 298,495 505,495 506,494 507,494 510,491 510,490 511,489 511,481 510,480 510,479 507,476 505,476 504,475 482,475 481,474 481,440 480,439 480,434 479,433 479,431 478,430 478,427 477,426 477,425 476,424 476,422 475,421 475,420 474,419 474,418 473,417 473,416 471,414 471,413 469,411 469,410 466,407 466,406 458,398 457,398 454,395 453,395 451,393 450,393 448,391 447,391 446,390 445,390 444,389 443,389 442,388 440,388 438,386 447,377 447,376 450,373 450,372 452,370 452,369 453,368 453,367 454,366 454,365 455,364 455,363 456,362 456,361 457,360 457,359 458,358 458,356 459,355 459,353 460,352 460,349 461,348 461,344 462,343 462,322 461,321 461,316 460,315 460,313 459,312 459,309 458,308 458,307 457,306 457,304 456,303 456,302 455,301 455,300 454,299 454,298 453,297 453,296 451,294 451,293 449,291 449,290 445,286 445,285 439,279 438,279 434,275 433,275 431,273 430,273 428,271 427,271 426,270 425,270 424,269 423,269 422,268 421,268 420,267 419,267 418,266 416,266 415,265 413,265 412,264 409,264 408,263 404,263 403,262 380,262 379,263 375,263 374,264 371,264 370,265 368,265 367,266 366,266 365,267 363,267 362,268 361,268 360,269 359,269 358,270 357,270 355,272 354,272 353,273 352,273 349,276 348,276 343,281 342,280 342,278 341,277 341,273 340,272 340,269 339,268 339,265 338,264 338,262 337,261 337,259 336,258 336,257 335,256 335,255 334,254 334,253 333,252 333,251 332,250 332,249 331,248 331,247 330,246 330,245 328,243 328,242 325,239 325,238 322,235 322,234 313,225 312,225 308,221 307,221 305,219 304,219 302,217 301,217 299,215 298,215 297,214 296,214 295,213 294,213 293,212 292,212 291,211 289,211 288,210 287,210 286,209 284,209 283,208 281,208 280,207 277,207 276,206 272,206 271,205 265,205 264,204 " fill="white" stroke="white" stroke-width="1"/>
<path d="M 393,91 392,92 390,92 389,93 388,93 383,98 383,99 381,101 381,102 380,103 380,104 378,106 378,107 377,108 377,109 375,111 375,112 374,113 374,114 372,116 372,117 371,118 371,119 370,120 368,120 367,121 364,121 363,122 360,122 359,123 355,123 354,124 351,124 350,125 347,125 346,126 343,126 342,127 341,127 336,132 336,133 335,134 335,135 334,136 334,146 335,147 335,149 338,152 338,153 344,159 344,160 351,167 351,168 354,171 354,174 353,175 353,186 352,187 352,202 353,203 353,204 354,205 354,206 358,210 359,210 360,211 361,211 362,212 365,212 366,213 369,213 370,212 373,212 374,211 376,211 377,210 378,210 379,209 380,209 381,208 383,208 384,207 385,207 386,206 388,206 389,205 390,205 391,204 392,204 393,203 395,203 396,202 398,202 399,203 400,203 401,204 403,204 404,205 405,205 406,206 407,206 408,207 410,207 411,208 412,208 413,209 415,209 416,210 417,210 418,211 419,211 420,212 423,212 424,213 427,213 428,212 432,212 433,211 434,211 436,209 437,209 438,208 438,207 440,205 440,204 441,203 441,201 442,200 442,192 441,191 441,180 440,179 440,170 447,163 447,162 453,156 453,155 458,150 458,149 459,148 459,146 460,145 460,138 459,137 459,135 458,134 458,133 457,132 457,131 454,128 453,128 452,127 451,127 450,126 448,126 447,125 444,125 443,124 439,124 438,123 435,123 434,122 431,122 430,121 426,121 425,120 424,120 422,118 422,117 421,116 421,115 419,113 419,112 418,111 418,110 416,108 416,107 415,106 415,105 413,103 413,102 412,101 412,100 410,98 410,97 407,94 406,94 404,92 402,92 401,91 " fill="white" stroke="white" stroke-width="1"/>
<path d="M 110,91 109,92 107,92 105,94 104,94 101,97 101,98 99,100 99,101 98,102 98,103 96,105 96,106 95,107 95,108 93,110 93,111 92,112 92,113 90,115 90,116 89,117 89,118 87,120 86,120 85,121 82,121 81,122 77,122 76,123 73,123 72,124 69,124 68,125 64,125 63,126 61,126 60,127 59,127 58,128 57,128 54,131 54,132 53,133 53,134 52,135 52,136 51,137 51,145 52,146 52,148 53,149 53,150 58,155 58,156 64,162 64,163 71,170 71,179 70,180 70,191 69,192 69,200 70,201 70,203 71,204 71,205 73,207 73,208 74,209 75,209 77,211 78,211 79,212 82,212 83,213 86,213 87,212 91,212 92,211 93,211 94,210 95,210 96,209 98,209 99,208 100,208 101,207 103,207 104,206 105,206 106,205 107,205 108,204 110,204 111,203 112,203 113,202 115,202 116,203 118,203 119,204 120,204 121,205 123,205 124,206 125,206 126,207 127,207 128,208 130,208 131,209 132,209 133,210 134,210 135,211 137,211 138,212 141,212 142,213 145,213 146,212 149,212 150,211 151,211 152,210 153,210 157,206 157,205 158,204 158,203 159,202 159,187 158,186 158,175 157,174 157,171 160,168 160,167 167,160 167,159 173,153 173,152 176,149 176,147 177,146 177,136 176,135 176,134 175,133 175,132 170,127 169,127 168,126 165,126 164,125 161,125 160,124 157,124 156,123 152,123 151,122 148,122 147,121 144,121 143,120 141,120 140,119 140,118 139,117 139,116 137,114 137,113 136,112 136,111 134,109 134,108 133,107 133,106 131,104 131,103 130,102 130,101 128,99 128,98 123,93 122,93 121,92 119,92 118,91 " fill="white" stroke="white" stroke-width="1"/>
<path d="M 251,16 250,17 248,17 246,19 245,19 241,23 241,24 239,26 239,27 238,28 238,29 236,31 236,32 235,33 235,34 233,36 233,37 232,38 232,39 230,41 230,42 229,43 229,44 227,46 227,47 226,48 226,49 223,52 221,52 220,53 217,53 216,54 212,54 211,55 208,55 207,56 204,56 203,57 199,57 198,58 195,58 194,59 191,59 190,60 189,60 188,61 187,61 182,66 182,67 181,68 181,70 180,71 180,81 181,82 181,83 182,84 182,85 184,87 184,88 191,95 191,96 197,102 197,103 204,110 204,111 205,112 205,115 204,116 204,127 203,128 203,138 202,139 202,148 203,149 203,151 204,152 204,153 205,154 205,155 209,159 210,159 211,160 212,160 213,161 216,161 217,162 222,162 223,161 226,161 227,160 228,160 229,159 230,159 231,158 233,158 234,157 235,157 236,156 238,156 239,155 240,155 241,154 242,154 243,153 245,153 246,152 247,152 248,151 249,151 250,150 252,150 253,149 254,149 255,148 256,148 257,149 258,149 259,150 261,150 262,151 263,151 264,152 266,152 267,153 268,153 269,154 270,154 271,155 273,155 274,156 275,156 276,157 277,157 278,158 280,158 281,159 282,159 283,160 284,160 285,161 288,161 289,162 294,162 295,161 298,161 299,160 300,160 301,159 302,159 306,155 306,154 307,153 307,152 308,151 308,149 309,148 309,139 308,138 308,128 307,127 307,116 306,115 306,112 307,111 307,110 314,103 314,102 320,96 320,95 327,88 327,87 329,85 329,84 330,83 330,82 331,81 331,71 330,70 330,68 329,67 329,66 324,61 323,61 322,60 321,60 320,59 317,59 316,58 313,58 312,57 309,57 308,56 304,56 303,55 300,55 299,54 296,54 295,53 291,53 290,52 288,52 285,49 285,48 284,47 284,46 282,44 282,43 281,42 281,41 279,39 279,38 278,37 278,36 276,34 276,33 275,32 275,31 273,29 273,28 272,27 272,26 270,24 270,23 266,19 265,19 263,17 261,17 260,16 " fill="white" stroke="white" stroke-width="1"/>
</svg>